<svg width="20" height="20" viewBox="0 0 20 20" fill="none" xmlns="http://www.w3.org/2000/svg">
<g clip-path="url(#clip0_2299_4897)">
<path d="M14.6024 12.7846C14.1424 12.7846 13.769 12.4121 13.769 11.9521C13.769 11.4921 14.1415 11.1188 14.6015 11.1188C15.0615 11.1188 15.4349 11.4913 15.4349 11.9513C15.4349 12.4113 15.0624 12.7838 14.6024 12.7846ZM5.39736 12.7846C4.93736 12.7846 4.56402 12.4121 4.56402 11.9521C4.56402 11.4921 4.93652 11.1188 5.39652 11.1188C5.85652 11.1188 6.22986 11.4913 6.22986 11.9513C6.22986 12.4113 5.85736 12.7838 5.39736 12.7846ZM14.9007 7.76793L16.5649 4.88543C16.6607 4.7196 16.604 4.50793 16.4382 4.4121C16.2724 4.31626 16.0607 4.37293 15.9649 4.53876L14.2799 7.45793C12.9915 6.8696 11.544 6.5421 9.99986 6.5421C8.45569 6.5421 7.00819 6.8696 5.71902 7.4571L4.03402 4.53876C3.93819 4.37293 3.72652 4.31626 3.56069 4.41126C3.39569 4.5071 3.33819 4.71876 3.43402 4.8846L5.09819 7.76793C2.23986 9.3221 0.28569 12.2154 -0.000976562 15.6346H19.999C19.7132 12.2154 17.759 9.3221 14.9007 7.76793Z" fill="#CCCCCC"/>
</g>
<defs>
<clipPath id="clip0_2299_4897">
<rect width="20" height="20" fill="white"/>
</clipPath>
</defs>
</svg>
