<svg width="20" height="20" viewBox="0 0 20 20" fill="none" xmlns="http://www.w3.org/2000/svg">
<g clip-path="url(#clip0_2299_4907)">
<path d="M15.4551 10.6357C15.4751 9.07732 16.2918 7.63816 17.6193 6.82232C16.7785 5.62066 15.4193 4.88649 13.9535 4.84066C12.411 4.67899 10.916 5.76316 10.1301 5.76316C9.3293 5.76316 8.1193 4.85649 6.81597 4.88316C5.1018 4.93899 3.5418 5.88982 2.70764 7.38899C0.931804 10.464 2.25597 14.984 3.95764 17.4698C4.8093 18.6873 5.80347 20.0465 7.10597 19.999C8.38014 19.9465 8.85597 19.1865 10.3935 19.1865C11.9168 19.1865 12.3635 19.999 13.6918 19.9682C15.0585 19.9457 15.9201 18.7457 16.7418 17.5165C17.3535 16.649 17.8243 15.6907 18.136 14.6765C16.5126 13.9898 15.4568 12.399 15.4551 10.6357Z" fill="#CCCCCC"/>
<path d="M12.9462 3.20583C13.6912 2.31083 14.0587 1.16083 13.9695 0C12.8312 0.12 11.7787 0.664167 11.0237 1.52417C10.2778 2.37333 9.89951 3.48333 9.97284 4.61167C11.127 4.62333 12.2228 4.105 12.9462 3.20583Z" fill="#CCCCCC"/>
</g>
<defs>
<clipPath id="clip0_2299_4907">
<rect width="20" height="20" fill="white"/>
</clipPath>
</defs>
</svg>
