<svg width="258" height="48" viewBox="0 0 258 48" fill="none" xmlns="http://www.w3.org/2000/svg">
<g clip-path="url(#clip0_2276_2096)">
<path d="M218.26 0H241.463L257.966 48.0419H244.41L241.381 38.354H216.984L213.475 48.0419H198.647L218.26 0ZM237.635 26.1822L230.059 1.68202L221.288 26.1822H237.635Z" fill="white"/>
<path d="M134.85 11.4482V0H187.631V11.4482H134.85ZM134.85 24.4219L187.631 11.4482V23.1441L134.85 36.1113V24.4219ZM188.429 36.1113V48.0419H134.85V36.1113H188.429Z" fill="white"/>
<path d="M84.9259 0H108.129L124.632 48.0419H111.076L108.048 38.354H83.6502L80.1412 48.0419H65.3132L84.9259 0ZM104.302 26.1822L96.7254 1.68202L87.9545 26.1822H104.302Z" fill="white"/>
<path d="M0 0H39.4689C48.5579 0 53.9788 4.16593 53.9788 11.9306C53.9788 19.0564 48.3177 22.8181 42.0203 23.1441C49.8336 23.4635 55.0954 27.6229 55.0954 35.4724C55.0954 44.1954 47.8405 48.0419 38.1932 48.0419H0V0ZM40.7446 18.4957V10.6528H12.202V18.4957H40.7446ZM12.202 29.3832V37.3956H41.7801V29.3832H12.202Z" fill="white"/>
</g>
<defs>
<clipPath id="clip0_2276_2096">
<rect width="258" height="48" fill="white"/>
</clipPath>
</defs>
</svg>
