<svg width="1704" height="260" viewBox="0 0 1704 260" fill="none" xmlns="http://www.w3.org/2000/svg">
<g clip-path="url(#clip0_2133_23)">
<path d="M1489.42 0H1614.71L1703.83 260.227H1630.63L1614.27 207.751H1482.53L1463.58 260.227H1383.51L1489.42 0ZM1594.05 141.82L1553.13 9.11094L1505.77 141.82H1594.05Z" fill="white"/>
<path d="M1039 62.0109V0H1324.02V62.0109H1039ZM1039 132.285L1324.02 62.0109V125.364L1039 195.603V132.285ZM1328.33 195.603V260.227H1039V195.603H1328.33Z" fill="white"/>
<path d="M458.603 0H583.899L673.015 260.227H599.815L583.461 207.751H451.714L432.765 260.227H352.693L458.603 0ZM563.232 141.82L522.32 9.11094L474.957 141.82H563.232Z" fill="white"/>
<path d="M0 0H213.133C262.214 0 291.487 22.5655 291.487 64.6241C291.487 103.222 260.917 123.598 226.911 125.364C269.103 127.094 297.517 149.624 297.517 192.142C297.517 239.392 258.34 260.227 206.244 260.227H0V0ZM220.022 100.185V57.7026H65.8909V100.185H220.022ZM65.8909 159.159V202.56H225.614V159.159H65.8909Z" fill="white"/>
</g>
<defs>
<clipPath id="clip0_2133_23">
<rect width="1704" height="260" fill="white"/>
</clipPath>
</defs>
</svg>
