<svg width="48" height="48" viewBox="0 0 48 48" fill="none" xmlns="http://www.w3.org/2000/svg">
<path d="M26.8513 27.1352C26.3423 29.1792 22.9018 28.0743 21.7861 27.797L22.6894 24.1743C23.8051 24.4525 27.3832 25.0041 26.8513 27.1352Z" fill="#FE9414"/>
<path d="M27.3602 21.8336C26.8964 23.6919 24.0321 22.7474 23.1028 22.5159L23.922 19.2302C24.8521 19.4618 27.844 19.8942 27.3602 21.8336Z" fill="#FE9414"/>
<path d="M27.627 9.44889C19.592 7.44539 11.4516 12.3365 9.44931 20.3726C7.44477 28.4072 12.3358 36.5465 20.37 38.5508C28.4073 40.5551 36.5477 35.664 38.5507 27.6286C40.5552 19.5925 35.6643 11.4524 27.627 9.44889ZM20.9126 19.1195C20.9332 18.7695 20.8125 18.3286 20.1453 18.162C20.1713 18.1452 18.9501 17.8648 18.9501 17.8648L19.3887 16.1074L21.6584 16.6743L21.6569 16.6835C21.9978 16.7675 22.3493 16.8485 22.7085 16.9303L23.3833 14.2276L25.0279 14.638L24.3668 17.2879C24.8078 17.3888 25.2526 17.4904 25.6851 17.5981L26.3416 14.9658L27.9877 15.3761L27.3137 18.0795C29.3916 18.7955 30.9116 19.8683 30.6128 21.8642C30.3965 23.3251 29.5864 24.0327 28.5112 24.2803C29.9877 25.049 30.7389 26.228 30.0228 28.272C29.1348 30.8104 27.024 31.0243 24.217 30.4933L23.5361 33.2227L21.89 32.8123L22.5625 30.1204C22.1361 30.0142 21.6997 29.9018 21.2511 29.7796L20.5763 32.4845L18.9317 32.0742L19.6134 29.3395C19.229 29.2409 18.8385 29.137 18.4396 29.0369L16.2975 28.5028L17.1144 26.6192C17.1144 26.6192 18.3272 26.9417 18.3112 26.918C18.7773 27.0326 18.9837 26.7293 19.0655 26.5268L20.9126 19.1195Z" fill="#FE9414"/>
</svg>
