<svg width="72" height="72" viewBox="0 0 72 72" fill="none" xmlns="http://www.w3.org/2000/svg">
<g clip-path="url(#clip0_2871_741)">
<path d="M29.6086 33.029C29.4811 31.8904 28.6114 31.0581 27.6664 31.1621C26.7214 31.2661 26.0547 32.2718 26.1765 33.4105C26.2982 34.5491 27.1736 35.3814 28.1186 35.2773C29.0636 35.1733 29.7304 34.1676 29.6086 33.029Z" fill="white"/>
<path d="M33.1795 28.8789C31.7243 27.4223 29.6835 26.5669 27.6254 26.7172C23.2888 27.0004 20.4712 31.318 20.8016 35.4332C20.9408 37.907 22.1235 40.138 23.8686 41.5656C22.854 40.3807 22.1235 38.693 21.909 36.7683C21.4742 32.8381 23.3642 29.4048 26.1296 29.1043C28.8951 28.798 31.4866 31.7399 31.9214 35.6702C32.3214 39.2594 30.7735 42.4384 28.3965 43.1897C29.4052 43.1666 30.4546 42.9065 31.4982 42.3632C34.2868 40.8951 35.8753 37.6411 35.6666 34.5315C35.5449 32.4335 34.6752 30.3643 33.1737 28.8789H33.1795Z" fill="white"/>
<path d="M43.0534 46.5714C41.9287 45.9472 39.7604 45.2305 38.9255 46.1206C37.8994 47.213 38.9951 50.6462 41.2851 51.8484C43.552 53.0391 45.2159 52.542 45.9116 51.1837C46.6363 49.7677 44.8217 47.554 43.0534 46.5714Z" fill="white"/>
<path d="M37.5453 10.6439C37.6323 11.2912 37.6323 11.9559 37.5279 12.6437C37.3656 13.5454 36.0785 13.4356 36.0611 12.5281C36.0727 11.1005 35.6031 9.70179 34.7451 8.55739C32.1884 5.18774 26.9184 3.2515 22.7673 3.00875C22.031 2.98563 20.8483 2.97985 20.2628 3.37288C20.2918 3.52315 20.4309 3.72545 20.5468 3.87572C20.628 3.98554 20.8019 4.17049 20.8947 4.28031C21.9499 5.42472 23.1152 6.49399 24.3153 7.4939C25.5386 8.49381 26.8024 9.47638 28.1069 10.3665C28.7446 10.8 29.4287 11.2392 30.0954 11.6149C30.3447 11.7536 30.6114 11.8981 30.8665 12.0311L31.1448 12.1756C31.5043 12.3605 31.6492 12.7998 31.4637 13.1639C31.2839 13.5107 30.8665 13.6552 30.5129 13.5049C30.4781 13.4876 30.4375 13.4702 30.3911 13.4529C29.5447 13.4009 28.6808 13.6032 27.9387 14.0135C26.8778 14.6147 26.1415 15.655 25.7125 16.7879C25.6835 16.8746 25.6139 17.0537 25.5849 17.1404C25.5443 17.2618 25.4632 17.5624 25.4226 17.6837C25.3646 17.8918 25.3182 18.123 25.2719 18.3369C25.069 19.3888 24.9936 20.4523 24.9994 21.5273C24.9994 21.5505 24.9994 21.5736 24.9994 21.6025C24.9994 21.614 24.9994 21.6314 24.9994 21.6429C24.9994 21.666 24.9994 21.6892 24.9994 21.7123C26.4604 22.0938 28.0837 21.8972 29.3534 21.0534C30.8839 20.0246 31.7999 18.3715 32.4261 16.6607C32.7101 15.9614 33.7131 16.2792 33.5682 16.9959C33.5972 17.2734 33.6494 17.5681 33.7073 17.8398C34.0552 19.3483 34.6813 21.0534 36.0148 21.9435C36.0843 21.9839 36.1713 22.0302 36.2351 22.0706C36.3104 22.1053 36.3916 22.1458 36.467 22.1805C36.8844 22.3538 37.3424 22.4348 37.8004 22.4348C38.4613 22.4405 38.7048 22.1284 38.8324 21.5158C38.9773 20.7702 38.8961 19.9263 38.7918 19.1518C38.6816 18.3889 38.5135 17.6259 38.3338 16.8688L38.2758 16.6203V16.6029C38.1251 15.9498 39.0063 15.6203 39.3252 16.2099C40.2412 18.0305 41.3485 21.325 40.0789 23.1919C39.5339 23.9953 38.5773 24.3363 37.6439 24.2843C34.7683 24.2207 33.1218 21.9377 32.5826 19.4061C32.2463 20.0304 31.8521 20.6199 31.3883 21.1516C29.6142 23.215 26.8778 23.9722 24.2573 23.2902C24.1066 23.2497 23.9442 23.2035 23.7935 23.1457C23.5094 23.0301 23.3297 22.7816 23.2833 22.4983C23.2775 22.5041 23.2717 22.5099 23.2659 22.5099C23.2079 22.4983 23.2253 22.0649 23.3065 21.2094C23.3587 20.1691 23.4862 19.1229 23.7181 18.1057C24.0602 16.6549 24.6457 15.2389 25.6661 14.1234C26.3792 13.3257 27.33 12.7478 28.3562 12.453C28.1591 12.3432 27.9619 12.2276 27.7648 12.1178C16.9524 15.6435 8.90533 25.4981 7.95453 36.8612C8.67922 37.0924 9.38073 37.393 10.0532 37.7687C11.0678 38.3351 12.0302 39.0287 12.8303 39.8725L12.952 40.0055C13.2999 40.3927 13.2709 40.988 12.8825 41.3348C12.4303 41.751 11.665 41.6007 11.4041 41.0516C10.2909 39.7165 8.62125 38.7166 6.94575 38.2657C5.20069 37.786 3.32227 37.9016 1.60619 38.4449C1.33371 38.5316 1.07282 38.6356 0.846712 38.7628C0.487262 38.9651 0.122016 39.2367 0.0292545 39.6471C-0.167863 40.7164 1.17717 42.0284 1.94825 42.6989C3.08457 43.6872 4.39482 44.5022 5.72247 45.2131C6.53992 45.6581 7.40956 46.1032 8.24441 46.5193C8.92852 46.8661 9.81555 47.2823 10.6388 47.6695C10.575 47.3574 10.5229 47.0511 10.4765 46.739L8.18064 45.4327C8.88794 47.2187 9.59524 49.0047 10.3025 50.7906C13.2883 57.4721 18.825 62.9745 25.7821 65.7835C44.6937 73.5747 66.0346 59.9285 66.1099 39.3639C66.1911 23.3422 52.8509 10.9445 37.5569 10.6497L37.5453 10.6439ZM32.3855 43.93C30.1708 45.242 27.3474 45.4096 24.9762 44.4155C21.4165 42.9763 19.1322 39.2945 18.9409 35.5434C18.5873 30.4687 22.1934 25.2958 27.5213 25.0184C30.0491 24.8565 32.5826 25.9778 34.2813 27.81C35.9742 29.596 36.9482 32.0004 37.1047 34.4453C37.3656 38.1328 35.6611 42.04 32.3855 43.93ZM44.8213 53.6921C41.9399 54.4088 38.6295 53.143 37.2496 48.6174C35.8698 44.0918 36.7337 41.0054 38.0787 40.8378C38.0787 40.8378 40.0151 40.9591 41.0065 40.9649C43.5516 40.9823 46.862 40.5834 47.7896 40.5025C48.723 40.4158 49.697 40.2482 50.0797 42.1498C50.729 45.3865 47.7027 52.9754 44.8213 53.6921ZM61.8777 31.6363C62.3473 34.7227 61.6574 38.2253 59.2398 40.3811C57.9759 41.5024 56.2077 42.0689 54.5206 41.8088C50.6304 41.2134 48.1665 37.3872 47.6505 33.7517C47.1113 30.1393 48.3578 25.7813 51.8885 24.1051C53.4075 23.3827 55.2395 23.4116 56.7643 24.1051C59.6978 25.4461 61.4023 28.5672 61.8777 31.642V31.6363Z" fill="white"/>
<path d="M49.8938 28.2202C49.8011 28.4167 49.7199 28.6132 49.6445 28.8155C50.404 27.7 51.4708 26.9602 52.7114 26.8272C55.4537 26.5267 58.0104 29.2837 58.4163 32.9885C58.8105 36.5431 57.0828 39.6816 54.5203 40.1902C55.8305 40.4387 57.1988 40.0862 58.2423 39.2134C60.3468 37.4737 61.0541 34.445 60.6657 31.8152C60.2831 29.1681 58.7409 26.4515 56.2074 25.3823C53.5637 24.2725 51.0244 25.7348 49.8938 28.2202Z" fill="white"/>
<path d="M52.3539 32.6321C53.1108 32.5193 53.5977 31.5833 53.4416 30.5415C53.2854 29.4997 52.5452 28.7465 51.7884 28.8593C51.0315 28.9721 50.5446 29.908 50.7008 30.9499C50.8569 31.9917 51.5971 32.7449 52.3539 32.6321Z" fill="white"/>
<path d="M70.805 27.4922C70.2543 27.4806 69.5991 27.5731 69.031 27.6829C68.6483 27.7638 68.2773 27.8794 67.9178 28.0355C67.7265 28.1222 67.5352 28.2147 67.3555 28.3187C68.0512 29.44 68.0222 36.0579 68.0164 36.8382C68.0164 36.8671 68.0164 36.896 68.0222 36.9249C68.5208 36.2313 69.0252 35.5377 69.4658 34.8037C69.8948 34.1159 70.2774 33.3529 70.6369 32.6247C71.1587 31.5381 71.6862 30.411 71.9239 29.2435C72.0109 28.7522 72.0631 28.3014 71.8776 27.9083C71.6863 27.5789 71.2862 27.5153 70.8108 27.4922H70.805Z" fill="white"/>
</g>
<defs>
<clipPath id="clip0_2871_741">
<rect width="72" height="72" fill="white"/>
</clipPath>
</defs>
</svg>
