<svg width="64" height="64" viewBox="0 0 64 64" fill="none" xmlns="http://www.w3.org/2000/svg">
<path fill-rule="evenodd" clip-rule="evenodd" d="M61.364 21.2109C58.868 18.4576 52.8307 17.5842 48.4347 17.3082C46.4853 17.1829 44.5427 16.8416 42.6573 16.2922C41.8053 16.0549 40.9533 15.7549 40.1213 15.4322C36.4253 13.9656 30.328 12.5549 23.748 15.2482C23.5387 15.3402 23.3347 15.4122 23.144 15.5122C22.9413 15.5856 22.736 15.6896 22.5267 15.7816C16.092 18.7762 12.9747 24.2122 11.54 27.9229C11.212 28.7522 10.8533 29.5816 10.448 30.3682C9.57333 32.1242 8.51599 33.7762 7.28399 35.2922C4.49466 38.6922 1.04666 43.7096 1.35333 47.4056C1.40266 48.0562 1.56799 48.6696 1.88133 49.2189C2.49066 50.3109 3.47733 50.8869 4.23466 51.2429C9.75199 53.8829 22.5387 52.5496 36.2747 45.5549C50.7373 40.2269 60.4013 31.7496 62.2 25.9122C62.4533 25.1149 62.7 23.9989 62.3147 22.8109C62.1293 22.2202 61.796 21.6949 61.364 21.2109Z" fill="white"/>
<path fill-rule="evenodd" clip-rule="evenodd" d="M62.2412 22.5572C65.0479 28.8412 53.6826 39.8959 36.9706 47.1999C20.2586 54.5039 3.97855 55.5066 1.71855 49.0066C0.113219 44.3906 10.8039 32.0666 27.5159 24.7639C44.2279 17.4612 60.3439 18.3092 62.2412 22.5572Z" fill="black"/>
<path fill-rule="evenodd" clip-rule="evenodd" d="M18.7639 45.3065C17.5893 42.6185 23.4453 37.4652 31.8453 33.7932C40.2453 30.1212 48.0053 29.3265 49.1799 32.0145C50.3546 34.7025 44.4986 39.8559 36.0986 43.5279C27.6986 47.1999 19.9386 47.9959 18.7639 45.3065Z" fill="white"/>
</svg>
