<svg width="20" height="20" viewBox="0 0 20 20" fill="none" xmlns="http://www.w3.org/2000/svg">
<g clip-path="url(#clip0_2289_2866)">
<path d="M10 0C4.48583 0 0 4.48583 0 10C0 15.5142 4.48583 20 10 20C15.5142 20 20 15.5142 20 10C20 4.48583 15.5142 0 10 0ZM10 18.3333C5.405 18.3333 1.66667 14.595 1.66667 10C1.66667 5.405 5.405 1.66667 10 1.66667C14.595 1.66667 18.3333 5.405 18.3333 10C18.3333 14.595 14.595 18.3333 10 18.3333ZM13.3333 10C13.3333 11.8408 11.8408 13.3333 10 13.3333C8.15917 13.3333 6.66667 11.8408 6.66667 10C6.66667 8.15917 8.15917 6.66667 10 6.66667C11.8408 6.66667 13.3333 8.15917 13.3333 10Z" fill="white" fill-opacity="0.4"/>
</g>
<defs>
<clipPath id="clip0_2289_2866">
<rect width="20" height="20" fill="white"/>
</clipPath>
</defs>
</svg>
