<svg width="20" height="20" viewBox="0 0 20 20" fill="none" xmlns="http://www.w3.org/2000/svg">
<path d="M19.8507 9.3175C19.1191 7.7175 16.2499 2.5 9.99989 2.5C3.74989 2.5 0.880726 7.7175 0.149059 9.3175C0.0508413 9.53192 0 9.76499 0 10.0008C0 10.2367 0.0508413 10.4697 0.149059 10.6842C0.880726 12.2825 3.74989 17.5 9.99989 17.5C16.2499 17.5 19.1191 12.2825 19.8507 10.6825C19.9487 10.4683 19.9995 10.2355 19.9995 10C19.9995 9.76446 19.9487 9.53168 19.8507 9.3175ZM9.99989 15.8333C4.74406 15.8333 2.29156 11.3617 1.66656 10.0092C2.29156 8.63833 4.74406 4.16667 9.99989 4.16667C15.2432 4.16667 17.6966 8.61917 18.3332 10C17.6966 11.3808 15.2432 15.8333 9.99989 15.8333Z" fill="#CCCCCC"/>
<path d="M10.0007 5.8335C9.17656 5.8335 8.37098 6.07787 7.68578 6.53571C7.00057 6.99355 6.46652 7.64429 6.15115 8.40565C5.83579 9.16701 5.75328 10.0048 5.91405 10.813C6.07482 11.6213 6.47166 12.3637 7.05437 12.9464C7.63709 13.5292 8.37952 13.926 9.18778 14.0868C9.99603 14.2475 10.8338 14.165 11.5952 13.8497C12.3565 13.5343 13.0073 13.0002 13.4651 12.315C13.9229 11.6298 14.1673 10.8243 14.1673 10.0002C14.166 8.8955 13.7266 7.83646 12.9455 7.05535C12.1644 6.27423 11.1053 5.83482 10.0007 5.8335ZM10.0007 12.5002C9.5062 12.5002 9.02285 12.3535 8.61173 12.0788C8.2006 11.8041 7.88017 11.4137 7.69095 10.9569C7.50173 10.5001 7.45223 9.99739 7.54869 9.51244C7.64515 9.02748 7.88325 8.58203 8.23289 8.2324C8.58252 7.88276 9.02797 7.64466 9.51293 7.5482C9.99788 7.45174 10.5005 7.50124 10.9574 7.69046C11.4142 7.87968 11.8046 8.20011 12.0793 8.61124C12.354 9.02236 12.5007 9.50571 12.5007 10.0002C12.5007 10.6632 12.2373 11.2991 11.7684 11.7679C11.2996 12.2368 10.6637 12.5002 10.0007 12.5002Z" fill="#CCCCCC"/>
</svg>
