<svg width="512" height="512" viewBox="0 0 512 512" fill="none" xmlns="http://www.w3.org/2000/svg">
<g clip-path="url(#clip0_2135_565)">
<path d="M58 0V446.965L255.874 512.374L453.749 446.965V0H58Z" fill="#E12F27"/>
<path d="M132.2 81.9562V164.487H379.543V81.9562L364.047 79.0831L348.65 76.3089L333.154 115.742H286.765L271.368 62.1408L255.872 59.3667L240.475 62.1408L224.979 115.742H178.589L163.193 76.3089L147.696 79.0831L132.2 81.9562Z" fill="white"/>
<path d="M150.751 183.033H360.992L379.543 387.091H132.2L150.751 183.033Z" fill="white"/>
<path d="M194.034 228.167H287.058C308.48 228.167 321.257 237.952 321.257 256.191C321.257 272.93 307.914 281.766 293.072 282.532C311.487 283.282 323.889 293.053 323.889 311.491C323.889 331.981 306.789 341.017 284.052 341.017H194.034V228.167ZM290.065 271.613V253.19H222.793V271.613H290.065ZM222.793 297.188V316.009H292.506V297.188H222.793Z" fill="#E12F27"/>
</g>
<defs>
<clipPath id="clip0_2135_565">
<rect width="512" height="512" fill="white"/>
</clipPath>
</defs>
</svg>
