<svg width="72" height="72" viewBox="0 0 72 72" fill="none" xmlns="http://www.w3.org/2000/svg">
<g clip-path="url(#clip0_2800_992)">
<path d="M37.656 17.8457H37.6608V0.0232406H33.258C31.8103 0.0152535 30.3626 0.00806504 28.915 7.79061e-05C28.3528 -0.00311695 27.793 0.0919299 27.2666 0.289212L27.2547 0.294004C20.9304 2.67976 18.8027 12.8801 18.8027 18.7355C18.8027 28.9375 21.2887 34.8232 24.845 35.804C20.6007 36.8831 18 44.6322 18 54.5394C18 66.0161 21.5181 72.0001 27.2547 72.0001H37.656C37.656 69.417 37.656 66.834 37.656 64.251V17.8457ZM33.258 64.251C33.258 67.5864 33.2548 69.0999 33.2548 71.2062H29.6635C25.189 70.4306 22.5891 65.0361 22.5891 53.8533C22.5891 41.8862 25.5338 37.6682 28.8608 37.1291H33.2588V64.251H33.258ZM33.258 17.8457V30.5069C33.258 33.4494 33.2548 35.1235 33.2548 36.0979H30.4662C25.9917 36.0979 23.3918 30.4087 23.3918 18.7355C23.3918 6.17972 27.5915 0.84272 29.5966 0.84272H33.2588V17.8457H33.258Z" fill="#FEFEFD"/>
<path d="M52.105 71.5354C53.0621 70.7859 53.2322 69.4001 52.485 68.4401C51.7378 67.4801 50.3561 67.3094 49.399 68.0589C48.4419 68.8084 48.2718 70.1943 49.019 71.1543C49.7662 72.1142 51.1479 72.2849 52.105 71.5354Z" fill="#FEFEFD"/>
<path d="M52.9525 37.1294V7.94438C53.0194 7.2471 53.1062 5.62252 52.5081 3.89809C52.4779 3.81183 52.0757 2.67526 51.3463 1.76473C49.3237 -0.762397 46.1624 0.168104 45.7634 0.293502V1.32544H46.1457C47.7518 1.32544 48.5553 3.82461 48.5553 7.94438V36.2404C44.9225 36.1925 41.289 36.1453 37.6562 36.0974C37.6562 36.6206 37.6562 37.1437 37.6562 37.1286H48.5553V49.1843C48.5553 53.3041 47.7526 55.7921 46.1457 55.7921H45.7634V56.836C46.1624 56.9614 49.3237 57.8911 51.3463 55.3648C52.0749 54.4542 52.4779 53.3177 52.5081 53.2314C53.1062 51.507 53.0202 49.8824 52.9525 49.1851V37.1294Z" fill="#FEFEFD"/>
</g>
<defs>
<clipPath id="clip0_2800_992">
<rect width="35" height="72" fill="white" transform="translate(18)"/>
</clipPath>
</defs>
</svg>
