<svg width="20" height="20" viewBox="0 0 20 20" fill="none" xmlns="http://www.w3.org/2000/svg">
<g clip-path="url(#clip0_2294_5497)">
<path d="M1.66667 11.6667H9.16667V20H1.66667V11.6667ZM10.8333 20H18.3333V11.6667H10.8333V20ZM20 8.33333V10H10.8333V7.46083C10.5617 7.485 10.285 7.5 10 7.5C9.715 7.5 9.43833 7.485 9.16667 7.46083V10H0V8.33333C0 7.67029 0.263392 7.03441 0.732233 6.56557C1.20107 6.09673 1.83696 5.83333 2.5 5.83333H5.11167C4.53409 5.30673 4.0764 4.66218 3.76958 3.94331C3.46277 3.22444 3.31399 2.44803 3.33333 1.66667H5C5 4.0675 6.6425 5.25583 8.46 5.66667C7.91427 4.69317 7.58671 3.61266 7.5 2.5C7.5 1.83696 7.76339 1.20107 8.23223 0.732233C8.70107 0.263392 9.33696 0 10 0C10.663 0 11.2989 0.263392 11.7678 0.732233C12.2366 1.20107 12.5 1.83696 12.5 2.5C12.4133 3.61266 12.0857 4.69317 11.54 5.66667C13.3575 5.25583 15 4.0675 15 1.66667H16.6667C16.686 2.44803 16.5372 3.22444 16.2304 3.94331C15.9236 4.66218 15.4659 5.30673 14.8883 5.83333H17.5C18.163 5.83333 18.7989 6.09673 19.2678 6.56557C19.7366 7.03441 20 7.67029 20 8.33333ZM9.16667 2.5C9.26726 3.38569 9.55106 4.24076 10 5.01083C10.4489 4.24076 10.7327 3.38569 10.8333 2.5C10.8333 2.27899 10.7455 2.06702 10.5893 1.91074C10.433 1.75446 10.221 1.66667 10 1.66667C9.77899 1.66667 9.56702 1.75446 9.41074 1.91074C9.25446 2.06702 9.16667 2.27899 9.16667 2.5Z" fill="#CCCCCC"/>
</g>
<defs>
<clipPath id="clip0_2294_5497">
<rect width="20" height="20" fill="white"/>
</clipPath>
</defs>
</svg>
