<svg width="72" height="72" viewBox="0 0 72 72" fill="none" xmlns="http://www.w3.org/2000/svg">
<path d="M33.8197 47.1056C35.2749 47.3481 38.9488 47.3211 40.8621 47.0517C43.4131 46.7013 44.6527 46.36 46.3864 45.5246C49.2159 44.1682 52.1712 41.6621 53.7431 39.2997C56.914 34.53 57.5158 27.6223 55.2611 21.9004C53.1592 16.5828 49.3326 12.6125 44.3653 10.6184C43.3862 10.2231 42.7394 9.84585 42.3082 9.38774C42.0118 9.07337 42.0029 9.06432 42.0209 8.24693C42.0388 7.57327 42.0029 7.34867 41.8502 7.03429C41.6256 6.57618 41.0328 6.00129 40.7723 6.00129C40.5477 6.00129 40.5477 6.04625 40.7812 6.75586C40.9519 7.27685 40.9609 7.37568 40.8531 7.71701C40.6915 8.21104 40.3591 8.47153 40.0267 8.34579C39.6315 8.1931 39.4249 7.92361 39.4249 7.55534C39.4249 7.27689 39.4878 7.16008 39.8291 6.84569C40.0536 6.63911 40.2333 6.43253 40.2333 6.36963C40.2333 6.20794 39.8111 6.25282 39.3171 6.4684L38.859 6.66603L38.5715 6.33366C38.4188 6.15401 38.1044 5.67797 37.8709 5.26479C37.3948 4.42044 37.3409 4.06109 37.6373 3.58503C37.8798 3.18082 37.7541 3.091 37.287 3.31555C36.775 3.56706 36.4517 4.01619 36.3888 4.5282L36.3439 4.94136L36.1283 4.50127C35.8408 3.93536 35.2659 3.35143 34.718 3.08195C34.2958 2.86639 33.9455 2.79456 33.9455 2.91134C33.9456 2.93837 34.1252 3.17188 34.3497 3.4323C35.0683 4.27667 35.3648 5.21086 35.1132 5.8576C34.9785 6.22588 34.3767 6.82769 33.9635 7.00735C33.5683 7.187 33.4425 7.16008 33.2449 6.88165C33.0742 6.64811 32.4724 6.36059 32.149 6.36059C31.8346 6.36059 31.7987 6.52229 32.0592 6.76481C32.2837 6.96243 32.2927 7.36666 32.0861 7.54631C31.8346 7.76189 31.3675 7.97744 31.134 7.97746C30.7657 7.97746 29.9932 7.52834 29.7147 7.14209C29.3375 6.62111 29.2387 6.18099 29.3554 5.51628C29.4902 4.76176 29.3644 4.67192 28.9063 5.18391C28.062 6.12708 27.7205 7.32178 27.7116 9.33388C27.7026 10.6902 27.6936 10.7441 27.4601 11.0944C27.3343 11.292 27.0109 11.5885 26.7415 11.7501C25.3492 12.6125 24.8282 12.9898 24.0557 13.6635C23.5887 14.0766 23.2024 14.4898 23.1933 14.5796C23.1754 14.7054 23.3101 14.8581 23.6155 15.0737C24.8462 15.927 25.2414 17.508 24.6755 19.2327C24.4509 19.9333 24.3251 20.1669 23.7772 20.9843C22.6724 22.6191 20.759 24.0293 19.1332 24.4156C18.6841 24.5234 18.0014 24.5054 17.2648 24.3617C16.9864 24.3078 16.9864 24.3078 16.8697 24.8288C16.8068 25.1252 16.7528 25.763 16.7528 26.257C16.7438 27.0744 16.7709 27.2092 17.0044 27.6942C17.3637 28.4308 18.8099 29.85 20.4716 31.1076C21.9089 32.1945 22.4478 32.6527 22.4478 32.7964C22.4477 32.8502 22.2322 32.8682 21.8819 32.8413C20.8759 32.7605 19.3578 31.934 17.7769 30.6135C16.4564 29.5177 15.4594 28.9158 13.0521 27.802C11.4532 27.0565 10.51 26.7151 9.80931 26.6163L9.33325 26.5535V26.8588C9.34223 27.5864 10.5549 29.9309 11.7945 31.5747C13.3665 33.6766 15.7019 35.6348 18.0104 36.8026C18.9176 37.2607 19.0704 37.3954 19.798 38.4284C20.6962 39.7039 21.2891 40.3956 22.2232 41.2939C25.2863 44.2222 29.6698 46.4229 33.8197 47.1056ZM54.8569 17.3912C55.0276 17.3552 55.6115 16.2055 55.899 15.3432C56.5457 13.367 56.6984 10.9597 56.3121 8.77694C56.1235 7.744 55.3331 5.73202 55.1085 5.73181C55.0456 5.73181 54.8659 6.18099 54.6953 6.72893C54.0305 8.92963 53.2221 10.3399 51.246 12.7831L51.0753 12.9897L51.9825 13.9868C52.4765 14.5348 53.303 15.5318 53.806 16.1965C54.3629 16.933 54.776 17.409 54.8569 17.3912ZM17.7499 22.0981C18.2709 22.3496 18.3697 22.3676 19.0164 22.3317C19.5913 22.2957 19.8159 22.2418 20.292 21.9813C20.9747 21.622 22.1244 20.5351 22.4927 19.8884C23.1035 18.8374 23.3281 17.6876 23.0497 17.0229C22.861 16.5828 22.2771 16.1157 21.3968 15.7025C19.6453 14.8761 19.0254 14.5168 17.9116 13.6814C15.9983 12.2352 14.6778 10.7351 13.5191 8.66913C13.3844 8.4356 13.2407 8.24693 13.1958 8.24693C13.1508 8.24694 13.07 8.39966 13.0251 8.5793C12.7286 9.70212 12.6388 11.84 12.8365 13.4119C12.9442 14.3281 13.2676 15.7474 13.564 16.6098C13.8515 17.4631 14.651 18.9811 15.1899 19.6997C15.9355 20.6878 17.0942 21.7747 17.7499 22.0981ZM57.8122 31.0447C57.7583 31.7184 57.7673 31.8801 57.8571 31.8531C58.0279 31.79 59.0968 29.9577 59.9501 28.2332C60.7136 26.7061 61.1357 25.5563 61.8903 22.9604C62.3753 21.2896 62.5999 20.2477 62.5999 19.6279C62.5999 18.8464 62.4202 18.9362 61.5489 20.1399C61.1447 20.7058 60.4261 21.622 59.968 22.1879C59.5099 22.7448 58.9529 23.4544 58.7284 23.7688C58.5128 24.0742 58.1985 24.5234 58.0368 24.7479L57.7404 25.1611L57.8122 26.293C57.902 27.7481 57.902 29.9758 57.8122 31.0447ZM52.3238 34.2605C50.8237 35.7606 49.4135 36.1917 47.7967 35.6348C47.0691 35.3833 46.6289 35.0959 46.063 34.5031C45.4971 33.9102 45.1737 33.3353 44.8144 32.2753L44.5719 31.5567L44.1856 31.4939C43.4131 31.3592 42.8293 30.6316 42.6586 29.5896C42.47 28.4129 43.2964 28.1344 43.6377 29.2662C43.6916 29.4548 43.7814 29.6435 43.8353 29.6794C44.1317 29.8591 44.8593 29.2932 48.4973 25.9966C50.8956 23.8318 51.9017 22.9424 52.3059 22.637C52.6562 22.3676 53.0156 22.3856 53.2491 22.673C53.4736 22.9604 53.4826 23.1671 53.294 23.5263C53.1683 23.7868 53.1772 23.8407 53.5186 24.8558C54.2551 27.0205 54.291 27.2361 54.291 29.1763C54.291 30.8471 54.2731 30.9639 54.0485 31.5837C53.6892 32.5718 53.1233 33.4521 52.3238 34.2605ZM36.7121 35.0599C35.0953 36.8295 32.7329 37.6919 30.5501 37.3146C28.9243 37.0361 27.6398 36.3535 26.5529 35.2037C25.5648 34.1527 25.0079 32.958 24.7294 31.2783C24.5498 30.1914 24.6036 27.7481 24.8282 26.5714C25.1156 25.0893 25.1156 25.1701 24.7473 24.8108C24.397 24.4695 24.3432 24.209 24.5587 23.9036C24.7743 23.5892 25.1965 23.6072 26.0498 23.9485C26.1755 23.9935 28.7176 25.3139 31.7088 26.8679C37.134 29.6883 37.9067 30.0746 38.1313 30.0746C38.2841 30.0746 38.3829 29.877 38.5177 29.3111C38.6524 28.7542 38.7512 28.6374 39.0656 28.6374C39.38 28.6374 39.5686 28.853 39.7033 29.383C39.9728 30.4789 39.353 31.6735 38.347 31.97C38.1494 32.0328 37.9517 32.1227 37.9068 32.1765C37.8619 32.2305 37.7721 32.6167 37.7182 33.0388C37.6014 33.9012 37.3948 34.3144 36.7121 35.0599ZM46.9702 31.8082C47.2846 32.0777 47.7697 32.2394 48.0661 32.1675C49.0003 31.9429 49.7189 30.2183 49.4854 28.7632C49.3866 28.1344 49.2698 27.8289 49.1261 27.8289C49.0811 27.8289 48.6859 28.1613 48.2547 28.5655C47.8146 28.9787 47.1948 29.5447 46.8624 29.8411C46.5031 30.1465 46.2516 30.4339 46.2516 30.5417C46.2516 30.8202 46.6738 31.5567 46.9702 31.8082ZM32.4095 32.3832C32.8317 32.5 32.9754 32.5089 33.3167 32.4191C34.3677 32.1317 34.8976 31.1077 34.3767 30.3442C34.0084 29.8232 31.3945 28.368 30.8016 28.368C30.622 28.368 30.4423 28.395 30.4154 28.4309C30.2358 28.6106 30.5591 30.0477 30.9723 30.937C31.3586 31.7634 31.7987 32.2036 32.4095 32.3832ZM44.2036 40.8717C43.5569 42.3448 40.9968 43.6563 39.353 43.3599C38.2122 43.1443 37.0175 42.264 36.775 41.4555C36.5864 40.8088 36.5954 39.6681 36.8019 39.4255L36.9547 39.2279L38.6164 39.3806C40.0447 39.5153 40.4848 39.5243 41.7603 39.4255C42.5778 39.3716 43.3862 39.2907 43.5569 39.2548C43.9251 39.165 44.1407 39.2099 44.2934 39.3895C44.4551 39.5961 44.4102 40.3956 44.2036 40.8717ZM39.9729 42.5604C40.9789 42.5604 41.2753 42.4615 41.4101 42.0483C41.5448 41.6262 41.4639 40.9435 41.2574 40.7908C41.0957 40.674 40.916 40.6651 39.1195 40.7549C38.0236 40.8178 37.9248 40.8717 38.0236 41.4106C38.1674 42.1831 38.7962 42.5514 39.9729 42.5604ZM56.5996 52.8005C57.3541 52.8005 57.5877 52.2256 57.408 50.8513C57.2912 50.0159 57.3811 49.5758 57.7044 49.2434C58.0637 48.8841 58.4231 48.956 59.2854 49.5398C59.8692 49.9351 60.1208 50.0518 60.4531 50.0877C61.3154 50.1686 61.6298 49.9081 61.6298 49.1266C61.6118 47.7433 59.6087 45.6863 56.9769 44.3749C55.9259 43.8449 53.4017 43.0095 52.8808 43.0095C52.8177 43.0097 52.2968 43.4857 51.731 44.0694C51.1561 44.6443 50.2938 45.4348 49.8088 45.8301C49.0992 46.4049 48.9554 46.5576 49.0542 46.6474C49.1171 46.7013 49.7189 46.9439 50.3836 47.1864C51.7669 47.6804 52.6024 48.0756 53.4467 48.6326C54.6145 49.4051 55.0636 50.007 55.36 51.2196C55.6474 52.3693 55.9798 52.8005 56.5996 52.8005ZM31.3944 67.2176C31.4663 69.5171 31.4843 69.535 32.2568 68.3583C33.4245 66.5888 35.0324 65.1156 36.3977 64.5857C36.6582 64.4779 37.296 64.2354 37.826 64.0288C39.9908 63.1934 42.3083 61.1813 44.6168 58.1182C45.4611 56.9864 46.3595 55.1989 46.6469 54.0491C47.2038 51.8574 47.1499 48.7764 46.5571 48.1206C46.3505 47.8871 46.3145 47.8961 44.3653 48.5697C42.6496 49.1626 41.2214 49.5489 39.8291 49.8004C39.1285 49.9261 38.4907 49.971 36.9547 49.962C35.1492 49.962 34.8797 49.9441 33.8197 49.7195C30.8824 49.0907 27.478 47.6086 25.0617 45.9019C24.6395 45.5965 24.0107 45.1295 23.6694 44.851C23.3281 44.5815 22.9598 44.357 22.861 44.357C22.753 44.366 21.9896 44.7163 21.1453 45.1474C18.0643 46.7283 16.16 48.2284 14.624 50.3034C13.6809 51.5789 13.0341 53.2766 13.1239 54.2467C13.1868 54.8216 13.3036 54.9564 13.7976 54.9564C14.3725 54.9564 14.6061 54.7947 15.3426 53.8874C15.7109 53.4293 16.0882 53.0072 16.196 52.9353C16.5014 52.7198 16.9953 52.7646 17.2469 53.0341C17.4535 53.2497 17.4624 53.3305 17.4714 54.3546C17.4804 55.5672 17.5703 55.8726 18.0374 56.2049C18.3518 56.4295 18.9087 56.4564 19.2051 56.2498C19.5375 56.0163 19.6811 55.5312 19.762 54.3725C19.8518 53.088 20.0674 52.567 20.8938 51.6238C22.376 49.9261 24.1815 49.0009 26.0408 48.9919C26.7145 48.983 26.8672 49.0189 27.3882 49.2614C28.9961 50.0339 29.8315 51.4981 30.3974 54.5522C30.6129 55.7288 30.8016 57.8484 30.6848 57.741C30.6489 57.7141 30.4063 56.8607 30.1369 55.8547C29.3823 52.9982 28.9781 51.8394 28.4751 51.0759C28.017 50.3663 27.6757 50.0429 27.3253 49.9711C27.2175 49.9441 27.02 49.9082 26.9122 49.8813C26.7954 49.8633 26.6247 49.8902 26.5349 49.962C26.3732 50.0788 26.3822 50.1237 26.6247 51.1478C26.984 52.6838 27.4331 53.9144 28.7895 57.0763C29.4452 58.6123 30.1369 60.2471 30.3076 60.7142C31.0441 62.6185 31.3046 64.2085 31.3944 67.2176Z" fill="#FDFDED"/>
</svg>
