<svg width="48" height="48" viewBox="0 0 48 48" fill="none" xmlns="http://www.w3.org/2000/svg">
<path d="M29.0008 18.5H29.5008M27.4628 23.487C27.5302 23.9417 27.5073 24.4052 27.3956 24.8511C27.2838 25.297 27.0853 25.7165 26.8114 26.0856C26.5375 26.4548 26.1936 26.7664 25.7993 27.0026C25.405 27.2389 24.968 27.3951 24.5133 27.4625C24.0586 27.5299 23.5951 27.507 23.1492 27.3952C22.7033 27.2835 22.2839 27.085 21.9147 26.8111C21.1691 26.258 20.6739 25.4313 20.5378 24.513C20.4018 23.5947 20.6361 22.6599 21.1892 21.9144C21.7423 21.1688 22.569 20.6736 23.4873 20.5375C24.4056 20.4014 25.3404 20.6358 26.0859 21.1889C26.8315 21.742 27.3268 22.5687 27.4628 23.487Z" stroke="url(#paint0_linear_2743_10067)" stroke-width="2" stroke-linecap="round" stroke-linejoin="round"/>
<path d="M15 21.4C15 19.16 15 18.04 15.436 17.184C15.8195 16.4314 16.4314 15.8195 17.184 15.436C18.04 15 19.16 15 21.4 15H26.6C28.84 15 29.96 15 30.816 15.436C31.5686 15.8195 32.1805 16.4314 32.564 17.184C33 18.04 33 19.16 33 21.4V26.6C33 28.84 33 29.96 32.564 30.816C32.1805 31.5686 31.5686 32.1805 30.816 32.564C29.96 33 28.84 33 26.6 33H21.4C19.16 33 18.04 33 17.184 32.564C16.4314 32.1805 15.8195 31.5686 15.436 30.816C15 29.96 15 28.84 15 26.6V21.4Z" stroke="url(#paint1_linear_2743_10067)" stroke-width="2" stroke-linecap="round" stroke-linejoin="round"/>
<defs>
<linearGradient id="paint0_linear_2743_10067" x1="20.5" y1="18.5" x2="30.4307" y2="26.3193" gradientUnits="userSpaceOnUse">
<stop stop-color="#F9CE34"/>
<stop offset="0.5" stop-color="#EE2A7B"/>
<stop offset="1" stop-color="#6228D7"/>
</linearGradient>
<linearGradient id="paint1_linear_2743_10067" x1="15" y1="15" x2="34.8605" y2="30.637" gradientUnits="userSpaceOnUse">
<stop stop-color="#F9CE34"/>
<stop offset="0.5" stop-color="#EE2A7B"/>
<stop offset="1" stop-color="#6228D7"/>
</linearGradient>
</defs>
</svg>
