<svg width="20" height="20" viewBox="0 0 20 20" fill="none" xmlns="http://www.w3.org/2000/svg">
<g clip-path="url(#clip0_2294_5505)">
<path d="M17.5101 3.76339L13.8584 7.36839C14.2484 8.04589 14.4426 8.92172 14.4426 9.99922C14.4426 11.0767 14.2492 11.9526 13.8584 12.6301L17.5101 16.2351C18.5276 14.8809 19.1667 12.8959 19.1667 9.99839C19.1667 7.10089 18.5276 5.11589 17.5101 3.76172V3.76339Z" fill="#CCCCCC"/>
<path d="M12.6776 13.8057C11.9901 14.1982 11.0984 14.3923 10.0001 14.3923C8.90176 14.3923 8.0101 14.1982 7.3226 13.8057L3.6626 17.4198C5.4401 18.779 7.80343 19.0515 10.0009 19.0515C12.1984 19.0515 14.5618 18.779 16.3393 17.4198L12.6776 13.8057Z" fill="#CCCCCC"/>
<path d="M7.32255 6.19408C8.01006 5.80158 8.90172 5.60741 10.0001 5.60741C11.0984 5.60741 11.9901 5.80158 12.6776 6.19408L16.3376 2.57991C14.5601 1.22074 12.1959 0.948242 9.99922 0.948242C7.80256 0.948242 5.43839 1.22074 3.66089 2.57991L7.32089 6.19408H7.32255Z" fill="#CCCCCC"/>
<path d="M6.14075 12.6312C5.75075 11.9537 5.55742 11.0778 5.55742 10.0003C5.55742 8.92284 5.75075 8.04701 6.14075 7.36951L2.48992 3.76367C1.47242 5.11784 0.833252 7.10284 0.833252 10.0003C0.833252 12.8978 1.47242 14.8828 2.48992 16.237L6.14075 12.6312Z" fill="#CCCCCC"/>
</g>
<defs>
<clipPath id="clip0_2294_5505">
<rect width="20" height="20" fill="white"/>
</clipPath>
</defs>
</svg>
