<svg width="46" height="60" viewBox="0 0 46 60" fill="none" xmlns="http://www.w3.org/2000/svg">
<path d="M0 0V52.3404L23 60L46 52.3404V0H0Z" fill="#141414"/>
<path d="M8.69531 9.60424V19.2759H37.6808V9.60424L35.8649 9.26754L34.0605 8.94244L32.2446 13.5635H26.8083L25.004 7.28212L23.1881 6.95703L21.3837 7.28212L19.5678 13.5635H14.1316L12.3272 8.94244L10.5113 9.26754L8.69531 9.60424Z" fill="#333333"/>
<path d="M10.8692 21.4492H35.5069L37.6808 45.3623H8.69531L10.8692 21.4492Z" fill="#333333"/>
<path d="M15.9414 26.7383H26.8427C29.3531 26.7383 30.8504 27.8851 30.8504 30.0225C30.8504 31.984 29.2868 33.0195 27.5474 33.1092C29.7055 33.1972 31.1588 34.3421 31.1588 36.5029C31.1588 38.9041 29.155 39.9629 26.4904 39.9629H15.9414V26.7383ZM27.1951 31.8296V29.6707H19.3116V31.8296H27.1951ZM19.3116 34.8267V37.0323H27.4811V34.8267H19.3116Z" fill="#141414"/>
</svg>
