<svg width="64" height="64" viewBox="0 0 64 64" fill="none" xmlns="http://www.w3.org/2000/svg">
<g clip-path="url(#clip0_2154_1584)">
<path d="M41.626 32C41.626 37.3079 37.308 41.626 32 41.626C26.6921 41.626 22.374 37.3079 22.374 32C22.374 26.692 26.6921 22.374 32 22.374C37.308 22.374 41.626 26.692 41.626 32ZM32 0C14.356 0 0 14.356 0 32C0 49.6439 14.356 64 32 64C38.464 64 44.698 62.0759 50.026 58.4339L50.118 58.3699L45.8061 53.3581L45.734 53.4061C41.632 56.0439 36.8819 57.44 32 57.44C17.972 57.44 6.56 46.0279 6.56 32C6.56 17.972 17.972 6.56001 32 6.56001C46.028 6.56001 57.44 17.972 57.44 32C57.44 33.818 57.238 35.658 56.8399 37.4679C56.0361 40.7699 53.724 41.782 51.9881 41.648C50.2419 41.5059 48.1999 40.262 48.1861 37.2179V34.736V32C48.1861 23.0739 40.9261 15.814 32 15.814C23.0739 15.814 15.814 23.0739 15.814 32C15.814 40.9261 23.0739 48.186 32 48.186C36.336 48.186 40.4019 46.49 43.468 43.408C45.2499 46.182 48.156 47.9219 51.462 48.186C51.7459 48.2099 52.0361 48.2221 52.3241 48.2221C54.65 48.2221 56.9581 47.444 58.8179 46.0301C60.736 44.5741 62.1679 42.468 62.96 39.9379C63.0861 39.53 63.318 38.5939 63.3199 38.5879L63.3261 38.554C63.792 36.5239 64 34.5 64 32C64 14.356 49.644 0 32 0Z" fill="white"/>
</g>
<defs>
<clipPath id="clip0_2154_1584">
<rect width="64" height="64" fill="white"/>
</clipPath>
</defs>
</svg>
