<svg width="48" height="48" viewBox="0 0 48 48" fill="none" xmlns="http://www.w3.org/2000/svg">
<path d="M12.5005 37.938V36.0796C12.5005 35.3672 12.0669 34.9026 11.3235 34.9026C10.9519 34.9026 10.5492 35.0265 10.2704 35.4292C10.0536 35.0885 9.7439 34.9026 9.2793 34.9026C8.96956 34.9026 8.65983 34.9956 8.41204 35.3363V34.9646H7.7616V37.938H8.41204V36.2964C8.41204 35.7699 8.6908 35.5221 9.12443 35.5221C9.55806 35.5221 9.77487 35.8009 9.77487 36.2964V37.938H10.4253V36.2964C10.4253 35.7699 10.735 35.5221 11.1377 35.5221C11.5713 35.5221 11.7881 35.8009 11.7881 36.2964V37.938H12.5005ZM22.1333 34.9646H21.0802V34.0664H20.4297V34.9646H19.8412V35.5531H20.4297V36.9159C20.4297 37.5973 20.7085 38 21.4519 38C21.7306 38 22.0404 37.9071 22.2572 37.7832L22.0713 37.2257C21.8855 37.3495 21.6687 37.3805 21.5138 37.3805C21.2041 37.3805 21.0802 37.1947 21.0802 36.8849V35.5531H22.1333V34.9646ZM27.6465 34.9026C27.2749 34.9026 27.0271 35.0885 26.8722 35.3363V34.9646H26.2218V37.938H26.8722V36.2655C26.8722 35.7699 27.089 35.4911 27.4917 35.4911C27.6156 35.4911 27.7704 35.5221 27.8943 35.5531L28.0802 34.9336C27.9563 34.9026 27.7704 34.9026 27.6465 34.9026ZM19.3147 35.2124C19.005 34.9956 18.5713 34.9026 18.1067 34.9026C17.3634 34.9026 16.8678 35.2743 16.8678 35.8628C16.8678 36.3584 17.2395 36.6372 17.8899 36.7301L18.1996 36.761C18.5404 36.823 18.7262 36.9159 18.7262 37.0708C18.7262 37.2876 18.4784 37.4425 18.0448 37.4425C17.6112 37.4425 17.2704 37.2876 17.0536 37.1327L16.7439 37.6283C17.0846 37.8761 17.5492 38 18.0138 38C18.8811 38 19.3766 37.5973 19.3766 37.0398C19.3766 36.5133 18.974 36.2345 18.3545 36.1416L18.0448 36.1106C17.766 36.0796 17.5492 36.0177 17.5492 35.8318C17.5492 35.615 17.766 35.4911 18.1067 35.4911C18.4784 35.4911 18.8501 35.646 19.0359 35.7389L19.3147 35.2124ZM36.5979 34.9026C36.2262 34.9026 35.9784 35.0885 35.8235 35.3363V34.9646H35.1731V37.938H35.8235V36.2655C35.8235 35.7699 36.0404 35.4911 36.443 35.4911C36.5669 35.4911 36.7218 35.5221 36.8457 35.5531L37.0315 34.9336C36.9076 34.9026 36.7218 34.9026 36.5979 34.9026ZM28.297 36.4513C28.297 37.3495 28.9165 38 29.8766 38C30.3103 38 30.62 37.9071 30.9297 37.6593L30.62 37.1327C30.3722 37.3186 30.1244 37.4115 29.8457 37.4115C29.3191 37.4115 28.9474 37.0398 28.9474 36.4513C28.9474 35.8938 29.3191 35.5221 29.8457 35.4911C30.1244 35.4911 30.3722 35.5841 30.62 35.7699L30.9297 35.2433C30.62 34.9956 30.3103 34.9026 29.8766 34.9026C28.9165 34.9026 28.297 35.5531 28.297 36.4513ZM34.3058 36.4513V34.9646H33.6554V35.3363C33.4386 35.0575 33.1288 34.9026 32.7262 34.9026C31.8899 34.9026 31.2395 35.5531 31.2395 36.4513C31.2395 37.3495 31.8899 38 32.7262 38C33.1598 38 33.4696 37.8451 33.6554 37.5664V37.938H34.3058V36.4513ZM31.9209 36.4513C31.9209 35.9248 32.2616 35.4911 32.8191 35.4911C33.3457 35.4911 33.7173 35.8938 33.7173 36.4513C33.7173 36.9779 33.3457 37.4115 32.8191 37.4115C32.2616 37.3805 31.9209 36.9779 31.9209 36.4513ZM24.1466 34.9026C23.2793 34.9026 22.6598 35.5221 22.6598 36.4513C22.6598 37.3805 23.2793 38 24.1775 38C24.6112 38 25.0448 37.8761 25.3855 37.5973L25.0758 37.1327C24.828 37.3186 24.5182 37.4425 24.2085 37.4425C23.8058 37.4425 23.4032 37.2566 23.3103 36.7301H25.5094V36.4823C25.5404 35.5221 24.9828 34.9026 24.1466 34.9026ZM24.1466 35.4602C24.5492 35.4602 24.828 35.7079 24.8899 36.1726H23.3412C23.4032 35.7699 23.6819 35.4602 24.1466 35.4602ZM40.2837 36.4513V33.7876H39.6333V35.3363C39.4165 35.0575 39.1067 34.9026 38.7041 34.9026C37.8678 34.9026 37.2173 35.5531 37.2173 36.4513C37.2173 37.3495 37.8678 38 38.7041 38C39.1377 38 39.4474 37.8451 39.6333 37.5664V37.938H40.2837V36.4513ZM37.8988 36.4513C37.8988 35.9248 38.2395 35.4911 38.797 35.4911C39.3235 35.4911 39.6952 35.8938 39.6952 36.4513C39.6952 36.9779 39.3235 37.4115 38.797 37.4115C38.2395 37.3805 37.8988 36.9779 37.8988 36.4513ZM16.1554 36.4513V34.9646H15.505V35.3363C15.2881 35.0575 14.9784 34.9026 14.5758 34.9026C13.7395 34.9026 13.089 35.5531 13.089 36.4513C13.089 37.3495 13.7395 38 14.5758 38C15.0094 38 15.3191 37.8451 15.505 37.5664V37.938H16.1554V36.4513ZM13.7395 36.4513C13.7395 35.9248 14.0802 35.4911 14.6377 35.4911C15.1643 35.4911 15.5359 35.8938 15.5359 36.4513C15.5359 36.9779 15.1643 37.4115 14.6377 37.4115C14.0802 37.3805 13.7395 36.9779 13.7395 36.4513Z" fill="white"/>
<path d="M28.8545 12.385H19.0979V29.916H28.8545V12.385Z" fill="#FF5F00"/>
<path d="M19.7174 21.1504C19.7174 17.5885 21.39 14.4292 23.9608 12.385C22.0714 10.8982 19.6864 10 17.0846 10C10.9209 10 5.9342 14.9867 5.9342 21.1504C5.9342 27.3142 10.9209 32.3009 17.0846 32.3009C19.6864 32.3009 22.0714 31.4027 23.9608 29.9159C21.39 27.9027 19.7174 24.7124 19.7174 21.1504Z" fill="#EB001B"/>
<path d="M42.0183 21.1504C42.0183 27.3142 37.0316 32.3009 30.8679 32.3009C28.2661 32.3009 25.8811 31.4027 23.9918 29.9159C26.5935 27.8717 28.2351 24.7124 28.2351 21.1504C28.2351 17.5885 26.5626 14.4292 23.9918 12.385C25.8811 10.8982 28.2661 10 30.8679 10C37.0316 10 42.0183 15.0177 42.0183 21.1504Z" fill="#F79E1B"/>
</svg>
