<svg width="64" height="64" viewBox="0 0 64 64" fill="none" xmlns="http://www.w3.org/2000/svg">
<g clip-path="url(#clip0_2154_1570)">
<path d="M32 0C14.3253 0 0 14.3253 0 32C0 49.6747 14.3253 64 32 64C49.6747 64 64 49.6747 64 32C64 14.3253 49.6747 0 32 0ZM48.6133 43.3173C48.6137 43.4479 48.5882 43.5773 48.5383 43.698C48.4884 43.8187 48.4151 43.9283 48.3226 44.0205C48.2302 44.1127 48.1203 44.1857 47.9995 44.2353C47.8787 44.2849 47.7493 44.31 47.6187 44.3093H43.44C43.3096 44.3097 43.1805 44.2843 43.06 44.2345C42.9394 44.1848 42.83 44.1118 42.7378 44.0196C42.6456 43.9274 42.5725 43.8179 42.5228 43.6974C42.4731 43.5769 42.4477 43.4477 42.448 43.3173V30.4427C42.448 30.336 42.3253 30.2827 42.2347 30.3547L33.3813 39.208C33.011 39.5739 32.5113 39.7791 31.9907 39.7791C31.47 39.7791 30.9704 39.5739 30.6 39.208L21.7467 30.3547C21.6747 30.2827 21.5333 30.336 21.5333 30.4427V43.3173C21.5337 43.4477 21.5083 43.5769 21.4585 43.6974C21.4088 43.8179 21.3358 43.9274 21.2436 44.0196C21.1514 44.1118 21.0419 44.1848 20.9214 44.2345C20.8009 44.2843 20.6717 44.3097 20.5413 44.3093H16.3627C16.2323 44.3097 16.1031 44.2843 15.9826 44.2345C15.8621 44.1848 15.7526 44.1118 15.6604 44.0196C15.5682 43.9274 15.4952 43.8179 15.4455 43.6974C15.3957 43.5769 15.3703 43.4477 15.3707 43.3173V20.6853C15.3707 20.136 15.8133 19.6933 16.3627 19.6933H19.232C19.7576 19.6973 20.2606 19.9081 20.632 20.28L31.6453 31.2933C31.6901 31.3401 31.744 31.3774 31.8035 31.4028C31.8631 31.4282 31.9272 31.4413 31.992 31.4413C32.0568 31.4413 32.1209 31.4282 32.1805 31.4028C32.24 31.3774 32.2939 31.3401 32.3387 31.2933L43.352 20.28C43.7253 19.9067 44.2187 19.6933 44.752 19.6933H47.6187C48.168 19.6933 48.6107 20.136 48.6107 20.6853L48.6133 43.3173Z" fill="white"/>
</g>
<defs>
<clipPath id="clip0_2154_1570">
<rect width="64" height="64" fill="white"/>
</clipPath>
</defs>
</svg>
