<svg width="20" height="20" viewBox="0 0 20 20" fill="none" xmlns="http://www.w3.org/2000/svg">
<path d="M19.1304 9.13037H0.869551C0.389307 9.13037 0 9.51968 0 9.99992C0 10.4802 0.389307 10.8695 0.869551 10.8695H19.1304C19.6107 10.8695 20 10.4802 20 9.99992C20 9.51968 19.6107 9.13037 19.1304 9.13037Z" fill="white"/>
<path d="M0.869551 4.78256H19.1304C19.6107 4.78256 20 4.39325 20 3.91301C20 3.43276 19.6107 3.04346 19.1304 3.04346H0.869551C0.389307 3.04346 0 3.43276 0 3.91301C0 4.39325 0.389307 4.78256 0.869551 4.78256Z" fill="white"/>
<path d="M19.1304 15.2173H0.869551C0.389307 15.2173 0 15.6066 0 16.0869C0 16.5671 0.389307 16.9564 0.869551 16.9564H19.1304C19.6107 16.9564 20 16.5671 20 16.0869C20 15.6066 19.6107 15.2173 19.1304 15.2173Z" fill="white"/>
</svg>
