<svg width="48" height="48" viewBox="0 0 48 48" fill="none" xmlns="http://www.w3.org/2000/svg">
<path d="M34.0215 23.5073V30.1826H37.73V26.2269H41.933C43.7007 26.2145 45.2027 25.0834 45.7713 23.5073H34.0215Z" fill="#37A72E"/>
<path d="M33.5271 18.0063C33.7434 20.7321 36.327 22.8892 39.4792 22.8892C39.4916 22.8892 45.9258 22.8892 45.9258 22.8892C45.9753 22.642 46 22.3824 46 22.1166C46 19.8544 44.1767 18.0249 41.9207 18.0063H33.5271Z" fill="url(#paint0_linear_2498_3040)"/>
<path d="M28.0385 22.8212C28.0818 22.747 28.1498 22.7038 28.2363 22.7038C28.36 22.7038 28.4527 22.8027 28.4588 22.9201V30.1208H32.1673V18.0063H28.4588C27.9891 18.0249 27.4576 18.3648 27.2598 18.7913L24.3115 25.1205C24.3053 25.1452 24.293 25.1699 24.2806 25.1946C24.2373 25.2565 24.1632 25.2997 24.0766 25.2997C23.9407 25.2997 23.8294 25.1885 23.8294 25.0525V18.0063H20.1209V30.1208H23.8294C24.293 30.096 24.8122 29.7561 25.0099 29.3358L28.0385 22.8398C28.0324 22.8336 28.0385 22.8274 28.0385 22.8212Z" fill="#37A72E"/>
<path d="M14.1935 23.0312L12.024 30.1206H9.35389L7.1906 23.025C7.17206 22.9138 7.07316 22.8272 6.94955 22.8272C6.81357 22.8272 6.70849 22.9385 6.70849 23.0683V30.1144H3V18H6.18312H7.12879C7.80868 18 8.52566 18.5316 8.72344 19.1805L10.5282 25.0832C10.621 25.3799 10.7631 25.3737 10.8558 25.0832L12.6606 19.1805C12.8584 18.5254 13.5754 18 14.2553 18H15.2009H18.3841V30.1144H14.6756V23.0683C14.6756 23.0683 14.6756 23.0683 14.6756 23.0621C14.6756 22.9261 14.5643 22.821 14.4345 22.821C14.3109 22.8272 14.212 22.9138 14.1935 23.0312Z" fill="#37A72E"/>
<defs>
<linearGradient id="paint0_linear_2498_3040" x1="33.5286" y1="20.4478" x2="45.9992" y2="20.4478" gradientUnits="userSpaceOnUse">
<stop stop-color="#00A0E5"/>
<stop offset="1" stop-color="#0077C3"/>
</linearGradient>
</defs>
</svg>
