<svg width="20" height="20" viewBox="0 0 20 20" fill="none" xmlns="http://www.w3.org/2000/svg">
<g clip-path="url(#clip0_2299_4913)">
<path d="M12.5372 -0.000351562C12.5147 -0.0011849 7.48467 -0.0011849 7.46217 -0.000351562C5.18217 0.0196484 3.33301 1.88132 3.33301 4.16548V15.8321C3.33301 18.1297 5.20217 19.9988 7.49967 19.9988H12.4997C14.7972 19.9988 16.6663 18.1297 16.6663 15.8321V4.16632C16.6663 1.88132 14.8172 0.0204818 12.5372 -0.000351562ZM14.9997 15.8321C14.9997 17.2105 13.878 18.3321 12.4997 18.3321H7.49967C6.12134 18.3321 4.99967 17.2105 4.99967 15.8321V4.16632C4.99967 2.95548 5.86467 1.94382 7.00884 1.71465L7.58717 2.87215C7.72801 3.15465 8.01717 3.33298 8.33301 3.33298H11.6663C11.9822 3.33298 12.2705 3.15465 12.4122 2.87215L12.9905 1.71465C14.1347 1.94298 14.9997 2.95548 14.9997 4.16632V15.8321ZM10.833 16.6655H9.16634C8.70634 16.6655 8.33301 16.2921 8.33301 15.8321C8.33301 15.3721 8.70634 14.9988 9.16634 14.9988H10.833C11.293 14.9988 11.6663 15.3721 11.6663 15.8321C11.6663 16.2921 11.293 16.6655 10.833 16.6655Z" fill="#CCCCCC"/>
</g>
<defs>
<clipPath id="clip0_2299_4913">
<rect width="20" height="20" fill="white"/>
</clipPath>
</defs>
</svg>
