<svg width="20" height="20" viewBox="0 0 20 20" fill="none" xmlns="http://www.w3.org/2000/svg">
<g clip-path="url(#clip0_2325_2924)">
<path d="M18.1929 16.6776C19.3028 15.2004 20 13.0352 20 9.87456C20 6.71393 19.3028 4.54868 18.1929 3.07154L18.4592 2.80793C18.8174 2.45523 18.8201 1.87983 18.4683 1.52259C18.1138 1.16535 17.5393 1.16171 17.183 1.51441L16.9139 1.77984C14.9759 0.297246 12.3971 0 10 0C7.60294 0 5.025 0.297246 3.08608 1.77984L2.81702 1.51441C2.45978 1.16171 1.88619 1.16535 1.53168 1.52259C1.17898 1.87983 1.18262 2.45523 1.54077 2.80793L1.80711 3.07154C0.697209 4.54868 0 6.71393 0 9.87456C0 13.0352 0.697209 15.2004 1.80711 16.6776L1.54077 16.9412C1.18262 17.2939 1.17989 17.8684 1.53168 18.2265C1.97437 18.6765 2.57522 18.4874 2.81702 18.2347L3.08608 17.9693C5.025 19.4519 7.60294 19.7491 10 19.7491C12.3971 19.7491 14.975 19.4519 16.9139 17.9693L17.183 18.2347C17.3711 18.432 17.9684 18.7219 18.4683 18.2265C18.8092 17.8884 18.8174 17.2939 18.4592 16.9412L18.1929 16.6776ZM18.182 9.87456C18.182 12.3934 17.7175 14.1569 16.8766 15.3777L14.2096 12.7452C14.6359 12.0062 14.8468 11.0508 14.8468 9.87456C14.8468 8.6983 14.6359 7.74384 14.2096 7.00482L16.8766 4.37142C17.7175 5.59222 18.182 7.3566 18.182 9.87456ZM6.973 9.87456C6.973 7.37478 8.03745 6.90119 10.0009 6.90119C11.9644 6.90119 13.0288 7.37478 13.0288 9.87456C13.0288 12.3743 11.9644 12.8479 10.0009 12.8479C8.03745 12.8479 6.973 12.3743 6.973 9.87456ZM10.0009 1.81893C12.2689 1.81893 14.1869 2.11163 15.594 3.08427L12.9216 5.72312C12.1716 5.29497 11.199 5.08317 10.0009 5.08317C8.80284 5.08317 7.83111 5.29497 7.08027 5.72312L4.40778 3.08427C5.81493 2.11163 7.73293 1.81893 10.0009 1.81893ZM1.81983 9.87456C1.81983 7.35569 2.28434 5.59222 3.12517 4.37142L5.7922 7.00391C5.36588 7.74293 5.15499 8.6983 5.15499 9.87456C5.15499 11.0508 5.36588 12.0053 5.7922 12.7452L3.12517 15.3777C2.28434 14.1569 1.81983 12.3925 1.81983 9.87456ZM10.0009 17.9302C7.73293 17.9302 5.81493 17.6384 4.40778 16.6648L7.08027 14.026C7.8302 14.4541 8.80193 14.6659 10.0009 14.6659C11.1999 14.6659 12.1707 14.4541 12.9216 14.026L15.594 16.6648C14.1869 17.6375 12.2689 17.9302 10.0009 17.9302Z" fill="#CCCCCC"/>
</g>
<defs>
<clipPath id="clip0_2325_2924">
<rect width="20" height="20" fill="white"/>
</clipPath>
</defs>
</svg>
