<svg width="20" height="20" viewBox="0 0 20 20" fill="none" xmlns="http://www.w3.org/2000/svg">
<g clip-path="url(#clip0_2325_2905)">
<path d="M19.0408 6.40067L11.5408 0.5315C11.1015 0.185319 10.5585 -0.00292969 9.99918 -0.00292969C9.43986 -0.00292969 8.89682 0.185319 8.45751 0.5315L0.957512 6.39983C0.658267 6.63327 0.416404 6.93208 0.250441 7.2734C0.0844783 7.61471 -0.00118413 7.98948 1.23635e-05 8.369V19.9998H20V8.369C20.0011 7.98944 19.9153 7.61466 19.749 7.27346C19.5827 6.93225 19.3405 6.63368 19.0408 6.40067ZM15 18.3332H5.00001V10.8332C5.00001 10.6122 5.08781 10.4002 5.24409 10.2439C5.40037 10.0876 5.61233 9.99983 5.83335 9.99983H14.1667C14.3877 9.99983 14.5997 10.0876 14.7559 10.2439C14.9122 10.4002 15 10.6122 15 10.8332V18.3332ZM18.3333 18.3332H16.6667V10.8332C16.6667 10.1701 16.4033 9.53424 15.9344 9.0654C15.4656 8.59656 14.8297 8.33317 14.1667 8.33317H5.83335C5.1703 8.33317 4.53442 8.59656 4.06558 9.0654C3.59674 9.53424 3.33335 10.1701 3.33335 10.8332V18.3332H1.66668V8.369C1.66627 8.24237 1.69491 8.11732 1.75038 8.00349C1.80586 7.88965 1.88669 7.79005 1.98668 7.71233L9.48668 1.84317C9.63325 1.72855 9.81395 1.66629 10 1.66629C10.1861 1.66629 10.3668 1.72855 10.5133 1.84317L18.0133 7.71317C18.1134 7.79067 18.1942 7.89011 18.2497 8.00382C18.3052 8.11753 18.3338 8.24248 18.3333 8.369V18.3332ZM8.33335 14.9998H11.6667V16.6665H8.33335V14.9998Z" fill="#CCCCCC"/>
</g>
<defs>
<clipPath id="clip0_2325_2905">
<rect width="20" height="20" fill="white"/>
</clipPath>
</defs>
</svg>
