<svg width="20" height="20" viewBox="0 0 20 20" fill="none" xmlns="http://www.w3.org/2000/svg">
<g clip-path="url(#clip0_2325_2910)">
<path d="M19.35 4.78583L16.8409 1.39583C16.5323 0.964446 16.1254 0.612808 15.6538 0.370064C15.1822 0.12732 14.6596 0.000461434 14.1292 1.46866e-06H5.87085C5.34305 -0.000493946 4.82267 0.124354 4.35254 0.364271C3.88241 0.604187 3.47598 0.952314 3.16669 1.38L0.612519 4.79417C0.196656 5.38058 -0.0181099 6.0859 0.000367402 6.80456C0.0188447 7.52322 0.269571 8.21657 0.715019 8.78083L8.04169 19.0542C8.27517 19.3498 8.57277 19.5886 8.91201 19.7524C9.25126 19.9163 9.62328 20.0009 10 20C10.3832 19.9992 10.7611 19.9106 11.1047 19.7408C11.4482 19.5711 11.7483 19.3247 11.9817 19.0208L19.25 8.86167C19.7154 8.28916 19.9777 7.57841 19.9958 6.84082C20.0139 6.10323 19.7868 5.38048 19.35 4.78583ZM15.4934 2.37583L18.0084 5.77417C18.0217 5.7925 18.025 5.81417 18.0384 5.83333H13.9617L12.7717 1.66667H14.1292C14.3966 1.6675 14.66 1.7323 14.8973 1.85567C15.1347 1.97904 15.339 2.15739 15.4934 2.37583ZM10 15.9317L7.75002 7.5H12.25L10 15.9317ZM7.77169 5.83333L8.96169 1.66667H11.0384L12.2284 5.83333H7.77169ZM4.51419 2.36417C4.66881 2.14866 4.87247 1.97302 5.10837 1.85174C5.34426 1.73046 5.60561 1.66702 5.87085 1.66667H7.22835L6.03835 5.83333H1.93169C1.94335 5.815 1.94669 5.7925 1.96002 5.775L4.51419 2.36417ZM2.04002 7.77083C1.97985 7.68585 1.92821 7.59513 1.88585 7.5H6.02669L8.52169 16.8583L2.04002 7.77083ZM11.4759 16.8667L13.9759 7.5H18.1309C18.0772 7.62439 18.0092 7.74212 17.9284 7.85083L11.4759 16.8667Z" fill="#CCCCCC"/>
</g>
<defs>
<clipPath id="clip0_2325_2910">
<rect width="20" height="20" fill="white"/>
</clipPath>
</defs>
</svg>
