<svg width="56" height="24" viewBox="0 0 56 24" fill="none" xmlns="http://www.w3.org/2000/svg">
<g clip-path="url(#clip0_2608_3027)">
<path d="M43.8642 23.9012C50.3984 23.9012 55.6952 18.6045 55.6952 12.0702C55.6952 5.53598 50.3984 0.239258 43.8642 0.239258C37.3299 0.239258 32.0332 5.53598 32.0332 12.0702C32.0332 18.6045 37.3299 23.9012 43.8642 23.9012Z" fill="#009393"/>
<path fill-rule="evenodd" clip-rule="evenodd" d="M49.6175 6.66211V8.81917H45.2981V10.3147C48.3317 10.4746 50.6077 11.1309 50.6246 11.9177L50.6245 13.5579C50.6076 14.3447 48.3317 15.0011 45.2981 15.1609V18.8312H42.43V15.1609C39.3964 15.0011 37.1203 14.3447 37.1035 13.5579L37.1035 11.9177C37.1205 11.1309 39.3964 10.4746 42.43 10.3147V8.81917H38.1106V6.66211H49.6175ZM43.8641 14.0341C47.1014 14.0341 49.8074 13.4791 50.4696 12.7378C49.908 12.1093 47.8768 11.6146 45.2981 11.4787V13.0446C44.8359 13.0689 44.3561 13.0817 43.8641 13.0817C43.372 13.0817 42.8922 13.0689 42.43 13.0446V11.4787C39.8513 11.6146 37.8201 12.1093 37.2585 12.7378C37.9207 13.4791 40.6266 14.0341 43.8641 14.0341Z" fill="white"/>
</g>
<g clip-path="url(#clip1_2608_3027)">
<path d="M27.999 24C34.6264 24 39.999 18.6274 39.999 12C39.999 5.37258 34.6264 0 27.999 0C21.3716 0 15.999 5.37258 15.999 12C15.999 18.6274 21.3716 24 27.999 24Z" fill="#627EEA"/>
<path d="M28.3721 3V9.6525L33.9948 12.165L28.3721 3Z" fill="white" fill-opacity="0.602"/>
<path d="M28.3725 3L22.749 12.165L28.3725 9.6525V3Z" fill="white"/>
<path d="M28.3721 16.4759V20.9962L33.9986 13.2119L28.3721 16.4759Z" fill="white" fill-opacity="0.602"/>
<path d="M28.3725 20.9962V16.4752L22.749 13.2119L28.3725 20.9962Z" fill="white"/>
<path d="M28.3721 15.43L33.9948 12.1653L28.3721 9.6543V15.43Z" fill="white" fill-opacity="0.2"/>
<path d="M22.749 12.1653L28.3725 15.43V9.6543L22.749 12.1653Z" fill="white" fill-opacity="0.602"/>
</g>
<g clip-path="url(#clip2_2608_3027)">
<path d="M23.6402 14.9029C22.0375 21.3315 15.5264 25.2438 9.09699 23.6407C2.67028 22.038 -1.24205 15.5265 0.361335 9.09837C1.96332 2.66903 8.47448 -1.24361 14.9019 0.359081C21.3308 1.96177 25.2429 8.47404 23.6401 14.903L23.6402 14.9029H23.6402Z" fill="#F7931A"/>
<path d="M17.292 10.2903C17.5309 8.6934 16.3151 7.83498 14.6525 7.26233L15.1919 5.09914L13.8751 4.77103L13.3501 6.87726C13.0039 6.79092 12.6484 6.70957 12.295 6.62892L12.8239 4.50878L11.5079 4.18066L10.9683 6.34315C10.6818 6.27793 10.4004 6.21347 10.1274 6.14554L10.129 6.13874L8.31307 5.68528L7.96278 7.09171C7.96278 7.09171 8.93974 7.31565 8.91915 7.32943C9.45238 7.46252 9.54881 7.81551 9.53279 8.09529L8.91844 10.5597C8.95516 10.569 9.00279 10.5825 9.05534 10.6036C9.01141 10.5927 8.96466 10.5808 8.91616 10.5692L8.05504 14.0214C7.98988 14.1834 7.82447 14.4266 7.45166 14.3342C7.46486 14.3534 6.49459 14.0954 6.49459 14.0954L5.84082 15.6027L7.55442 16.0299C7.87321 16.1098 8.18561 16.1935 8.49325 16.2721L7.94835 18.4601L9.26363 18.7883L9.80325 16.6235C10.1626 16.721 10.5113 16.811 10.8526 16.8958L10.3148 19.0504L11.6317 19.3785L12.1765 17.1946C14.422 17.6196 16.1104 17.4482 16.821 15.4172C17.3937 13.7821 16.7925 12.8389 15.6112 12.2238C16.4716 12.0254 17.1197 11.4595 17.2925 10.2905L17.2921 10.2902L17.292 10.2903ZM14.2834 14.5091C13.8765 16.1443 11.1233 15.2604 10.2307 15.0387L10.9538 12.14C11.8464 12.3628 14.7087 12.8038 14.2835 14.5091H14.2834ZM14.6907 10.2666C14.3194 11.754 12.028 10.9984 11.2846 10.8131L11.9402 8.1841C12.6836 8.36939 15.0774 8.71522 14.6908 10.2666H14.6907Z" fill="white"/>
</g>
<defs>
<clipPath id="clip0_2608_3027">
<rect width="24" height="24" fill="white" transform="translate(31.999)"/>
</clipPath>
<clipPath id="clip1_2608_3027">
<rect width="24" height="24" fill="white" transform="translate(15.999)"/>
</clipPath>
<clipPath id="clip2_2608_3027">
<rect width="23.9973" height="24" fill="white" transform="translate(0.00195312)"/>
</clipPath>
</defs>
</svg>
