<svg width="116" height="32" viewBox="0 0 116 32" fill="none" xmlns="http://www.w3.org/2000/svg">
<rect x="0.5" width="32" height="32" rx="16" fill="#5865F7"/>
<path d="M23.9309 9.6425C22.6559 9.0575 21.2892 8.62666 19.8601 8.38C19.8342 8.375 19.8084 8.3875 19.7942 8.41083C19.6184 8.72333 19.4234 9.13166 19.2876 9.45166C17.7501 9.22166 16.2209 9.22166 14.7151 9.45166C14.5792 9.12416 14.3767 8.72333 14.2009 8.41083C14.1867 8.3875 14.1609 8.37583 14.1351 8.38C12.7067 8.62583 11.3401 9.05666 10.0642 9.6425C10.0534 9.64666 10.0434 9.655 10.0376 9.665C7.44507 13.5383 6.73424 17.3167 7.08257 21.0483C7.08424 21.0667 7.09424 21.0842 7.10841 21.095C8.81924 22.3517 10.4759 23.1142 12.1026 23.6192C12.1284 23.6275 12.1559 23.6175 12.1726 23.5958C12.5576 23.0708 12.9001 22.5167 13.1942 21.9342C13.2117 21.9 13.1951 21.8592 13.1592 21.8458C12.6151 21.6392 12.0976 21.3875 11.5992 21.1025C11.5601 21.0792 11.5567 21.0233 11.5926 20.9958C11.6976 20.9175 11.8026 20.8358 11.9026 20.7533C11.9209 20.7383 11.9459 20.735 11.9676 20.745C15.2409 22.2392 18.7842 22.2392 22.0184 20.745C22.0401 20.735 22.0651 20.7375 22.0842 20.7533C22.1842 20.8358 22.2892 20.9183 22.3951 20.9967C22.4317 21.0233 22.4292 21.08 22.3892 21.1033C21.8909 21.3942 21.3734 21.6408 20.8284 21.8458C20.7926 21.8592 20.7776 21.9008 20.7942 21.935C21.0942 22.5167 21.4376 23.0708 21.8151 23.5958C21.8309 23.6183 21.8592 23.6275 21.8851 23.62C23.5192 23.1142 25.1767 22.3517 26.8867 21.0958C26.9017 21.085 26.9109 21.0683 26.9126 21.05C27.3292 16.7358 26.2142 12.9883 23.9559 9.66666C23.9517 9.655 23.9417 9.64666 23.9309 9.6425ZM13.6834 18.7767C12.6976 18.7767 11.8859 17.8717 11.8859 16.7608C11.8859 15.65 12.6817 14.745 13.6834 14.745C14.6926 14.745 15.4967 15.6575 15.4809 16.7608C15.4809 17.8725 14.6842 18.7767 13.6834 18.7767ZM20.3292 18.7767C19.3442 18.7767 18.5317 17.8717 18.5317 16.7608C18.5317 15.65 19.3276 14.745 20.3292 14.745C21.3384 14.745 22.1426 15.6575 22.1267 16.7608C22.1267 17.8725 21.3384 18.7767 20.3292 18.7767Z" fill="white"/>
<path d="M44.968 26V6.656H51.104C53.496 6.656 54.978 7.826 54.978 10.92V21.554C54.978 24.596 53.652 26 51.13 26H44.968ZM49.206 10.244V22.282H49.804C50.428 22.282 50.61 21.918 50.61 21.112V11.362C50.61 10.556 50.454 10.244 49.856 10.244H49.206ZM60.176 6.656V26H55.886V6.656H60.176ZM65.5884 6.396H66.5504C69.6964 6.396 70.8404 7.93 70.8404 10.348V12.662H66.7064V10.582C66.7064 10.062 66.5764 9.75 66.0564 9.75C65.5624 9.75 65.4064 10.062 65.4064 10.608V11.102C65.4064 11.908 65.5884 12.376 66.3424 13.078L68.5524 15.054C70.5024 16.848 71.1004 18.148 71.1004 20.254V21.216C71.1004 24.232 69.6184 26.26 66.3164 26.26H65.3804C62.3904 26.26 60.8824 24.83 60.8824 21.996V18.902H65.0944V21.58C65.0944 22.23 65.2764 22.594 65.8224 22.594C66.3424 22.594 66.5244 22.204 66.5244 21.45V20.93C66.5244 19.838 66.4464 19.344 65.5104 18.486L63.2744 16.484C61.6364 15.028 61.0644 13.468 61.0644 11.492V10.582C61.0644 8.008 62.5724 6.396 65.5884 6.396ZM77.6039 21.424V17.55H81.8419V21.554C81.8419 23.972 80.6719 26.312 77.2659 26.312H76.5119C72.8979 26.312 71.7539 24.18 71.7539 21.19V11.362C71.7539 8.58 73.0019 6.396 76.4859 6.396H77.2659C80.6979 6.396 81.8419 8.372 81.8419 10.92V14.092H77.6039V11.102C77.6039 10.478 77.4479 10.14 76.9019 10.14C76.3559 10.14 76.1999 10.4 76.1999 11.102V21.424C76.1999 22.074 76.3819 22.438 76.9279 22.438C77.4479 22.438 77.6039 22.022 77.6039 21.424ZM93.0731 11.856V21.034C93.0731 24.388 91.2271 26.286 88.2891 26.286H87.4571C84.3111 26.286 82.6211 24.388 82.6211 21.034V11.856C82.6211 8.528 84.0251 6.396 87.4311 6.396H88.2631C91.6951 6.396 93.0731 8.554 93.0731 11.856ZM88.6271 21.32V11.414C88.6271 10.686 88.3671 10.322 87.8471 10.322C87.2491 10.322 87.0671 10.686 87.0671 11.414V21.32C87.0671 21.918 87.2751 22.282 87.8731 22.282C88.4191 22.282 88.6271 21.918 88.6271 21.32ZM98.2111 9.984V14.43H98.7571C99.3031 14.43 99.5371 14.196 99.5371 13.494V10.894C99.5371 10.192 99.4331 9.984 98.8351 9.984H98.2111ZM98.2111 18.07V26H93.9211V6.656H100.655C102.553 6.656 103.853 7.774 103.853 10.062V12.61C103.853 14.404 102.917 15.21 102.163 15.548C102.891 15.834 103.853 16.64 103.853 18.07V24.466C103.853 25.194 103.983 25.584 104.113 25.87V26H99.8751C99.6931 25.766 99.5371 25.324 99.5371 24.622V19.006C99.5371 18.356 99.4071 18.07 98.8091 18.07H98.2111ZM104.763 26V6.656H110.899C113.291 6.656 114.773 7.826 114.773 10.92V21.554C114.773 24.596 113.447 26 110.925 26H104.763ZM109.001 10.244V22.282H109.599C110.223 22.282 110.405 21.918 110.405 21.112V11.362C110.405 10.556 110.249 10.244 109.651 10.244H109.001Z" fill="white"/>
</svg>
