<svg width="120" height="32" viewBox="0 0 120 32" fill="none" xmlns="http://www.w3.org/2000/svg">
<mask id="mask0_2311_3265" style="mask-type:luminance" maskUnits="userSpaceOnUse" x="2" y="0" width="32" height="32">
<path d="M34 0H2V32H34V0Z" fill="white"/>
</mask>
<g mask="url(#mask0_2311_3265)">
<path d="M34 16C34 7.16344 26.8366 0 18 0C9.16344 0 2 7.16344 2 16C2 24.8366 9.16344 32 18 32C26.8366 32 34 24.8366 34 16Z" fill="#1E7F94"/>
<path d="M13.2599 16.9798C13.2599 16.7326 13.2599 16.4853 13.2599 16.2381C13.2599 16.1038 13.2716 15.9151 13.2006 15.7996C13.1233 15.674 13.1665 15.4062 13.1775 15.2754C13.2025 14.9778 13.2599 14.6887 13.2599 14.3886C13.2599 14.368 13.2667 14.052 13.1857 14.1958C13.0541 14.4298 13.0405 14.77 12.9615 15.0266C12.8134 15.5082 12.7259 15.9375 12.7259 16.4391C12.7259 16.6391 12.7259 16.8391 12.7259 17.0391C12.7259 17.09 12.7555 17.1168 12.7555 17.0507C12.7555 16.8441 12.7635 16.6365 12.7407 16.4309C12.6764 15.8522 12.6799 15.215 12.8314 14.6507C12.9091 14.3611 12.9847 14.0461 13.105 13.7754C13.1646 13.6414 13.1923 13.4446 13.2303 13.3008C13.2908 13.0711 13.3343 12.6659 13.5138 12.4865C13.6251 12.3752 13.9644 12.292 14.1203 12.292" stroke="#F0CAAB" stroke-linecap="round"/>
<path d="M14.1808 11.4019C14.1794 11.4579 14.0917 11.7973 14.0917 11.5865C14.0917 11.4495 14.0773 11.4231 14.1956 11.3573C14.2879 11.3061 14.4078 11.2644 14.5203 11.2849C14.7588 11.3282 14.4043 12.0383 14.4775 12.1305C14.5182 12.1817 14.5538 12.0238 14.5896 11.9689C14.667 11.8499 14.6838 11.833 14.7906 11.7414C14.9607 11.5957 15.1261 11.4581 15.2818 11.2964C15.4031 11.1705 15.5337 11.0666 15.4434 11.336C15.3511 11.6114 15.2003 11.8683 15.0709 12.1271C14.9607 12.3474 14.9503 12.2866 15.0478 12.1733C15.197 11.9997 15.3989 11.8393 15.5818 11.7052C15.5957 11.695 15.7851 11.5428 15.8588 11.5865C15.9633 11.6485 15.8506 11.9648 15.8341 12.0266C15.7631 12.2917 15.696 12.5665 15.6017 12.8244C15.5821 12.8777 15.6453 12.6502 15.6544 12.6282C15.7129 12.4854 15.7825 12.3454 15.8555 12.2096C15.8607 12.1998 16.0236 11.9779 16.0236 12.015C16.0236 12.0409 14.7621 12.315 14.9241 12.5309C15.1224 12.7953 14.754 12.8406 14.5203 12.8821C14.2158 12.9361 13.9245 12.914 13.7275 12.6513C13.6744 12.5805 13.651 12.4076 13.6467 12.559C13.634 13.0045 13.5189 13.4367 13.4539 13.8777C13.4241 14.0797 13.3964 14.2825 13.3649 14.4842C13.3421 14.63 13.2925 14.6503 13.3632 14.4974C13.547 14.1 13.8822 13.6834 14.2105 13.3897C14.27 13.3365 14.2621 13.4821 14.2632 13.5018C14.2798 13.8218 14.2698 14.1441 14.2698 14.4645C14.2698 14.5631 14.2349 14.7557 14.2896 14.5666C14.3414 14.3874 14.4157 14.203 14.4841 14.0326C14.6347 13.6571 14.7662 13.2045 14.9917 12.8639C15.0013 12.8496 15.0354 12.8329 15.0412 12.8491C15.06 12.9019 15.0474 12.9612 15.0461 13.0173C15.0413 13.2217 15.0234 13.3657 14.9917 13.5711C14.9533 13.8204 14.8962 14.0665 14.85 14.3145C14.8374 14.3818 14.7404 14.6829 14.794 14.4381C14.8438 14.2101 14.9057 13.9817 14.9852 13.7623C15.0349 13.6249 15.0369 13.6948 14.9917 13.7524C14.7771 14.0259 14.4279 14.1786 14.1544 14.3837C14.0934 14.4294 13.9356 14.7049 13.8396 14.6622C13.7589 14.6264 13.7785 14.4737 13.7505 14.4068C13.741 14.3839 13.7357 14.4545 13.7341 14.4793C13.7248 14.6233 13.2206 18.2572 13.2008 18.4C13.1149 19.0193 13.8464 19.1473 12.8008 18.4C14.5505 19.7534 13.7191 18.9677 13.7505 19.0202C13.7852 19.0778 13.728 16.472 13.7423 16.426C13.951 15.7569 14.301 15.1142 14.4709 14.4348C14.5033 14.305 14.5242 14.4473 14.5302 14.5073C14.5685 14.89 14.5397 15.3018 14.4775 15.6793C14.4205 16.0249 14.2902 16.3945 14.2698 16.7425C14.2624 16.8679 14.2401 16.6286 14.2401 16.5925C14.2401 16.0999 14.5334 15.5451 14.761 15.1271C14.8888 14.8924 15.0327 14.6701 15.2011 14.4628C15.2917 14.3513 15.2785 14.6081 15.2785 14.6425C15.2785 15.2709 15.2114 15.9362 15.2934 16.5595C15.297 16.5869 15.3082 16.8093 15.3082 16.6781C15.3082 16.3904 15.3291 16.1034 15.3445 15.8161C15.3989 14.7987 15.5191 13.7628 15.7665 12.7733C15.7707 12.7562 15.8515 12.4526 15.8851 12.5392C15.9709 12.7597 15.9016 13.1221 15.9016 13.3535C15.9016 13.7403 15.8997 14.1271 15.9016 14.5139C15.9029 14.7639 15.8881 15.0581 15.9477 15.3051C16.0428 15.6989 16.1614 16.9095 16.1389 16.5051C16.1332 16.4003 15.9994 16.4091 15.9676 16.327C15.9536 16.291 16.0153 16.1841 16.0269 16.1523C16.2349 15.5821 16.3683 14.9817 16.4917 14.3886C16.6827 13.4707 16.8214 12.5205 16.8214 11.5816C16.8214 11.4773 16.8755 11.1993 16.7027 11.1942C16.461 11.1871 16.4234 11.3193 16.3433 11.5634C16.2201 11.9394 16.1193 12.3358 16.0565 12.7271C16.0503 12.7659 16.0499 12.8161 16.0961 12.7782C16.2377 12.6624 16.2664 12.3998 16.345 12.2425C16.3794 12.1737 16.5521 11.8676 16.5544 12.0909C16.5559 12.2488 16.4869 12.5842 16.5906 12.7238C16.6689 12.8292 16.8 12.609 16.8412 12.5623C16.9829 12.4016 17.7472 11.7892 17.962 11.7414C18.0171 11.7292 17.5195 12.2589 17.6521 12.2623C17.9737 12.2705 18.2865 12.2163 18.6131 12.2376C18.869 12.2543 19.1182 12.3513 19.3729 12.3513C19.4809 12.3513 19.5906 12.3453 19.6977 12.3596C20.371 12.4493 21.0464 12.5912 21.6971 12.7832C22.1217 12.9085 22.5407 13.0513 22.963 13.1755C23.1055 13.2173 23.2759 13.3897 23.3916 13.4853C23.4857 13.5633 23.6397 13.6516 23.6141 13.7919C23.5731 14.0173 23.5238 14.3483 23.5927 14.5633C23.602 14.5924 23.5814 14.4921 23.5531 14.4809C23.1665 14.3275 22.6697 14.4498 22.2609 14.4133C22.0291 14.3927 21.9088 14.1569 21.7169 14.026C21.5078 13.8835 21.3269 13.6709 21.1334 13.5101C20.5997 13.0666 19.9933 12.5912 19.284 12.4997C18.8433 12.4428 18.4022 12.4164 17.962 12.3513C17.6657 12.3075 17.2951 12.1985 16.9912 12.2343C16.9385 12.2405 16.8634 12.2946 16.8395 12.3397C16.7867 12.4396 16.8011 12.6294 16.7884 12.7337C16.749 13.0574 16.6876 13.3777 16.6368 13.6997C16.5661 14.1469 16.4922 14.5986 16.2873 15.0084C16.2593 15.0645 16.236 15.0573 16.2214 15.1237C16.177 15.326 16.1686 15.5241 16.1686 15.7304C16.1686 15.9064 16.2603 16.0164 16.3351 16.1705C16.4057 16.3157 16.4759 16.4589 16.5395 16.6073C16.5997 16.7478 16.8354 16.7349 16.9631 16.749C17.0456 16.7581 17.1272 16.7721 17.2104 16.7721C17.3492 16.7721 17.2146 16.4085 17.2104 16.3864C17.1248 15.9437 17.0069 15.5038 16.9401 15.0578C16.9365 15.0339 16.9373 14.9994 16.9417 14.9754C16.9485 14.9377 16.9813 14.8205 16.9813 14.8205C16.9695 14.844 16.9401 14.9572 16.9401 14.8913C16.9401 14.8035 16.8673 15.0541 16.8098 15.1205C16.7669 15.17 16.7621 15.1949 16.7621 15.2589C16.7621 15.534 16.6922 15.8046 16.6137 16.0683C16.5129 16.4069 16.4653 16.0089 16.4653 15.882" stroke="#F0CAAB" stroke-linecap="round"/>
<path d="M17.3242 12.9443C17.3242 13.2237 17.3579 13.528 17.3176 13.8047C17.3049 13.8919 17.2648 13.9569 17.2648 14.0421C17.2648 14.1727 17.2371 14.2979 17.2352 14.4279C17.234 14.5098 17.2151 14.8117 17.2945 14.8663C17.6593 15.1171 17.9514 15.4811 18.3016 15.7613C18.4506 15.8805 18.5401 16.0367 18.6428 16.2047C18.6852 16.274 18.7364 16.3249 18.6264 16.3563C18.4724 16.4003 18.3132 16.4402 18.1599 16.3712C18.0031 16.3007 18.1001 16.2449 18.2308 16.2855C18.3886 16.3345 18.5664 16.4387 18.689 16.5525C18.7855 16.6421 18.8764 16.8032 18.9412 16.9184C19.0112 17.0429 19.1396 17.0222 19.2593 17.0684C19.4375 17.1373 19.5606 17.1507 19.7505 17.1575C19.9991 17.1663 20.0865 17.2211 20.2846 17.0157C20.6079 16.6805 20.2276 16.0957 20.0472 15.786C19.9164 15.5613 19.6952 15.3913 19.4967 15.2289C19.3177 15.0825 19.1971 14.8951 19.0451 14.7262C18.814 14.4695 18.4996 14.1631 18.5423 13.7784C18.5535 13.6781 18.6424 13.6232 18.7022 13.5526C18.8106 13.4244 18.8394 13.3503 19.0088 13.2938C19.1402 13.25 19.2929 13.4277 19.3945 13.5015C19.4577 13.5474 19.5955 13.6225 19.6319 13.6993C19.6996 13.8424 19.7704 13.9488 19.9055 14.0421C20.1635 14.2203 20.4236 14.4574 20.7164 14.5745C20.8528 14.6291 20.8892 14.7104 20.9852 14.8383C21.0204 14.8853 21.1019 15.0643 21.1944 14.9718C21.2657 14.9005 21.3472 14.7443 21.3889 14.6503C21.4276 14.5635 21.38 14.5152 21.3461 14.4279C21.307 14.3273 21.3 14.2241 21.3 14.1179C21.3 14.0636 21.2232 14.0555 21.1961 13.9959C21.1086 13.8034 21.3174 13.8946 21.4203 13.9251C21.6099 13.9813 21.7909 14.0359 21.9824 14.0784C22.3062 14.1503 22.6561 14.0583 22.9763 14.1295C23.1006 14.1571 23.2285 14.2015 23.2285 14.3536C23.2285 14.4998 23.2838 14.5511 23.4065 14.6124C23.5284 14.6734 23.5101 14.654 23.4362 14.7608C23.3816 14.8396 23.3472 14.9019 23.3472 14.9982C23.3472 15.2391 23.2906 15.4759 23.2878 15.7168C23.2872 15.7719 23.3204 15.9135 23.245 15.9344C23.1283 15.9668 22.992 15.9719 22.8724 15.9641C22.715 15.9537 22.552 15.9451 22.3977 15.9113C22.3544 15.9018 22.2085 15.8504 22.167 15.8883C22.1413 15.9115 22.1595 16.0374 22.1604 16.0663C22.166 16.246 22.2637 16.3863 22.3713 16.5245C22.4917 16.679 22.5539 16.7769 22.6071 16.963C22.6288 17.0391 22.9145 16.7597 22.9483 16.7404C23.0769 16.6669 23.1872 16.564 23.3472 16.564C23.4614 16.564 23.5169 16.3726 23.5845 16.2971C23.6267 16.2499 23.6592 16.2115 23.7328 16.2443C23.7836 16.2668 23.9467 16.2971 23.8911 16.2971C23.5184 16.2971 23.1569 16.2303 22.7868 16.2097C22.5258 16.1951 22.3001 16.3142 22.0565 16.386C21.8374 16.4507 21.608 16.5697 21.5389 16.8113C21.528 16.8496 21.5076 16.7358 21.5076 16.6959C21.5076 16.6452 21.4789 16.5451 21.4467 16.4322C21.4196 16.3377 21.4186 16.498 21.4186 16.5195C21.4186 16.6661 21.3692 16.7987 21.3395 16.9431C21.2356 17.4475 20.936 17.7276 20.5352 18.0113C20.3705 18.1278 20.2291 18.2332 20.0967 18.3838C19.964 18.5346 19.8183 18.5187 19.6319 18.5223C19.2343 18.5298 18.844 18.6113 18.4451 18.6113C18.198 18.6113 18.0068 18.5369 17.7692 18.486C17.5951 18.4487 17.4855 18.3111 17.3242 18.2618C17.2148 18.2284 17.1231 18.1603 17.0144 18.1234C16.9059 18.0865 16.7708 18.0651 16.6698 18.0146C16.5915 17.9754 16.6186 17.8899 16.566 17.8448C16.5342 17.8175 16.4209 17.814 16.383 17.8119C16.214 17.8022 16.0362 17.87 15.8688 17.8366C15.6903 17.8008 15.7887 17.6136 15.7188 17.4987C15.6239 17.3427 15.5374 17.2399 15.4105 17.113C15.356 17.0584 15.2728 16.8937 15.1748 16.9217C15.1034 16.9421 15.1808 17.4039 15.1864 17.4624C15.2102 17.7127 15.3215 18.2051 14.977 18.2849C14.7504 18.3374 14.5007 18.3146 14.2682 18.3146C14.2067 18.3146 14.1452 18.3146 14.0836 18.3146C14.07 18.3146 13.1951 18.39 13.1992 18.3838C13.2489 18.3093 14.1213 18.4395 14.1496 18.4778C14.2164 18.5685 14.2408 18.6562 14.2831 18.7596C14.3668 18.9642 14.4369 19.2159 14.677 19.2343C14.8868 19.2505 15.1267 19.3807 15.3297 19.442C15.4993 19.4931 15.6613 19.5611 15.8276 19.62C15.9252 19.6547 15.8509 19.6495 15.7946 19.6431C15.5527 19.6159 15.3125 19.5821 15.0693 19.5673C15.0045 19.5634 14.78 19.5223 14.7199 19.5673C14.7119 19.5732 14.7424 19.6727 14.7429 19.6859C14.7496 19.834 14.8184 19.9198 14.8979 20.0354C14.9078 20.0498 15.0929 19.9761 15.1418 19.9761C15.2611 19.9761 15.3803 19.9761 15.4996 19.9761C15.6123 19.9761 15.6699 19.9811 15.7649 20.0354C15.8296 20.0723 15.8425 20.1812 15.9149 20.2135C16.1395 20.3132 16.3898 20.3024 16.6352 20.3024C16.8291 20.3024 17.02 20.3077 17.2121 20.3387C17.3106 20.3546 17.4028 20.4211 17.5022 20.4211C17.605 20.4211 17.6966 20.4107 17.7989 20.3915C17.9003 20.3723 17.9992 20.3618 18.1022 20.3618C18.1852 20.3618 17.8817 20.4033 17.8516 20.4095C17.6164 20.4589 17.4155 20.5695 17.1759 20.5695C17.0813 20.5695 16.9868 20.5695 16.8924 20.5695C16.8056 20.5695 16.7581 20.5875 16.6847 20.6008C16.667 20.604 16.5765 20.6551 16.6072 20.6551C16.7214 20.6551 16.8485 20.6196 16.955 20.5827C17.3204 20.4559 17.6469 20.3618 18.0363 20.3618C18.1099 20.3618 18.5397 20.3111 18.567 20.3931C18.5759 20.4196 18.5545 20.4736 18.5934 20.4788C18.768 20.5021 18.9826 20.4483 19.1505 20.4063C19.45 20.3314 19.6907 20.0339 19.9681 19.8936C20.1155 19.8191 20.1953 19.7659 20.2846 19.6431C20.3484 19.5554 20.3875 19.4644 20.4692 19.3827C20.6689 19.183 20.7436 18.8918 21.0049 18.7447C21.1408 18.6683 21.2564 18.5857 21.3889 18.5074C21.535 18.4211 21.5939 18.3206 21.7054 18.2091C21.9172 17.9973 22.1267 17.7845 22.3384 17.5728" stroke="#F0CAAB" stroke-width="3" stroke-linecap="round"/>
<path d="M18.7778 22.6464C18.5423 22.6464 18.3743 22.6438 18.1713 22.5278C18.1187 22.4977 18.2404 22.5493 18.2586 22.5574C18.4222 22.6301 18.5486 22.7851 18.7334 22.8261C18.7829 22.8372 19.0714 23.0309 19.0746 22.9728C19.093 22.6416 19.0746 22.3023 19.0746 21.9706C19.0746 21.8789 19.0387 21.7453 19.1504 21.725C19.287 21.7002 19.4492 21.7438 19.599 21.725C19.7538 21.7057 19.8534 21.3063 19.9366 21.1761C20.0279 21.0336 20.1098 20.8868 20.1954 20.741C20.2528 20.6433 20.2945 20.4936 20.3734 20.4146C20.4004 20.3876 20.3261 20.513 20.3207 20.4212C20.3161 20.3425 20.387 20.3114 20.4097 20.2432" stroke="#F0CAAB" stroke-width="2" stroke-linecap="round"/>
<path d="M13.7219 18.8294C13.3681 18.8018 13.0143 18.7718 12.66 18.75C12.6149 18.7473 12.5633 18.7629 12.5247 18.7391C12.5095 18.7297 12.4922 18.7051 12.4843 18.6894C12.4432 18.6072 12.4224 18.5202 12.3787 18.4375C12.2923 18.2746 12.1543 18.1694 12.0568 18.0178C11.9798 17.898 11.8471 17.8625 11.7754 17.7394C11.7296 17.661 11.6144 17.5797 11.5391 17.542" stroke="#F0CAAB" stroke-linecap="round"/>
<path d="M14.7012 20.3965C14.9013 20.5482 15.0693 20.7022 15.2546 20.8505C15.3092 20.8941 15.4129 20.9802 15.4848 20.9842C15.5641 20.9886 15.7269 21.0206 15.7646 21.0961" stroke="#F0CAAB" stroke-linecap="round"/>
<path d="M24.8027 16.8712C24.8631 16.5898 24.9987 16.3513 24.9987 16.0596" stroke="#F0CAAB" stroke-linecap="round"/>
<path d="M28.1074 23.3193C28.2828 23.3193 28.4536 23.3201 28.6279 23.3394C28.6623 23.3433 28.778 23.3411 28.8065 23.364C28.9113 23.4477 29.1437 23.4638 29.2734 23.4891C29.3726 23.5084 29.4746 23.4978 29.575 23.5002C29.6967 23.5032 29.8188 23.5397 29.9357 23.5706C30.0235 23.5938 30.1067 23.6308 30.1937 23.6566C30.2708 23.6794 30.3639 23.6247 30.435 23.6053C30.522 23.5814 30.6241 23.5797 30.7009 23.5304C30.7339 23.5092 30.7675 23.4833 30.8013 23.4645C30.8452 23.4401 30.9735 23.4069 30.9812 23.4835C31.0065 23.7364 30.9389 23.9256 30.7612 24.1033C30.612 24.2525 30.5174 24.4634 30.3434 24.5859C30.1968 24.6891 29.8967 24.5217 29.8967 24.3345C29.8967 24.2479 29.6857 24.1862 29.623 24.1525C29.4058 24.0356 29.1335 24.1222 28.9093 24.0118C28.7301 23.9235 28.4663 23.9453 28.3587 23.7516C28.3573 23.749 28.8262 23.7685 28.9205 23.7773C29.1443 23.798 29.3671 23.8204 29.5906 23.8431C29.8753 23.8721 30.1684 23.9728 30.4395 24.0632" stroke="#F0CAAB" stroke-linecap="round"/>
<path d="M11.3086 17.3619C11.4953 17.5485 11.6876 17.7964 11.9197 17.9305C12.1546 18.0662 12.3851 18.2224 12.6272 18.3469C12.7059 18.3874 12.564 18.3476 12.5462 18.342C12.4809 18.3218 12.4115 18.3114 12.3496 18.2813C12.2776 18.2464 12.2134 18.1946 12.1327 18.1946C12.0758 18.1946 12.1564 18.3233 12.18 18.3469C12.2491 18.416 12.3584 18.4848 12.445 18.5329C12.5225 18.576 12.6056 18.6314 12.6879 18.6708C12.8493 18.748 13.0176 18.799 13.1727 18.8876C13.3207 18.9722 13.5016 19.0033 13.6468 19.0968C13.6949 19.1276 13.7394 19.1708 13.7895 19.197C13.8375 19.2221 13.8174 19.1444 13.8261 19.1247C13.8384 19.0971 14.2152 19.0979 14.258 19.0968C14.3542 19.0941 14.4412 19.0702 14.5356 19.0534C14.6528 19.0324 14.7336 19.0172 14.8247 18.929C14.9245 18.8324 15.0452 18.7605 15.1428 18.663C15.2122 18.5936 15.3262 18.5548 15.403 18.4972C15.4662 18.4498 15.7503 18.674 15.8424 18.7073C15.9119 18.7324 15.9887 18.7244 16.0584 18.7498C16.1067 18.7673 16.1627 18.8077 16.2097 18.8182C16.3036 18.8391 16.3775 18.8928 16.4612 18.9368C16.6003 19.0096 16.7601 19.0728 16.9094 19.1208C17.086 19.1776 17.2372 19.1799 17.3865 19.2934C17.472 19.3584 17.5311 19.3732 17.6391 19.3744C17.8818 19.3768 18.0993 19.4079 18.3359 19.4514C18.51 19.4835 18.6727 19.4115 18.8361 19.357C19.0725 19.2782 19.2287 19.0735 19.4501 18.9676C19.4811 18.9528 19.5153 18.9361 19.5416 18.9146C19.5443 18.9124 19.5761 18.8911 19.5706 18.8895C19.456 18.8568 19.3218 18.8583 19.2043 18.8327C18.8816 18.7624 18.6012 18.6126 18.3041 18.476C18.224 18.4392 18.1358 18.415 18.0573 18.3758C17.861 18.2776 17.692 18.1403 17.506 18.025C17.3378 17.9207 17.2194 17.8199 17.1292 17.6394C17.0812 17.5433 16.9884 17.4376 16.9084 17.3657C16.8969 17.3553 16.866 17.3544 16.8496 17.3436C16.8016 17.3115 16.7701 17.2723 16.7099 17.2616C16.4826 17.2212 16.2704 17.1396 16.0478 17.0688C15.8435 17.0039 15.762 17.2662 15.59 17.3407C15.522 17.3701 15.2681 17.392 15.1957 17.3512C15.0916 17.2927 14.9532 17.3036 14.8478 17.2327C14.8118 17.2085 14.7169 17.1192 14.7476 17.1498C14.78 17.1823 14.8512 17.171 14.8921 17.171C14.9554 17.171 15.0188 17.171 15.082 17.171C15.1562 17.171 15.223 17.203 15.295 17.2057C15.4997 17.2133 15.7037 17.206 15.9128 17.2317C16.0846 17.2529 16.2203 17.3117 16.361 17.4177C16.4453 17.4812 16.5124 17.5214 16.6058 17.5681C16.8347 17.6825 17.0266 17.851 17.2198 18.0163C17.5053 18.2606 17.7392 18.5822 18.1152 18.6939C18.3136 18.7528 18.5029 18.8322 18.7051 18.8808C18.848 18.9152 19.0444 18.9062 19.1773 18.9666C19.2271 18.9892 19.2744 18.9528 19.3094 18.9213C19.3976 18.8419 19.4904 18.8206 19.6072 18.8192C19.628 18.8189 19.7985 18.826 19.7518 18.8365C19.5676 18.8777 19.356 18.8639 19.1696 18.8635C18.7407 18.8626 18.3121 18.8335 17.8839 18.8124C17.7251 18.8046 17.5667 18.8018 17.4077 18.8018C17.3511 18.8018 17.2758 18.8124 17.2208 18.7922C17.1902 18.7809 17.1752 18.7295 17.1629 18.7044C17.1168 18.61 17.0586 18.5292 16.9836 18.4548C16.7752 18.2479 16.4978 18.1136 16.2588 17.9479C16.1664 17.8837 16.0579 17.85 15.9543 17.8091C15.8383 17.7633 15.7169 17.6563 15.8261 17.8399C15.9196 17.9972 16.0284 18.1443 16.12 18.3025C16.1557 18.3642 15.7423 18.3024 15.7076 18.2948C15.5012 18.2504 15.3431 18.144 15.2604 17.9536C15.2017 17.8189 14.8467 18.1267 14.814 18.1676C14.6911 18.322 14.7294 18.4994 14.5201 18.5666C14.2165 18.6642 13.9409 18.6114 13.6344 18.5512C13.3624 18.4978 13.1452 18.4264 12.9182 18.2679C12.8262 18.2036 12.7295 18.152 12.6358 18.0896C12.594 18.0616 12.5576 18.0268 12.5096 18.0076C12.4416 17.9804 12.6807 18.01 12.6946 18.0115C12.8917 18.033 13.0481 17.9859 13.2401 17.9517C13.3064 17.94 13.3826 17.9309 13.4464 17.9093C13.5714 17.867 13.686 17.7565 13.804 17.6944C13.9281 17.629 14.0523 17.5601 14.1789 17.4968C14.2248 17.4739 14.3034 17.4607 14.3408 17.4274C14.4176 17.3591 14.58 17.3965 14.6801 17.3965C14.7861 17.3965 14.6884 17.6176 14.6676 17.6664C14.5851 17.8596 14.4387 17.9584 14.2753 18.0732C14.1947 18.1297 14.1465 18.2199 14.0632 18.2736C13.9976 18.316 13.9019 18.3387 13.8242 18.3498C13.7856 18.3553 13.7657 18.3504 13.7741 18.3064C13.7836 18.2565 13.8356 18.2279 13.8724 18.1994C13.9648 18.128 14.0598 18.0543 14.1249 17.9556C14.176 17.878 14.1842 17.8244 14.2532 17.7657C14.3358 17.6952 14.4261 17.6092 14.5356 17.5874" stroke="white" stroke-linecap="round"/>
<path d="M28.4051 26.0127C28.1957 25.9792 28.0013 25.9699 27.8047 25.8806C27.73 25.8466 27.6202 25.8659 27.5387 25.8659C27.3998 25.8659 27.3772 25.8255 27.3772 25.675C27.3772 25.4779 27.3307 25.3734 27.1553 25.2915C26.9302 25.1865 26.7631 24.9664 26.5401 24.8673C26.3549 24.785 26.5609 25.3334 26.5989 25.4074C26.6975 25.5994 26.8253 25.7607 26.9219 25.954C27.0204 26.151 27.1501 26.2246 27.3479 26.3358C27.4832 26.412 27.6489 26.5013 27.7296 26.6426C27.7786 26.7282 27.4006 26.6882 27.3184 26.6882C27.0939 26.6882 26.859 26.6231 26.6446 26.5561C26.5372 26.5226 26.4101 26.5443 26.3068 26.4974C25.9351 26.3285 25.6395 26.0426 25.2788 25.8366C25.1119 25.7411 24.9588 25.6721 24.8219 25.5428C24.7381 25.4637 24.6787 25.431 24.6099 25.3372C24.5455 25.2498 24.4527 25.1788 24.3749 25.1088C24.2561 25.0019 24.204 24.8731 24.1105 24.7563C24.0295 24.6551 24.0301 24.7122 24.0811 24.8086C24.1173 24.8769 24.1171 24.762 24.1171 24.7351C24.1171 24.671 24.0739 24.6245 24.0518 24.567C23.9759 24.37 23.8341 24.2267 23.7711 24.0221C23.7263 23.8765 23.6841 23.6976 23.6765 23.5456C23.6711 23.438 23.5883 23.3616 23.5883 23.2519C23.5883 23.0369 23.5947 22.8206 23.5883 22.6058C23.5879 22.5888 23.5356 22.2136 23.6112 22.2892C23.6782 22.3562 23.6765 22.6185 23.6765 22.3186C23.6765 22.063 23.6989 21.8445 23.763 21.6202C23.7899 21.5262 23.7921 21.4379 23.8397 21.3428C23.9373 21.1474 24.1275 20.9214 24.1742 20.7114C24.2439 20.3974 24.457 20.2099 24.6751 19.9918C24.8891 19.7778 24.9756 19.6601 25.0863 19.3635C25.1861 19.0962 25.2511 18.9445 25.491 18.8137C25.9227 18.5782 26.4517 18.4938 26.9367 18.4938C27.0843 18.4938 27.1423 18.4811 27.1423 18.6554C27.1423 18.6967 27.1124 18.6761 27.0998 18.6668C26.9687 18.5702 26.9315 18.3611 26.891 18.2165C26.8096 17.9261 26.9423 17.9036 27.2173 17.8167C27.4701 17.7369 27.6569 17.4743 27.9091 17.4055C28.2397 17.3154 28.5263 17.143 28.8294 16.9976C28.9747 16.9278 29.1734 16.931 29.3319 16.9144C29.4747 16.8994 29.6134 16.8491 29.7562 16.8491C29.8539 16.8491 30.0031 16.8506 30.0907 16.8034C30.1947 16.7474 30.2399 16.6798 30.373 16.6729C30.4911 16.6666 30.6759 16.5725 30.7189 16.7446C30.8347 17.208 30.8245 17.7005 30.9539 18.161C31.0075 18.3517 30.977 18.5432 31.0061 18.7386C31.0452 19.001 31.0485 19.2526 31.0485 19.5186C31.0485 19.9262 31.0799 20.3457 31.0127 20.7489C30.9708 20.9998 30.8295 21.0689 30.6211 21.1731C30.5054 21.231 30.3951 21.3296 30.2539 21.2922C30.1274 21.2587 30.0307 21.141 29.9651 21.0361C29.7075 20.6238 29.5755 20.1374 29.5441 19.6556C29.52 19.2866 29.5767 18.8955 29.301 18.6048C29.1079 18.4013 28.9603 18.6482 28.9045 18.8398C28.7318 19.4326 28.6791 20.049 28.7217 20.6608C28.7383 20.8983 28.7764 21.1032 28.8735 21.3216C28.8979 21.3767 28.9484 21.5778 28.8914 21.6234C28.8609 21.6479 28.7453 21.5868 28.7087 21.5876C28.5494 21.5909 28.412 21.6914 28.2485 21.6741C28.1686 21.6655 28.1001 21.6281 28.0283 21.5958C27.9513 21.5611 27.8753 21.6485 27.8112 21.6822C27.4169 21.8898 26.9911 21.9142 26.8779 22.4361C26.8352 22.6327 26.8566 22.8865 26.6739 23.0234C26.6258 23.0596 26.5583 23.0372 26.5043 23.0333C26.2985 23.0182 26.139 23.0834 25.9315 23.0006C25.6776 22.8993 25.3462 22.7058 25.3441 22.3936C25.3433 22.2827 25.3975 22.1662 25.4077 22.0542C25.4137 21.9889 25.4048 21.9236 25.4159 21.8584C25.4823 21.4674 25.7456 21.1095 26.0131 20.8272C26.1472 20.6857 26.2738 20.4673 26.4667 20.403" stroke="#FFDE6C" stroke-width="3" stroke-linecap="round"/>
<path d="M29.3153 25.7779C29.3153 25.4123 29.5666 24.9632 29.1993 24.8C29.0246 24.7223 28.6565 24.8126 28.4766 24.7319C28.2541 24.6321 27.9756 24.4917 27.8011 24.3224C27.7486 24.2713 27.7278 24.2339 27.6836 24.1772C27.6524 24.1371 27.6299 24.0419 27.5971 24.0156C27.5263 23.959 27.5075 23.7504 27.4797 23.6616C27.4289 23.499 27.4062 23.3323 27.4062 23.1639C27.4062 23.044 27.4088 22.9394 27.4339 22.8261C27.4727 22.6521 27.6067 22.694 27.7587 22.694C27.9051 22.694 27.9818 22.5397 28.1274 22.5242C28.2534 22.5108 28.3825 22.5177 28.5093 22.5177C28.5966 22.5177 28.669 22.558 28.7573 22.5454C28.8296 22.5351 28.8203 22.5742 28.8813 22.5764C29.0841 22.584 29.2886 22.5764 29.4915 22.5764C29.6623 22.5764 29.8331 22.5764 30.0039 22.5764C30.351 22.5764 30.6887 22.5177 31.0335 22.5177C31.0948 22.5177 31.1567 22.5201 31.2179 22.5177C31.2866 22.5149 31.2283 22.4012 31.306 22.3839C31.336 22.3772 31.4963 22.144 31.5279 22.0951C31.6766 21.8653 31.7817 21.5616 31.8999 21.3119C31.9798 21.1432 31.9712 20.9743 32.0305 20.8076C32.1039 20.6012 32.2454 20.4318 32.3274 20.2333C32.4299 19.9852 32.313 19.1885 32.4221 19.4338C32.4735 19.5496 32.3638 19.1974 32.3535 19.1711C32.2447 18.8912 32.069 18.6393 31.9766 18.352C31.9327 18.2153 31.9576 18.0508 31.9815 17.913C32.0407 17.5727 32.0169 17.2031 32.0468 16.8589C32.0628 16.6751 32.0488 16.5153 32.1642 16.3678C32.2724 16.2296 32.5515 16.1149 32.7223 16.1149C32.7741 16.1149 32.8499 16.1284 32.8986 16.1084C32.9504 16.087 32.9573 16.2003 32.9573 16.1263C32.9573 15.9864 32.9242 14.8447 32.892 14.8585C32.7687 14.9113 32.6362 15.0984 32.5885 15.224C32.517 15.4123 32.4853 15.4193 32.3356 15.4867C32.1721 15.5603 32.0376 15.6927 31.9423 15.844C31.8375 16.0105 32.1202 16.0097 32.2067 16.0268C32.4723 16.0793 32.6164 16.1657 32.8463 16.2911C32.9314 16.3376 33.2409 16.412 33.2298 16.4086C32.6686 16.236 32.0659 16.2472 31.4887 16.172C31.3475 16.1536 30.982 16.1617 31.0775 16.0561C31.1273 16.0012 31.1616 15.9256 31.1885 15.8571C31.195 15.8406 31.2454 15.8212 31.2277 15.8212C31.031 15.8212 30.8362 15.8184 30.6435 15.8636C30.4224 15.9155 30.1563 15.9708 29.9762 16.1149C29.9482 16.1373 29.8129 16.2291 29.8228 16.2291C29.9359 16.2291 30.0626 16.1702 30.1736 16.1508C30.3542 16.1192 30.5327 16.1149 30.7153 16.1149C30.8234 16.1149 30.9023 16.0717 31.0074 16.0561C31.0835 16.0449 31.1763 16.0379 31.2407 15.9909C31.292 15.9535 31.3102 15.8889 31.3647 15.8505C31.4502 15.7904 31.5494 15.7624 31.3778 15.7624C31.2789 15.7624 30.9451 15.6801 30.9291 15.7918C30.8838 16.1091 30.4002 16.3617 30.1752 16.5326C29.979 16.6816 29.7748 16.8362 29.6221 17.0319C29.4632 17.2354 29.3582 17.4854 29.1815 17.6748C29.1068 17.7548 29.051 17.7373 29.051 17.6422" stroke="#FFDE6C" stroke-linecap="round"/>
<path d="M7.51562 12.6763C7.74946 12.4424 8.16731 12.2003 8.30156 11.8982C8.35034 11.7884 8.39403 11.6611 8.42731 11.5445C8.45523 11.4468 8.44105 11.3149 8.4784 11.2263C8.5775 10.9909 8.74066 10.8135 8.92246 10.6171C9.04131 10.4887 9.17789 10.3299 9.17789 10.1475C9.17789 10.059 9.23818 9.9557 9.25059 9.86258C9.26898 9.72474 9.35908 9.60626 9.38813 9.47554C9.45893 9.1569 9.69666 9.4837 9.92061 9.56394C10.0852 9.6229 10.2729 9.69394 10.3804 9.83906C10.5058 10.0084 10.6874 10.2074 10.8756 10.3067C11.0113 10.3783 11.1824 10.4482 11.3353 10.4482C11.5635 10.4482 11.4783 10.2455 11.4414 10.0611C11.3623 9.66546 11.2581 9.34338 10.8756 9.19458C10.6431 9.10418 10.3798 9.07658 10.1524 9.14154C9.94329 9.2013 10.6102 9.21914 10.8048 9.12186C11.0161 9.01618 11.3446 8.8521 11.5043 9.13954C11.6482 9.39858 11.9953 9.5141 12.1409 9.77618C12.1853 9.8561 12.2948 10.2359 12.3432 10.2359C12.4188 10.2359 12.4665 10.1162 12.5555 10.0964C12.681 10.0686 12.6962 10.0835 12.6066 9.94906C12.5302 9.83458 12.4671 9.65106 12.4671 9.5109C12.4671 9.43018 12.434 9.31754 12.3609 9.28098" stroke="#F0CAAB" stroke-width="2" stroke-linecap="round"/>
<path d="M12.6787 8.71519C13.0054 8.71519 13.3167 8.66311 13.6336 8.64447C13.6823 8.64159 13.8651 8.37767 13.9166 8.32615C13.9909 8.25183 14.1295 8.18471 14.2348 8.18471C14.2879 8.18471 14.341 8.18471 14.394 8.18471C14.4947 8.18471 14.4426 8.16383 14.4117 8.20239C14.3619 8.26463 14.0735 8.29079 14.003 8.29079C13.7989 8.29079 13.6059 8.32615 13.4037 8.32615C13.3294 8.32615 12.9681 8.32695 12.9263 8.37927C12.8963 8.41663 13.3041 8.36231 13.3585 8.35367C13.6011 8.31519 13.8471 8.28919 14.0875 8.23975C14.1695 8.22287 14.2855 8.24327 14.3488 8.19255C14.3674 8.17767 14.6751 8.17823 14.6514 8.15719C14.5839 8.09719 14.2631 8.14743 14.1799 8.15127C13.9212 8.16335 13.6723 8.28735 13.4293 8.36943C13.1342 8.46903 12.8552 8.55087 12.5549 8.62879C12.3278 8.68767 12.1163 8.71519 11.8829 8.71519C11.7773 8.71519 11.6221 8.74327 11.5391 8.80167C10.9496 9.21647 10.1335 9.42999 9.76088 10.0925C9.66609 10.2611 9.75172 10.597 9.58404 10.7312C9.44551 10.842 9.38805 11.1021 9.2559 11.2341C8.93485 11.5552 10.0155 10.7261 10.3366 10.405C10.3648 10.3768 10.6627 10.075 10.6627 10.2517C10.6627 10.4261 10.5107 10.5296 10.3975 10.6427C10.2371 10.803 10.087 10.9869 9.95736 11.1733C9.82804 11.3592 9.70045 11.5579 9.67442 11.7922C9.67072 11.8255 9.62018 12.0411 9.67245 11.9612C9.77776 11.8001 9.85412 11.6286 9.97504 11.4739C10.0287 11.4051 10.592 10.9067 10.592 11.1241C10.592 11.406 10.541 12.2505 10.5567 11.969C10.5597 11.9145 10.6709 11.3209 10.7963 11.4464C10.8961 11.5461 10.7794 11.8276 10.983 11.8276C11.1349 11.8276 11.4762 11.3923 11.4762 11.6527C11.4762 11.8224 11.2299 12.0193 11.1854 11.7568C11.1648 11.6355 11.1663 11.279 11.1206 11.3933C11.1047 11.4329 11.09 11.6053 11.0164 11.5721C10.8563 11.5001 10.7128 11.3345 10.5154 11.3815C10.2456 11.4457 10.2081 11.6629 10.203 11.8905C10.1943 12.2717 9.914 12.3168 9.59386 12.1733C9.40203 12.0874 9.16696 11.9789 9.00244 11.8453C8.92929 11.7858 8.859 11.5073 8.859 11.6016C8.859 11.7636 8.89649 11.9697 8.9317 12.1281C8.95728 12.2433 8.91282 12.3201 8.94742 12.4308C8.98769 12.5596 9.00048 12.7454 9.00048 12.8807C9.00048 13.025 8.92762 13.0239 8.80595 13.0497C8.64743 13.0833 8.49439 13.1426 8.33635 13.1793C8.25053 13.1993 8.17094 13.2726 8.08092 13.2776C7.93486 13.2857 8.13633 13.1717 8.22239 13.2147C8.31525 13.2612 8.40036 13.3769 8.47782 13.4466C8.56976 13.5293 8.68739 13.5923 8.80792 13.5959C8.87955 13.5981 8.79572 13.7109 8.859 13.6748C8.91928 13.6404 9.14194 13.3357 9.14194 13.2599C9.14194 13.1247 9.24878 12.9706 9.31092 12.8532C9.42146 12.6444 9.38328 12.8481 9.43274 12.9161C9.50245 13.0119 9.59845 13.0638 9.72354 13.0281C9.81173 13.0029 9.91134 12.9475 10.0084 12.9259C10.0969 12.9062 10.1185 12.8912 10.1991 12.8375C10.2897 12.777 10.4715 12.7429 10.537 12.6587C10.6017 12.5754 10.6757 12.4865 10.7511 12.4111C10.8609 12.3013 10.83 12.1679 10.8828 12.0397C10.9115 11.97 10.7874 12.0627 10.7531 12.0751C10.654 12.1112 10.7354 12.1733 10.7688 12.2245C10.8846 12.4014 10.7747 12.4837 10.9889 12.4013C11.2106 12.3161 11.4345 12.2521 11.6531 12.1537C11.7453 12.1122 11.8276 12.1487 11.9006 12.0574C11.999 11.9345 12.3263 11.7568 12.4842 11.7568C12.5863 11.7568 12.7139 11.6993 12.8202 11.6841C12.9682 11.6629 13.0881 11.6061 13.2446 11.6153C13.3043 11.6189 13.2112 11.6322 13.1365 11.58C13.0413 11.5133 12.9585 11.5093 12.8477 11.5093C12.662 11.5093 12.481 11.4739 12.2916 11.4739C11.9844 11.4739 11.6773 11.4739 11.3701 11.4739" stroke="#F0CAAB" stroke-linecap="round"/>
<path d="M24.4796 17.9268C24.3606 17.9268 24.2792 17.9393 24.1696 17.9884C24.0986 18.0201 24.095 18.0668 24.0454 18.1164C23.9743 18.1875 23.8974 18.2433 23.8471 18.334C23.8296 18.3656 23.8291 18.3514 23.8009 18.3542C23.7029 18.364 23.5631 18.5703 23.513 18.6411C23.4378 18.7474 23.3389 18.8516 23.2762 18.9655C23.2486 19.0157 23.1862 19.0835 23.18 19.1397C23.1751 19.1838 23.1504 19.1529 23.1242 19.1571C23.0064 19.1755 22.8689 19.358 22.7978 19.4459C22.6475 19.6317 22.527 19.8318 22.3925 20.0312C22.3538 20.0886 22.31 20.1638 22.2578 20.2102C22.2286 20.2361 22.2207 20.3616 22.2106 20.4133C22.1742 20.5984 22.137 20.7517 22.07 20.9274C21.9806 21.162 21.9513 21.4202 21.8592 21.6504C21.7253 21.9851 21.6722 22.3743 21.6551 22.7324C21.6518 22.8029 21.6194 22.9167 21.6118 23.0048C21.5926 23.2273 21.5858 23.4468 21.5858 23.67C21.5858 23.9905 21.5879 24.2884 21.7033 24.5942C21.7519 24.7232 21.7731 24.8544 21.8217 24.9822C21.902 25.1936 22.0418 25.3833 22.1566 25.5771C22.2488 25.7325 22.3393 25.8732 22.4542 26.0132C22.5246 26.099 22.5889 26.1899 22.6602 26.275C22.7153 26.3409 22.7926 26.3884 22.8507 26.4531C22.9816 26.5985 23.1243 26.7226 23.2666 26.8507C23.3294 26.9072 23.1262 26.807 23.1068 26.7987C22.9578 26.7346 22.7974 26.6969 22.6466 26.6389C22.5723 26.6103 22.4786 26.5896 22.6274 26.6351C22.8139 26.692 22.9915 26.7821 23.1617 26.8757C23.2332 26.9151 23.3101 26.9319 23.3802 26.972C23.4019 26.9844 23.427 26.986 23.4438 27.0028C23.4848 27.0439 23.3309 26.9756 23.2743 26.9624C23.1347 26.9297 22.9954 26.868 22.8507 26.868C22.737 26.868 22.6703 26.9161 22.5466 26.8719C22.4781 26.8474 22.3914 26.789 22.3213 26.8256C22.273 26.8509 22.2287 26.9005 22.1711 26.9027C22.1177 26.9047 22.0582 26.9327 22.0094 26.9585C21.9861 26.9708 21.9828 27.0441 21.941 27.0673C21.8943 27.0932 21.8352 27.0585 21.7938 27.0394C21.494 26.9012 21.2325 26.7134 20.9485 26.5475C20.8798 26.5073 20.7925 26.4786 20.7329 26.4232C20.6618 26.3572 20.5497 26.384 20.4575 26.3732C20.2047 26.3437 19.9794 26.3161 19.749 26.2009C19.5141 26.0834 19.2846 25.9562 19.0405 25.8572C18.7042 25.7208 18.3903 25.5436 18.0586 25.399C17.9984 25.3728 17.8038 25.3248 17.791 25.2392C17.7734 25.1217 17.6598 25.0058 17.6022 24.9061C17.4419 24.6284 17.3268 24.3196 17.197 24.0262C17.094 23.7935 16.9942 23.5588 16.9169 23.3158C16.8968 23.2528 16.8934 23.174 16.8899 23.1079C16.8876 23.0648 16.8699 23.0172 16.8553 22.9769C16.8499 22.9623 16.8131 22.8518 16.8244 22.9153C16.9003 23.3403 17.2429 23.4634 17.5599 23.6777C17.8042 23.8429 18.067 23.9562 18.3378 24.0705C18.5446 24.1578 18.73 24.2432 18.9462 24.2939C19.0602 24.3205 19.1762 24.369 19.2946 24.3728C19.405 24.3764 19.5236 24.2464 19.5902 24.1725C19.7586 23.9859 19.8552 23.738 19.9935 23.5295C19.9949 23.5275 20.0315 23.4544 20.0474 23.4717C20.0492 23.4736 20.0558 23.4838 20.061 23.4813C20.1319 23.4468 20.2272 23.3367 20.2766 23.2908C20.61 22.9806 20.9742 22.6971 21.1266 22.2568C21.171 22.1288 21.1401 21.985 21.1873 21.8583C21.1962 21.8344 21.1928 21.8412 21.1603 21.8583C20.9809 21.9531 20.825 22.0973 20.6732 22.2299C20.6334 22.2647 20.5114 22.3385 20.5114 22.406C20.5114 22.4624 20.618 22.3912 20.6366 22.3781C20.7306 22.3122 20.7864 22.2031 20.8426 22.1067C20.9538 21.9161 21.0591 21.723 21.1487 21.5214C21.219 21.3631 21.2885 21.2145 21.399 21.0804C21.5158 20.9388 21.7735 20.4548 21.7129 20.628C21.6306 20.863 21.496 21.0919 21.3971 21.3192C21.1362 21.9189 20.8948 22.5248 20.7348 23.1598C20.6717 23.4104 20.6097 23.6644 20.5952 23.9232C20.5859 24.0901 20.585 24.2876 20.704 24.4209C20.8072 24.5366 20.9642 24.6085 21.1026 24.6712C21.1416 24.6889 21.2648 24.7193 21.2219 24.7193C21.1746 24.7193 21.156 24.2286 21.1535 24.2004C21.1294 23.9226 21.1402 23.6526 21.1353 23.3755C21.1342 23.3158 21.0944 23.2772 21.0842 23.2214C21.0811 23.2041 21.0825 23.1827 21.0852 23.1656C21.1114 23.0021 21.1142 23.2844 21.1141 23.2869C21.1055 23.9049 21.0951 24.5231 21.116 25.141C21.1255 25.4227 21.1198 25.7581 21.2219 26.0305C21.303 26.2468 21.5274 26.3371 21.7302 26.4098C21.8182 26.4413 21.9078 26.4694 21.9998 26.4868C22.0322 26.493 22.2168 26.5527 22.1595 26.484C22.0338 26.3331 21.8792 26.2044 21.7437 26.0623C21.6402 25.9537 21.5428 25.84 21.4327 25.7379C21.3819 25.6907 21.2895 25.6363 21.2623 25.5684C21.2407 25.5144 21.2558 25.4292 21.2566 25.372C21.259 25.1847 21.4287 25.448 21.4702 25.4981C21.4773 25.5066 21.6479 25.7124 21.5261 25.6522C21.2018 25.492 20.8946 25.1983 20.6539 24.9331C20.4765 24.7375 20.3746 24.559 20.3911 24.2948C20.3943 24.2439 20.4178 24.2012 20.4037 24.1476C20.373 24.0319 20.242 24.2576 20.2333 24.2727C20.0904 24.5186 20.0606 24.7634 20.1995 25.014C20.3912 25.3595 20.6926 25.6373 20.9196 25.9583C20.9367 25.9825 21.0512 26.0997 20.9514 26.0286C20.5751 25.7604 20.1668 25.4537 19.9088 25.064C19.8424 24.9636 19.7735 24.8381 19.723 24.7271C19.7182 24.7164 19.716 24.687 19.7057 24.6808C19.6979 24.6762 19.6985 24.6978 19.698 24.7068C19.6926 24.8111 19.7112 24.9204 19.7317 25.0216C19.7801 25.2604 19.847 25.501 19.9454 25.7244C19.9597 25.7568 20.0183 25.8453 19.9974 25.8168C19.7921 25.5368 19.3126 25.4625 19.2032 25.1102C19.179 25.0321 19.135 24.9839 19.0915 24.9186C19.0638 24.8772 19.0568 24.7304 18.9962 24.7271C18.8775 24.7204 18.9173 24.9586 18.9173 25.0188C18.9173 25.1446 18.9033 25.1709 18.7671 25.1584C18.7167 25.1536 18.6165 25.1292 18.5929 25.0977C18.5126 24.9907 18.3687 24.9293 18.2723 24.8368C18.1821 24.7502 18.1137 24.6455 18.0258 24.5576C17.9831 24.5149 17.8968 24.4997 17.8776 24.4421" stroke="white" stroke-linecap="round"/>
<path d="M16.8071 -0.0212554C16.6982 -0.00725399 16.3101 0.041751 15.9561 0.0837552C14.0839 0.300778 11.8509 1.04286 10.1353 2.01595C5.80543 4.49421 2.91204 8.72264 2.15636 13.6931C1.98616 14.7782 1.99297 17.1865 2.15636 18.2436C2.31294 19.2027 2.68738 20.7009 2.9597 21.4499C4.62765 25.9654 8.30395 29.5708 12.8244 31.111C14.5877 31.72 16.0787 31.958 18.0325 31.958C20.708 31.958 22.9138 31.4399 25.249 30.2498C27.3118 29.2067 29.0614 27.7996 30.5047 26.0354C31.5055 24.8033 32.5403 22.9831 33.1054 21.4499C33.3913 20.6658 33.7657 19.1747 33.9087 18.2086C34.0721 17.1095 34.0721 14.7713 33.9087 13.6931C33.4866 10.9558 32.445 8.45664 30.8451 6.33539C28.2853 2.96105 24.575 0.748823 20.3744 0.111758C19.7004 0.00674744 17.2428 -0.0842616 16.8071 -0.0212554ZM20.3132 1.09886C26.5629 2.07196 31.5464 6.82544 32.799 13.0141L32.976 13.8752L32.4177 14.4282C31.8527 14.9742 31.8527 14.9742 31.7097 14.8413C31.4647 14.6102 30.8656 14.7362 30.8656 15.0233C30.8656 15.0793 30.7839 15.1423 30.6817 15.1633C30.0622 15.2963 28.9661 15.5974 28.3806 15.8074C27.6998 16.0454 26.1884 16.7734 25.6438 17.1235L25.3579 17.3055L25.4532 17.0605C25.5076 16.9205 25.5553 16.6754 25.5553 16.5004C25.5553 16.2064 25.5757 16.1784 25.8821 15.9824C27.2982 15.0443 27.3594 13.8051 26.0523 12.489L25.5553 11.992L25.7324 11.4039C26.1476 10.0528 26.8897 8.5196 27.4139 7.93856L27.6862 7.63053L27.2913 7.03546C25.8957 4.92125 23.7852 3.5071 21.4161 3.08706C20.1089 2.85604 18.761 2.90504 17.2972 3.24108C16.562 3.4091 16.6096 3.35309 16.5348 4.10217C16.4735 4.73923 16.1195 6.44741 15.854 7.42051C15.5952 8.3236 15.2957 9.01664 14.7171 10.0038C14.3971 10.5568 14.363 10.5848 14.1588 10.5638C13.9614 10.5428 13.9477 10.5288 13.9682 10.2908C13.9886 10.0948 13.9409 9.97576 13.7572 9.72376L13.5256 9.40872L14.2949 9.04464C14.7171 8.84168 15.1187 8.61064 15.18 8.54064C15.248 8.4636 15.3093 8.24656 15.3298 8.0296L15.357 7.65153L14.826 7.60252C14.4107 7.56052 14.0295 7.58852 13.1376 7.72154C12.0347 7.88255 11.9871 7.88255 11.7284 7.76354C11.49 7.65853 11.4288 7.65853 11.1088 7.74254C10.9114 7.79154 10.605 7.81955 10.4076 7.79855C10.1829 7.77054 9.97871 7.79854 9.80851 7.86855C9.52939 7.99456 8.9439 8.44264 8.46053 8.91168C7.89548 9.45768 7.30999 10.6758 7.30999 11.2989C7.30999 11.565 7.1534 11.8379 6.6428 12.468C6.62919 12.489 6.47941 12.349 6.32284 12.167L6.02328 11.831L5.88032 12.342C5.79862 12.622 5.70331 12.979 5.65565 13.1331C5.6148 13.2871 5.57396 13.4271 5.56034 13.4481C5.54672 13.4621 5.4446 13.3711 5.32887 13.2381C5.07016 12.923 5.04974 12.965 4.86593 13.9662C4.13748 17.9356 5.00889 21.1839 7.28956 22.9481C8.80774 24.1242 10.6663 24.6913 13.2193 24.7682C14.4516 24.8102 14.4584 24.8102 14.4584 24.9713C14.4584 25.1393 14.4243 25.1463 13.7776 25.2514C12.4772 25.4474 10.9386 26.3014 9.39323 27.6876L9.01198 28.0236L8.37884 27.4986C2.56484 22.6401 1.26452 14.2322 5.33568 7.88255C6.73812 5.70533 8.65116 3.93414 10.9182 2.71602C12.6202 1.79893 14.649 1.18286 16.5756 0.986849C17.4402 0.902841 19.435 0.958841 20.3132 1.09886ZM20.7966 4.03916C21.1506 4.10217 21.7565 4.25618 22.1445 4.38919C22.8321 4.62022 23.7852 5.08226 23.7852 5.18027C23.7852 5.20828 23.6423 5.4183 23.4721 5.64932C22.9275 6.35639 22.2603 7.4415 21.845 8.27456C21.6272 8.7156 21.4433 9.07968 21.4365 9.09368C21.4297 9.10064 21.2255 9.03064 20.9804 8.93968C20.2179 8.6456 19.3532 8.4496 18.1483 8.2956C17.8487 8.26056 17.7875 8.23256 17.8215 8.13456C17.8351 8.0716 18.0053 7.57452 18.1959 7.02846C18.5091 6.11137 18.7542 5.08226 18.8495 4.25619L18.8904 3.92714H19.5235C19.8707 3.92714 20.4425 3.97615 20.7966 4.03916ZM26.5969 7.19648C26.6991 7.3365 26.7808 7.49051 26.7808 7.53951C26.7808 7.58852 26.6106 7.88955 26.3995 8.2116C25.8753 9.00968 25.2626 10.2908 24.9154 11.3059C24.8745 11.4249 24.8337 11.4039 24.5341 11.1029L24.2005 10.7669L24.3708 10.3188C24.786 9.17768 26.0864 6.93046 26.3246 6.93746C26.3723 6.94446 26.488 7.05646 26.5969 7.19648ZM14.6898 8.0296C14.86 8.09256 14.8192 8.2536 14.6149 8.3656C14.506 8.41464 14.1588 8.54064 13.832 8.6456C13.512 8.7436 13.2329 8.86264 13.2193 8.91168C13.1784 9.03064 12.9878 8.93264 12.8516 8.72264C12.6951 8.4776 12.7768 8.3376 13.1376 8.2116C13.5733 8.0576 14.4924 7.95256 14.6898 8.0296ZM11.5786 8.31656C11.8781 8.4636 13.301 9.87776 13.301 10.0248C13.301 10.1088 13.192 10.1578 12.8789 10.2208C12.6406 10.2628 12.2934 10.3818 12.1028 10.4868L11.7556 10.6758L11.2382 10.4168C10.6595 10.1368 10.2647 9.87072 9.87659 9.49968C9.73362 9.35968 9.61108 9.24768 9.60427 9.24768C9.59746 9.24768 9.61789 9.55576 9.65193 9.9408C9.73362 10.8998 9.67916 11.1869 9.31153 11.6979C9.03921 12.083 8.95752 12.258 9.04602 12.258C9.14133 12.258 9.60427 11.978 9.70639 11.8659C9.91063 11.621 10.108 11.1589 10.1489 10.8018L10.1897 10.4518L10.5574 10.6968C10.7616 10.8298 11.0272 10.9838 11.1496 11.0329C11.3471 11.1169 11.3676 11.1589 11.3403 11.3409C11.3063 11.5999 11.3744 11.607 11.9394 11.4529C12.1436 11.3969 12.45 11.3479 12.6202 11.3479C12.9946 11.3479 13.4712 11.607 13.4712 11.803C13.4712 11.929 13.4099 11.95 12.9878 11.985C12.593 12.013 12.3751 12.083 11.8304 12.356C11.4628 12.538 10.9863 12.7901 10.782 12.923C10.4484 13.1261 10.3668 13.1471 10.0264 13.1191C9.52939 13.0701 9.38642 13.1541 9.25026 13.5882C9.14133 13.9242 9.13452 13.9312 8.92348 13.8892C8.31756 13.7702 7.03767 13.0771 7.03767 12.867C7.03767 12.7061 7.18064 12.328 7.24872 12.328C7.27595 12.328 7.35084 12.412 7.4053 12.517L7.50061 12.713L7.54146 12.538C7.69804 11.761 7.75932 11.523 7.92952 11.0469C8.42649 9.63272 9.44769 8.41464 10.1489 8.4076C10.2919 8.40064 10.5778 8.35856 10.782 8.30256C11.279 8.17656 11.2995 8.17656 11.5786 8.31656ZM18.7814 8.85568C19.7617 9.03768 20.4221 9.28968 21.8586 10.0248C23.2679 10.7529 23.3155 10.8718 21.9676 10.3258C21.5523 10.1578 21.1778 10.0178 21.1438 10.0178C21.0552 10.0178 20.8987 10.4798 20.9532 10.5708C20.9736 10.6058 21.2255 10.6548 21.5114 10.6828C22.1173 10.7389 23.016 10.9769 23.7852 11.2849C24.3844 11.5159 24.466 11.6279 23.9487 11.4949C22.5871 11.1379 21.4297 10.9909 18.7133 10.8298C16.3918 10.6828 15.7314 10.6128 15.2412 10.4448L14.8328 10.3048L15.8064 10.3188L16.7867 10.3398L17.0181 9.86376C17.2496 9.38768 17.2496 9.38768 17.5424 9.38768C17.6989 9.38768 18.3661 9.45072 19.0197 9.52768C19.6732 9.59776 20.2179 9.65376 20.2315 9.63976C20.2656 9.60472 19.1899 9.31072 18.6112 9.19872C18.332 9.14968 17.5424 9.08664 16.8616 9.05864C15.8608 9.02368 15.6157 8.99568 15.6157 8.91864C15.6157 8.86968 15.6838 8.79264 15.7723 8.7576C15.9901 8.65264 18.0529 8.7296 18.7814 8.85568ZM15.003 11.2079C15.3979 11.3269 15.8404 11.4529 15.9969 11.4879C16.2216 11.5439 18.4274 11.901 18.5976 11.908C18.6248 11.915 18.5227 11.978 18.3729 12.062C17.944 12.286 17.59 12.6921 17.59 12.9581C17.59 13.1121 17.8828 13.0141 18.087 12.7901C18.6656 12.153 19.1082 12.3 19.9047 13.3781C20.32 13.9382 20.4085 14.0152 20.4698 13.8471C20.5447 13.6371 19.9932 12.489 19.7004 12.23C19.4282 11.999 19.4622 11.999 20.7012 12.265C21.9608 12.531 22.5326 12.699 23.1385 12.993C24.0848 13.4481 24.466 13.8612 24.466 14.4352C24.466 14.8202 24.4252 14.8482 23.8601 14.8482C23.5334 14.8482 23.4244 14.8833 23.2202 15.0443C22.8798 15.3103 22.7776 15.5203 22.9138 15.6674C23.0568 15.8074 23.2815 15.7514 23.5538 15.5134C23.7512 15.3383 23.9282 15.3033 24.398 15.3313C24.7384 15.3593 24.9903 15.6254 25.0856 16.0734C25.1536 16.3884 25.1468 16.4724 25.0448 16.6965C24.82 17.1725 24.1052 17.5646 23.3428 17.6206C22.6211 17.6766 22.5598 17.6975 22.5598 17.8936C22.5598 18.0336 22.5939 18.0686 22.73 18.0686C23.084 18.0686 23.0024 18.2646 22.3964 18.8457C21.0688 20.1268 20.0136 21.772 19.4758 23.4031C19.4486 23.4731 19.3669 23.5291 19.2852 23.5291C19.115 23.5291 18.4682 23.1861 18.1687 22.9411L17.9644 22.773L18.1074 22.5701C18.2912 22.318 18.4138 22.297 18.8972 22.451C19.2852 22.5701 19.2988 22.5701 19.3941 22.437C19.4486 22.367 19.4963 22.283 19.4963 22.262C19.4963 22.241 19.2852 22.15 19.0265 22.059C18.5704 21.898 18.5568 21.884 18.6997 21.786C18.9176 21.639 19.3601 21.2049 19.435 21.0579C19.4894 20.9669 19.3669 21.0019 18.972 21.2049C18.441 21.4779 18.4342 21.4779 17.3858 21.527C16.2692 21.583 15.9425 21.541 15.2753 21.2749C14.7988 21.0859 14.1316 20.6029 13.8116 20.2248L13.5665 19.9238L14.0295 19.8678C14.6217 19.8048 15.248 19.6367 15.5068 19.4827C15.7042 19.3638 15.711 19.3638 16.2556 19.6507C17.0794 20.0918 17.4947 20.1968 18.2572 20.1478C18.761 20.1198 18.972 20.0708 19.3124 19.9028C20.2656 19.4407 20.994 18.6706 20.994 18.1246C20.994 17.8096 20.9804 17.8096 20.3812 18.0056C19.3532 18.3416 18.6044 18.1036 17.7125 17.1585C17.1407 16.5564 16.8616 16.3674 16.5824 16.4024C16.4395 16.4164 16.3918 16.4654 16.3782 16.6194C16.3578 16.7805 16.3918 16.8294 16.5824 16.9065C16.705 16.9625 16.9705 17.2145 17.1884 17.4875C17.7466 18.1876 18.8086 18.7686 19.5303 18.7686C19.7004 18.7686 19.8366 18.7966 19.8366 18.8317C19.8366 19.0767 18.8155 19.5247 18.121 19.5878C17.5152 19.6507 16.7186 19.3847 15.9016 18.8597L15.5408 18.6217L15.2548 18.8737C14.9008 19.1887 14.5672 19.2867 13.8388 19.2937C13.3078 19.2937 13.2193 19.2727 12.7904 19.0487C12.2526 18.7686 11.6807 18.2296 11.4696 17.8096C11.3403 17.5435 11.2858 17.2985 11.3539 17.2985C11.3676 17.2985 11.6194 17.4175 11.9122 17.5575C12.6406 17.9146 13.0696 17.9216 13.7299 17.5786C14.2132 17.3335 14.6149 16.9414 14.5809 16.7594C14.5332 16.5214 14.3494 16.4934 14.118 16.6965C13.764 16.9975 13.3759 17.1725 12.9538 17.2075L12.5657 17.2495L12.518 16.4304C12.4908 15.9894 12.4908 15.4083 12.5112 15.1493C12.6406 13.8542 13.1104 12.58 13.5324 12.37C13.9409 12.174 14.1724 12.237 14.8056 12.7341C15.146 13.0001 15.2072 12.9441 15.037 12.503C14.9076 12.146 14.472 11.7119 14.186 11.649C14.0499 11.621 13.9818 11.565 13.9818 11.4809C13.9818 11.2989 14.1248 10.9978 14.2132 10.9978C14.2541 10.9978 14.6081 11.0958 15.003 11.2079ZM22.8594 11.985C25.038 12.279 26.4404 13.1471 26.4404 14.2182C26.4404 14.6873 26.1068 15.2193 25.6575 15.4574C25.494 15.5483 25.4532 15.5483 25.426 15.4714C25.3852 15.3453 25.072 15.0233 24.9494 14.9813C24.8745 14.9533 24.8881 14.8902 25.0039 14.6522C25.3852 13.8822 25.0175 13.2871 23.8193 12.713C23.2202 12.426 22.6484 12.237 21.7428 12.013L21.028 11.8379L21.6748 11.873C22.0288 11.8939 22.5598 11.943 22.8594 11.985ZM12.8925 12.384C12.8925 12.419 12.77 12.769 12.627 13.1751C12.2662 14.1482 12.1436 14.9253 12.1436 16.1994V17.2355L11.9939 17.1865C11.7012 17.0955 11.3539 16.8854 11.1292 16.6754L10.9114 16.4654L10.8501 16.6405C10.7616 16.8785 10.7684 16.9905 10.8842 17.3895C11.1292 18.2156 11.5718 18.8737 12.2389 19.3847L12.6542 19.6998L12.4024 19.6578C12.0007 19.5947 11.6739 19.3987 11.2109 18.9507C10.4144 18.1876 10.1489 17.5226 10.1421 16.2974C10.1421 15.7094 10.1216 15.4783 10.0604 15.4783C9.85616 15.4783 9.92424 14.8062 10.1761 14.3722C10.2442 14.2462 10.3055 14.1272 10.3055 14.1132C10.3055 14.0992 10.1285 14.0782 9.91744 14.0642C9.55662 14.0432 9.52258 14.0292 9.50216 13.8682C9.48854 13.7702 9.52939 13.6302 9.58384 13.5531C9.66554 13.4341 9.74724 13.4131 10.1693 13.4341C10.6255 13.4481 10.7004 13.4271 11.279 13.1471C11.6262 12.979 12.0892 12.727 12.3138 12.587C12.7155 12.335 12.8925 12.272 12.8925 12.384ZM6.92193 13.2241C7.75251 13.9032 8.66477 14.2882 9.42727 14.2882C9.64512 14.2882 9.82893 14.3162 9.82893 14.3442C9.82893 14.3722 9.76766 14.5962 9.68597 14.8342L9.543 15.2683H9.14814C8.67839 15.2683 7.99759 15.0653 7.34403 14.7293C6.79258 14.4422 6.18668 14.0572 5.97563 13.8542L5.82585 13.7211L5.96201 13.1821C6.15264 12.384 6.13902 12.405 6.32964 12.657C6.41815 12.7761 6.68365 13.035 6.92193 13.2241ZM32.7445 15.3243C32.1114 15.6183 32.0501 15.3803 32.622 14.8413L33.01 14.4772L33.0441 14.8202L33.0781 15.1633L32.7445 15.3243ZM31.662 15.7234C31.6757 15.7654 31.451 15.8354 31.1651 15.8844C30.3209 16.0174 29.7763 16.4444 29.7763 16.9625C29.7763 17.2215 30.0282 17.5435 30.1575 17.4526C30.1984 17.4246 30.3004 17.2705 30.3822 17.1095C30.6681 16.5214 31.0493 16.1854 31.5328 16.0734C31.7369 16.0314 31.7574 16.0454 31.8595 16.2904C31.9548 16.5284 31.9548 16.5564 31.8527 16.6125C31.6076 16.7594 31.2604 17.1235 31.1311 17.3755C30.9608 17.7255 30.9676 18.1106 31.1583 18.4886C31.3761 18.9366 31.451 18.9157 31.4919 18.3976C31.5123 18.1596 31.5804 17.8516 31.6484 17.7186C31.7778 17.4526 32.0842 17.0885 32.1727 17.0885C32.2884 17.0885 32.2272 17.7816 32.0842 18.0336C31.9548 18.2576 31.948 18.3136 32.0229 18.6146C32.1046 18.9577 32.2952 19.3287 32.5131 19.5807C32.6424 19.7348 32.6424 19.7418 32.3769 20.5609C32.2272 21.0229 31.9616 21.716 31.7846 22.101C31.4783 22.787 31.4578 22.815 31.2196 22.857C30.743 22.9341 29.1432 22.8991 28.4283 22.787C27.8428 22.703 27.6998 22.6961 27.659 22.773C27.55 22.9481 27.5909 23.7602 27.7271 24.0192C27.8972 24.3482 28.4351 24.6282 29.1159 24.7333L29.6401 24.8173V25.1813C29.6401 25.4334 29.5992 25.5943 29.5108 25.7064L29.3882 25.8674L29.3405 25.7134C29.2793 25.5243 29.2588 25.5243 28.9252 25.6994C28.7755 25.7764 28.5712 25.8394 28.4692 25.8394C28.2581 25.8394 28.2376 25.8954 28.367 26.0774C28.4351 26.1754 28.5304 26.1964 28.7755 26.1824C29.0682 26.1544 29.0819 26.1614 28.9729 26.2664C28.8164 26.4205 28.2444 26.6094 27.9245 26.6094C27.4548 26.6094 27.516 27.0015 27.9926 27.0435L28.2444 27.0715L28.0607 27.1555C27.4616 27.4215 26.0115 27.3866 25.249 27.0925C23.6219 26.4694 22.3828 24.4602 22.5122 22.661C22.6347 21.0229 23.4857 19.4618 24.9154 18.2786C26.2497 17.1795 28.2513 16.2764 30.4571 15.7934C31.2604 15.6183 31.6212 15.5974 31.662 15.7234ZM33.0985 15.9474C33.0781 16.1854 33.0577 16.2134 32.8399 16.2554C32.5812 16.3114 32.4995 16.2484 32.4995 15.9964C32.4995 15.8914 32.5608 15.8284 32.7241 15.7723C33.0985 15.6534 33.119 15.6674 33.0985 15.9474ZM5.37652 16.0244C5.41056 16.0524 5.47864 16.5144 5.5263 17.0535C5.57396 17.6835 5.66246 18.2576 5.7782 18.6637C6.70408 22.003 9.67235 24.0192 13.6618 24.0192H14.3971L14.3767 24.2082L14.3562 24.4042L13.4031 24.3902C9.54981 24.3482 6.67685 22.5841 5.58076 19.5807C5.32206 18.8806 5.12463 17.8376 5.08378 16.9274C5.04974 16.2554 5.06336 16.0804 5.13824 16.0314C5.25398 15.9544 5.28121 15.9544 5.37652 16.0244ZM23.8738 18.5797C22.9343 19.5878 22.3624 20.6309 22.0424 21.905C21.5931 23.6832 21.988 25.3774 23.118 26.5605L23.5742 27.0365L23.0364 26.9875L22.5054 26.9455L22.2194 27.2115L21.9403 27.4846L20.6332 26.8195C19.9116 26.4554 19.0333 26.0494 18.6793 25.9164C18.3252 25.7834 17.9508 25.5943 17.8419 25.4963C17.3517 25.0343 16.8344 23.9282 16.7322 23.1231L16.6845 22.7521L17.3245 23.1861C18.2504 23.8092 18.9788 24.1592 19.3532 24.1592L19.6664 24.1522L19.8571 23.7112C20.1839 22.9691 21.028 21.555 21.6884 20.6449C22.4032 19.6718 23.8806 18.0966 24.1324 18.0476C24.221 18.0336 24.3231 18.0126 24.3572 18.0056C24.3912 18.0056 24.1733 18.2576 23.8738 18.5797ZM15.3025 22.262C15.1664 22.577 15.0643 22.8361 15.0779 22.8501C15.5952 23.1721 16.2897 23.6972 16.2624 23.7392C16.242 23.7742 15.9969 23.9352 15.7178 24.0962C15.4387 24.2642 15.2072 24.4182 15.2072 24.4393C15.2072 24.4673 15.2685 24.5442 15.3502 24.6213C15.4319 24.6913 15.534 24.8383 15.5884 24.9433C15.6838 25.1323 15.6838 25.1393 15.4932 25.1393C15.2957 25.1393 15.0234 24.9013 14.8736 24.5933C14.7988 24.4533 14.826 24.3972 15.1528 24.0472L15.5136 23.6552L15.3093 23.5082C14.9076 23.2071 14.6626 22.9551 14.6626 22.8361C14.6626 22.5841 15.4796 21.457 15.534 21.6319C15.5476 21.667 15.4387 21.954 15.3025 22.262ZM29.926 23.3471C30.5932 23.3471 31.1379 23.3682 31.1379 23.3822C31.1379 23.4311 30.2528 24.7822 30.1916 24.8173C30.1575 24.8383 30.0963 24.7682 30.0486 24.6562C29.9532 24.4182 29.7559 24.3272 29.2112 24.2712C28.7891 24.2222 28.3875 24.0822 28.2036 23.9072C28.0811 23.7952 27.9721 23.3611 28.0334 23.2561C28.0539 23.2211 28.2172 23.2281 28.3943 23.2631C28.578 23.3051 29.2656 23.3402 29.926 23.3471ZM16.2352 25.7694C17.556 25.9234 18.8359 26.3854 20.708 27.3866L21.8927 28.0166L22.2603 27.7296C22.4645 27.5756 22.6756 27.4286 22.73 27.4075C22.7845 27.3866 23.0704 27.5055 23.3564 27.6806C24.2686 28.2196 25.1604 28.6537 25.2626 28.6046C25.3443 28.5766 25.3579 28.4997 25.3239 28.2476L25.283 27.9256L25.5076 27.9676C25.6234 27.9956 25.9979 28.0306 26.3314 28.0586L26.9373 28.1006L26.2906 28.5277C25.5145 29.0387 24.4728 29.5848 23.5878 29.9348C22.9683 30.1798 22.9411 30.1868 22.8253 30.0608C22.7572 29.9908 22.6415 29.7598 22.5666 29.5498C22.4509 29.2138 22.4304 29.1927 22.4304 29.3818C22.4236 29.5007 22.4713 29.7528 22.5258 29.9418C22.5803 30.1308 22.6279 30.2918 22.6279 30.2988C22.6279 30.3409 20.7489 30.7609 20.143 30.8519C19.1082 31.0129 16.9977 31.0129 15.9288 30.8519C14.3358 30.6138 12.6951 30.1028 11.2927 29.4027C10.5642 29.0387 9.48854 28.3806 9.48854 28.3036C9.48854 28.2406 10.6323 27.4075 11.1701 27.0715C12.2662 26.3994 13.5529 25.9094 14.5604 25.7764C15.2344 25.6924 15.5612 25.6924 16.2352 25.7694Z" fill="#333333"/>
<path d="M10.8712 8.86997C10.8167 9.01693 11.3274 9.54901 11.7698 9.81501C11.9605 9.92709 12.1307 10.018 12.1647 10.018C12.1919 10.018 11.9946 9.73805 11.7222 9.39501C11.2252 8.76493 10.9734 8.61093 10.8712 8.86997Z" fill="#333333"/>
<path d="M22.6631 13.5389C22.4044 13.6369 22.2478 13.7349 22.2341 13.8189C22.2001 14.008 22.4044 14.036 22.84 13.9029C23.3098 13.756 23.4392 13.6369 23.3098 13.4829C23.2009 13.3499 23.16 13.3569 22.6631 13.5389Z" fill="#333333"/>
<path d="M14.0564 13.7214C13.9475 13.9174 13.9611 14.0434 14.1041 14.1694C14.2742 14.3234 14.4104 14.3165 14.5602 14.1484C14.6623 14.0364 14.6759 13.9664 14.6214 13.8124C14.5397 13.5674 14.1653 13.5044 14.0564 13.7214Z" fill="#333333"/>
<path d="M18.1695 13.8405C18.0401 13.9805 18.0606 14.2816 18.2104 14.3796C18.3737 14.4846 18.6597 14.3865 18.7005 14.2045C18.755 14.0085 18.5848 13.7285 18.4078 13.7285C18.3397 13.7285 18.2308 13.7775 18.1695 13.8405Z" fill="#333333"/>
<path d="M23.1719 14.134C22.9881 14.2109 22.8587 14.309 22.8451 14.386C22.7975 14.617 22.9336 14.6661 23.2876 14.533C23.6893 14.379 23.8051 14.281 23.7438 14.1269C23.6893 13.98 23.5667 13.98 23.1719 14.134Z" fill="#333333"/>
<path d="M15.1261 15.0938C14.8946 15.2268 14.6359 15.7869 14.6427 16.1299C14.67 16.676 14.9831 16.921 15.6026 16.858C16.0043 16.816 16.1609 16.718 16.1609 16.522C16.1609 16.403 16.1065 16.389 15.732 16.389C15.4869 16.389 15.269 16.3539 15.2214 16.305C15.058 16.137 15.1805 15.6329 15.4393 15.4158C15.5005 15.3598 15.5481 15.2478 15.5481 15.1568C15.5481 14.9608 15.4052 14.9398 15.1261 15.0938Z" fill="#333333"/>
<path d="M6.08526 13.4414C5.99677 13.6165 6.05803 13.7774 6.22823 13.8334C6.48694 13.9174 6.67075 13.5884 6.48013 13.3924C6.35758 13.2664 6.16696 13.2944 6.08526 13.4414Z" fill="#333333"/>
<path d="M25.3507 19.7487C25.2962 19.7836 25.2145 19.9167 25.1737 20.0427C25.1329 20.1687 25.0512 20.2807 24.9899 20.2947C24.8605 20.3227 24.8401 20.1617 24.9422 19.9517C24.9967 19.8467 24.9899 19.8047 24.915 19.7767C24.7585 19.7136 24.5337 19.8816 24.4929 20.0847C24.4657 20.2387 24.3568 20.3297 24.0096 20.5117C23.4513 20.8127 23.2266 21.1348 23.2266 21.6179C23.2334 22.2269 23.4309 22.5699 23.8461 22.689C24.2342 22.801 24.2614 22.8359 24.3023 23.41L24.35 23.9491H24.1457C23.9347 23.9491 23.6419 23.76 23.4173 23.4731C23.3424 23.375 23.2675 23.333 23.2266 23.375C23.1449 23.459 23.2743 24.2711 23.4105 24.4811C23.5193 24.6562 23.8802 24.7891 24.2478 24.7891C24.4181 24.7891 24.4861 24.8242 24.5269 24.9571C24.6359 25.2512 25.0103 25.2582 24.9558 24.9642C24.915 24.7331 25.0512 24.7402 25.2622 24.9711C25.4529 25.1812 25.6639 25.1672 25.6434 24.9431C25.6298 24.8102 25.6571 24.7891 25.8477 24.7891C26.1132 24.7891 26.3106 24.6001 26.4741 24.2151C26.6306 23.816 26.6034 23.389 26.3855 22.9619C26.2357 22.6609 26.1269 22.5559 25.7728 22.3529C25.3167 22.0939 25.2894 22.0449 25.3916 21.4148L25.4324 21.1558L25.766 21.3308C25.9498 21.4218 26.1405 21.5619 26.1813 21.6388C26.3311 21.8768 26.3719 21.7928 26.3651 21.2678C26.3515 20.4767 26.3242 20.4277 25.9021 20.3577C25.5549 20.2947 25.5413 20.2877 25.5822 20.1127C25.6639 19.7696 25.6571 19.7207 25.5549 19.6996C25.5005 19.6856 25.4052 19.7067 25.3507 19.7487ZM24.9627 21.5479C24.915 22.0169 24.915 22.0169 24.7721 21.9679C24.5746 21.8839 24.6631 21.1488 24.8741 21.1488C24.9831 21.1488 24.9967 21.1978 24.9627 21.5479ZM24.241 21.6528C24.2206 21.7928 24.2138 21.7999 24.1661 21.6879C24.1321 21.6248 24.1321 21.4848 24.1661 21.3728C24.2138 21.1978 24.2206 21.1908 24.241 21.3378C24.2614 21.4288 24.2614 21.5688 24.241 21.6528ZM24.9763 23.123C24.9899 23.172 25.0103 23.382 25.0308 23.578C25.058 23.9281 25.0512 23.9491 24.9014 23.9491C24.7585 23.9491 24.738 23.9141 24.738 23.7111C24.738 23.5851 24.7176 23.375 24.6972 23.256C24.6563 23.067 24.6699 23.039 24.7993 23.039C24.8809 23.039 24.9558 23.081 24.9763 23.123ZM25.6639 23.424C25.7592 23.5711 25.766 23.6411 25.7047 23.774C25.5685 24.0821 25.4188 23.9911 25.4188 23.5991C25.4188 23.214 25.4937 23.158 25.6639 23.424Z" fill="#333333"/>
<path d="M31.0359 22.0383C31.0155 22.1854 30.9475 22.3743 30.8998 22.4514C30.7908 22.6194 30.8249 22.6894 31.0087 22.6894C31.2674 22.6894 31.4716 21.9123 31.2334 21.8213C31.1721 21.8003 31.1176 21.7793 31.104 21.7793C31.0972 21.7793 31.0631 21.8983 31.0359 22.0383Z" fill="#333333"/>
<path d="M27.7063 25.3285C27.4817 25.4265 27.1413 25.5176 26.9371 25.5385C26.6171 25.5736 26.5762 25.5945 26.5762 25.7416C26.5762 25.8536 26.6239 25.9096 26.7668 25.9376C27.0119 25.9936 27.5974 25.8746 27.9378 25.6996C28.1625 25.5805 28.2101 25.5245 28.2101 25.3496C28.2101 25.1045 28.2238 25.1045 27.7063 25.3285Z" fill="#333333"/>
<path d="M25.2754 26.1611C25.078 26.4061 25.5273 26.6651 26.1809 26.6721C26.6166 26.6791 26.8481 26.5811 26.8481 26.3851C26.8481 26.2311 26.8277 26.2241 26.2557 26.2241C25.9222 26.2241 25.5954 26.1821 25.5137 26.1331C25.3912 26.0701 25.3503 26.0701 25.2754 26.1611Z" fill="#333333"/>
<path d="M20.0415 24.4671C19.8509 24.7122 20.1164 25.1182 20.3683 24.9572C20.6066 24.8031 20.518 24.3691 20.2457 24.3691C20.1776 24.3691 20.0891 24.4182 20.0415 24.4671Z" fill="#333333"/>
<path d="M20.8719 25.363C20.7562 25.4821 20.7698 25.6711 20.8991 25.7971C21.0489 25.9581 21.1783 25.9371 21.3008 25.7411C21.3893 25.6081 21.3961 25.5381 21.3348 25.4261C21.2531 25.265 21.0012 25.2301 20.8719 25.363Z" fill="#333333"/>
<path d="M21.6743 26.1478C21.4837 26.3928 21.7492 26.7988 22.001 26.6379C22.2393 26.4838 22.1509 26.0498 21.8785 26.0498C21.8105 26.0498 21.7219 26.0988 21.6743 26.1478Z" fill="#333333"/>
</g>
<path d="M40.7227 10.8051H44.0491C44.6347 10.8051 45.1627 10.8579 45.6331 10.9635C46.1035 11.0691 46.5067 11.2419 46.8427 11.4819C47.1787 11.7219 47.4379 12.0291 47.6203 12.4035C47.8027 12.7779 47.8939 13.2291 47.8939 13.7571C47.8939 14.3235 47.7883 14.7987 47.5771 15.1827C47.3659 15.5667 47.0779 15.8787 46.7131 16.1187C46.3579 16.3491 45.9403 16.5171 45.4603 16.6227C44.9803 16.7283 44.4715 16.7811 43.9339 16.7811H42.5371V21.0003H40.7227V10.8051ZM43.8043 15.2547C44.1019 15.2547 44.3851 15.2355 44.6539 15.1971C44.9227 15.1491 45.1627 15.0723 45.3739 14.9667C45.5851 14.8515 45.7531 14.6979 45.8779 14.5059C46.0027 14.3139 46.0651 14.0643 46.0651 13.7571C46.0651 13.4595 46.0027 13.2195 45.8779 13.0371C45.7531 12.8451 45.5851 12.6963 45.3739 12.5907C45.1723 12.4851 44.9371 12.4179 44.6683 12.3891C44.4091 12.3507 44.1403 12.3315 43.8619 12.3315H42.5371V15.2547H43.8043ZM51.8507 10.8051H53.4203L57.8123 21.0003H55.7387L54.7883 18.6675H50.3675L49.4459 21.0003H47.4155L51.8507 10.8051ZM54.1547 17.1123L52.5851 12.9651L50.9867 17.1123H54.1547ZM60.4257 16.5795L56.5953 10.8051H58.8129L61.3761 15.0963L63.9681 10.8051H66.0705L62.2401 16.5795V21.0003H60.4257V16.5795ZM66.9211 10.8051H70.2475C70.8331 10.8051 71.3611 10.8579 71.8315 10.9635C72.3019 11.0691 72.7051 11.2419 73.0411 11.4819C73.3771 11.7219 73.6363 12.0291 73.8187 12.4035C74.0011 12.7779 74.0923 13.2291 74.0923 13.7571C74.0923 14.3235 73.9867 14.7987 73.7755 15.1827C73.5643 15.5667 73.2763 15.8787 72.9115 16.1187C72.5563 16.3491 72.1387 16.5171 71.6587 16.6227C71.1787 16.7283 70.6699 16.7811 70.1323 16.7811H68.7355V21.0003H66.9211V10.8051ZM70.0027 15.2547C70.3003 15.2547 70.5835 15.2355 70.8523 15.1971C71.1211 15.1491 71.3611 15.0723 71.5723 14.9667C71.7835 14.8515 71.9515 14.6979 72.0763 14.5059C72.2011 14.3139 72.2635 14.0643 72.2635 13.7571C72.2635 13.4595 72.2011 13.2195 72.0763 13.0371C71.9515 12.8451 71.7835 12.6963 71.5723 12.5907C71.3707 12.4851 71.1355 12.4179 70.8667 12.3891C70.6075 12.3507 70.3387 12.3315 70.0603 12.3315H68.7355V15.2547H70.0027ZM78.0491 10.8051H79.6187L84.0107 21.0003H81.9371L80.9867 18.6675H76.5659L75.6443 21.0003H73.6139L78.0491 10.8051ZM80.3531 17.1123L78.7835 12.9651L77.1851 17.1123H80.3531ZM85.0195 10.8051H86.8339V19.3875H91.1683V21.0003H85.0195V10.8051ZM93.5995 16.5795L89.7691 10.8051H91.9867L94.5499 15.0963L97.1419 10.8051H99.2443L95.4139 16.5795V21.0003H93.5995V16.5795ZM107.045 13.1955C106.776 12.8307 106.426 12.5667 105.994 12.4035C105.562 12.2307 105.139 12.1443 104.727 12.1443C104.199 12.1443 103.719 12.2403 103.287 12.4323C102.855 12.6243 102.48 12.8883 102.163 13.2243C101.856 13.5603 101.616 13.9539 101.443 14.4051C101.28 14.8563 101.199 15.3459 101.199 15.8739C101.199 16.4307 101.28 16.9395 101.443 17.4003C101.607 17.8611 101.837 18.2595 102.135 18.5955C102.442 18.9219 102.807 19.1763 103.229 19.3587C103.651 19.5411 104.127 19.6323 104.655 19.6323C105.202 19.6323 105.687 19.5267 106.109 19.3155C106.531 19.0947 106.872 18.8067 107.131 18.4515L108.586 19.4739C108.135 20.0403 107.583 20.4819 106.93 20.7987C106.277 21.1059 105.514 21.2595 104.64 21.2595C103.843 21.2595 103.109 21.1299 102.437 20.8707C101.775 20.6019 101.203 20.2323 100.723 19.7619C100.243 19.2819 99.8691 18.7155 99.6003 18.0627C99.3315 17.4003 99.1971 16.6707 99.1971 15.8739C99.1971 15.0579 99.3363 14.3235 99.6147 13.6707C99.9027 13.0083 100.291 12.4467 100.781 11.9859C101.28 11.5251 101.866 11.1699 102.538 10.9203C103.21 10.6707 103.939 10.5459 104.727 10.5459C105.053 10.5459 105.394 10.5795 105.749 10.6467C106.104 10.7043 106.445 10.8003 106.771 10.9347C107.098 11.0595 107.405 11.2179 107.693 11.4099C107.981 11.6019 108.226 11.8323 108.427 12.1011L107.045 13.1955ZM109.713 10.8051H111.527V14.9235H116.294V10.8051H118.108V21.0003H116.294V16.4787H111.527V21.0003H109.713V10.8051Z" fill="white"/>
</svg>
