<svg width="107" height="32" viewBox="0 0 107 32" fill="none" xmlns="http://www.w3.org/2000/svg">
<g clip-path="url(#clip0_2311_2875)">
<path d="M8.13541 31.8406V29.7226C8.13541 28.9107 7.63119 28.3812 6.76682 28.3812C6.33463 28.3812 5.86642 28.5224 5.54228 28.9813C5.29017 28.593 4.93001 28.3812 4.38977 28.3812C4.02962 28.3812 3.66946 28.4871 3.38133 28.8754V28.4518H2.625V31.8406H3.38133V29.9697C3.38133 29.3696 3.70547 29.0872 4.20969 29.0872C4.71392 29.0872 4.96603 29.4049 4.96603 29.9697V31.8406H5.72236V29.9697C5.72236 29.3696 6.08252 29.0872 6.55072 29.0872C7.05494 29.0872 7.30705 29.4049 7.30705 29.9697V31.8406H8.13541ZM19.3363 28.4518H18.1118V27.4281H17.3555V28.4518H16.6712V29.1225H17.3555V30.6757C17.3555 31.4523 17.6796 31.9112 18.544 31.9112C18.8681 31.9112 19.2283 31.8053 19.4804 31.6641L19.2643 31.0287C19.0482 31.1699 18.7961 31.2052 18.616 31.2052C18.2558 31.2052 18.1118 30.9934 18.1118 30.6404V29.1225H19.3363V28.4518ZM25.7471 28.3812C25.3149 28.3812 25.0268 28.593 24.8467 28.8754V28.4518H24.0904V31.8406H24.8467V29.9344C24.8467 29.3696 25.0988 29.0519 25.5671 29.0519C25.7111 29.0519 25.8912 29.0872 26.0353 29.1225L26.2514 28.4165C26.1073 28.3812 25.8912 28.3812 25.7471 28.3812ZM16.0589 28.7342C15.6987 28.4871 15.1945 28.3812 14.6543 28.3812C13.7899 28.3812 13.2136 28.8048 13.2136 29.4755C13.2136 30.0403 13.6458 30.358 14.4022 30.4639L14.7623 30.4992C15.1585 30.5698 15.3746 30.6757 15.3746 30.8522C15.3746 31.0993 15.0865 31.2758 14.5822 31.2758C14.078 31.2758 13.6818 31.0993 13.4297 30.9228L13.0696 31.4876C13.4658 31.77 14.006 31.9112 14.5462 31.9112C15.5547 31.9112 16.1309 31.4523 16.1309 30.8169C16.1309 30.2168 15.6627 29.8991 14.9424 29.7932L14.5822 29.7579C14.2581 29.7226 14.006 29.652 14.006 29.4402C14.006 29.1931 14.2581 29.0519 14.6543 29.0519C15.0865 29.0519 15.5186 29.2284 15.7347 29.3343L16.0589 28.7342ZM36.1557 28.3812C35.7235 28.3812 35.4354 28.593 35.2553 28.8754V28.4518H34.499V31.8406H35.2553V29.9344C35.2553 29.3696 35.5074 29.0519 35.9756 29.0519C36.1197 29.0519 36.2998 29.0872 36.4438 29.1225L36.6599 28.4165C36.5159 28.3812 36.2998 28.3812 36.1557 28.3812ZM26.5035 30.1462C26.5035 31.1699 27.2238 31.9112 28.3403 31.9112C28.8445 31.9112 29.2046 31.8053 29.5648 31.5229L29.2046 30.9228C28.9165 31.1346 28.6284 31.2405 28.3043 31.2405C27.692 31.2405 27.2598 30.8169 27.2598 30.1462C27.2598 29.5108 27.692 29.0872 28.3043 29.0519C28.6284 29.0519 28.9165 29.1578 29.2046 29.3696L29.5648 28.7695C29.2046 28.4871 28.8445 28.3812 28.3403 28.3812C27.2238 28.3812 26.5035 29.1225 26.5035 30.1462ZM33.4905 30.1462V28.4518H32.7342V28.8754C32.4821 28.5577 32.1219 28.3812 31.6537 28.3812C30.6813 28.3812 29.925 29.1225 29.925 30.1462C29.925 31.1699 30.6813 31.9112 31.6537 31.9112C32.1579 31.9112 32.5181 31.7347 32.7342 31.417V31.8406H33.4905V30.1462ZM30.7173 30.1462C30.7173 29.5461 31.1135 29.0519 31.7618 29.0519C32.374 29.0519 32.8062 29.5108 32.8062 30.1462C32.8062 30.7463 32.374 31.2405 31.7618 31.2405C31.1135 31.2052 30.7173 30.7463 30.7173 30.1462ZM21.6773 28.3812C20.6689 28.3812 19.9486 29.0872 19.9486 30.1462C19.9486 31.2052 20.6689 31.9112 21.7134 31.9112C22.2176 31.9112 22.7218 31.77 23.118 31.4523L22.7578 30.9228C22.4697 31.1346 22.1095 31.2758 21.7494 31.2758C21.2812 31.2758 20.813 31.064 20.7049 30.4639H23.262V30.1815C23.2981 29.0872 22.6498 28.3812 21.6773 28.3812ZM21.6773 29.0166C22.1456 29.0166 22.4697 29.299 22.5417 29.8285H20.7409C20.813 29.3696 21.1371 29.0166 21.6773 29.0166ZM40.4416 30.1462V27.1104H39.6852V28.8754C39.4331 28.5577 39.073 28.3812 38.6048 28.3812C37.6323 28.3812 36.876 29.1225 36.876 30.1462C36.876 31.1699 37.6323 31.9112 38.6048 31.9112C39.109 31.9112 39.4691 31.7347 39.6852 31.417V31.8406H40.4416V30.1462ZM37.6684 30.1462C37.6684 29.5461 38.0645 29.0519 38.7128 29.0519C39.3251 29.0519 39.7573 29.5108 39.7573 30.1462C39.7573 30.7463 39.3251 31.2405 38.7128 31.2405C38.0645 31.2052 37.6684 30.7463 37.6684 30.1462ZM12.3853 30.1462V28.4518H11.6289V28.8754C11.3768 28.5577 11.0167 28.3812 10.5485 28.3812C9.57605 28.3812 8.81971 29.1225 8.81971 30.1462C8.81971 31.1699 9.57605 31.9112 10.5485 31.9112C11.0527 31.9112 11.4129 31.7347 11.6289 31.417V31.8406H12.3853V30.1462ZM9.57605 30.1462C9.57605 29.5461 9.97222 29.0519 10.6205 29.0519C11.2328 29.0519 11.665 29.5108 11.665 30.1462C11.665 30.7463 11.2328 31.2405 10.6205 31.2405C9.97222 31.2052 9.57605 30.7463 9.57605 30.1462Z" fill="white"/>
<path d="M27.1516 2.71777H15.8066V22.6978H27.1516V2.71777Z" fill="#FF5F00"/>
<path d="M16.527 12.7082C16.527 8.64861 18.4719 5.04797 21.4612 2.71814C19.2642 1.02371 16.491 0 13.4657 0C6.29854 0 0.5 5.68337 0.5 12.7082C0.5 19.733 6.29854 25.4163 13.4657 25.4163C16.491 25.4163 19.2642 24.3926 21.4612 22.6982C18.4719 20.4037 16.527 16.7677 16.527 12.7082Z" fill="#EB001B"/>
<path d="M42.4583 12.7082C42.4583 19.733 36.6597 25.4163 29.4926 25.4163C26.4673 25.4163 23.694 24.3926 21.4971 22.6982C24.5224 20.3684 26.4312 16.7677 26.4312 12.7082C26.4312 8.64861 24.4864 5.04797 21.4971 2.71814C23.694 1.02371 26.4673 0 29.4926 0C36.6597 0 42.4583 5.71868 42.4583 12.7082Z" fill="#F79E1B"/>
</g>
<g clip-path="url(#clip1_2311_2875)">
<path d="M76.4507 23.9183H72.3304L74.9056 8.09236H79.0263L76.4507 23.9183ZM68.8642 8.09236L64.936 18.9775L64.4712 16.6335L64.4716 16.6344L63.0852 9.5173C63.0852 9.5173 62.9176 8.09236 61.1307 8.09236H54.6367L54.5605 8.36033C54.5605 8.36033 56.5464 8.7735 58.8705 10.1692L62.4502 23.9187H66.7433L73.2986 8.09236H68.8642ZM101.273 23.9183H105.056L101.757 8.09193H98.4451C96.9156 8.09193 96.543 9.27134 96.543 9.27134L90.3979 23.9183H94.6931L95.552 21.5675H100.79L101.273 23.9183ZM96.7386 18.3201L98.9035 12.3977L100.121 18.3201H96.7386ZM90.7201 11.8981L91.3081 8.4996C91.3081 8.4996 89.4937 7.80957 87.6022 7.80957C85.5575 7.80957 80.7019 8.70323 80.7019 13.0488C80.7019 17.1373 86.4008 17.1881 86.4008 19.3357C86.4008 21.4833 81.289 21.0985 79.602 19.7442L78.9895 23.2977C78.9895 23.2977 80.8293 24.1913 83.6402 24.1913C86.452 24.1913 90.6938 22.7355 90.6938 18.7731C90.6938 14.6583 84.9437 14.2752 84.9437 12.4861C84.9441 10.6967 88.9569 10.9266 90.7201 11.8981Z" fill="#2566AF"/>
<path d="M64.4716 16.6338L63.0852 9.51674C63.0852 9.51674 62.9176 8.0918 61.1307 8.0918H54.6367L54.5605 8.35977C54.5605 8.35977 57.6818 9.00662 60.6756 11.4302C63.5382 13.7467 64.4716 16.6338 64.4716 16.6338Z" fill="#E6A540"/>
</g>
<defs>
<clipPath id="clip0_2311_2875">
<rect width="42" height="32" fill="white" transform="translate(0.5)"/>
</clipPath>
<clipPath id="clip1_2311_2875">
<rect width="52" height="16" fill="white" transform="translate(54.5 8)"/>
</clipPath>
</defs>
</svg>
