<svg width="126" height="32" viewBox="0 0 126 32" fill="none" xmlns="http://www.w3.org/2000/svg">
<g clip-path="url(#clip0_4002_3003)">
<path d="M16 0C11.7575 0 7.685 1.68675 4.6875 4.68625C1.6875 7.68575 0 11.7583 0 16C0 20.2417 1.6875 24.3142 4.6875 27.3137C7.685 30.3132 11.7575 32 16 32C20.2425 32 24.315 30.3132 27.3125 27.3137C30.3125 24.3142 32 20.2417 32 16C32 11.7583 30.3125 7.68575 27.3125 4.68625C24.315 1.68675 20.2425 0 16 0Z" fill="url(#paint0_linear_4002_3003)"/>
<path d="M7.24317 15.8319C11.9082 13.7999 15.0181 12.4602 16.5731 11.8129C21.0181 9.96467 21.9406 9.64367 22.5431 9.63292C22.6756 9.63067 22.9706 9.66342 23.1631 9.81917C23.3231 9.95042 23.3681 10.1279 23.3906 10.2524C23.4106 10.3769 23.4382 10.6607 23.4157 10.8822C23.1757 13.4122 22.1332 19.5517 21.6032 22.3854C21.3807 23.5845 20.9381 23.9865 20.5106 24.0257C19.5806 24.1112 18.8756 23.4117 17.9756 22.8219C16.5681 21.8987 15.7731 21.3242 14.4056 20.4234C12.8256 19.3824 13.8506 18.8102 14.7506 17.8752C14.9856 17.6304 19.0806 13.9067 19.1581 13.5689C19.1681 13.5267 19.1781 13.3692 19.0831 13.2862C18.9906 13.2029 18.8531 13.2314 18.7531 13.2539C18.6106 13.2859 16.3631 14.7729 12.0031 17.7147C11.3656 18.1532 10.7881 18.3669 10.2681 18.3557C9.69808 18.3434 8.59815 18.0327 7.78065 17.7672C6.78065 17.4414 5.98311 17.2692 6.05311 16.7159C6.08811 16.4279 6.48567 16.1332 7.24317 15.8319Z" fill="white"/>
</g>
<path d="M44.234 6.656H53.334V10.66H50.916V26H46.652V10.66H44.234V6.656ZM54.0403 6.656H62.0743V10.66H58.2783V13.962H61.3203V18.07H58.2783V21.918H62.2303V26H54.0403V6.656ZM62.927 6.656H67.217V21.892H70.727V26H62.927V6.656ZM71.4328 6.656H79.4668V10.66H75.6708V13.962H78.7128V18.07H75.6708V21.918H79.6228V26H71.4328V6.656ZM83.988 26.26H83.78C81.362 26.26 80.166 24.232 80.166 21.866V11.31C80.166 8.71 81.362 6.396 84.898 6.396H85.626C89.396 6.396 90.28 8.71 90.28 11.05V13.286H86.12V11.102C86.12 10.478 85.964 10.088 85.34 10.088C84.846 10.088 84.612 10.426 84.612 11.102V21.476C84.612 22.23 84.898 22.594 85.47 22.594C86.068 22.594 86.354 22.23 86.354 21.502V17.914H85.158V14.352H90.462V26H87.68C87.628 25.61 87.368 24.622 87.16 24.206C86.666 25.038 85.73 26.26 83.988 26.26ZM95.6037 9.984V14.43H96.1497C96.6957 14.43 96.9297 14.196 96.9297 13.494V10.894C96.9297 10.192 96.8257 9.984 96.2277 9.984H95.6037ZM95.6037 18.07V26H91.3137V6.656H98.0477C99.9457 6.656 101.246 7.774 101.246 10.062V12.61C101.246 14.404 100.31 15.21 99.5557 15.548C100.284 15.834 101.246 16.64 101.246 18.07V24.466C101.246 25.194 101.376 25.584 101.506 25.87V26H97.2677C97.0857 25.766 96.9297 25.324 96.9297 24.622V19.006C96.9297 18.356 96.7997 18.07 96.2017 18.07H95.6037ZM108.054 26L107.742 23.166H105.766L105.48 26H101.762L104.232 6.656H109.51L112.214 26H108.054ZM106.754 13.468L106.156 19.344H107.352L106.754 13.468ZM112.616 26V6.656H117.738L118.804 15.704L119.922 6.656H124.758V26H121.066V15.444L119.428 26H117.894L116.256 15.444V26H112.616Z" fill="white"/>
<defs>
<linearGradient id="paint0_linear_4002_3003" x1="16" y1="0" x2="16" y2="32" gradientUnits="userSpaceOnUse">
<stop stop-color="#2AABEE"/>
<stop offset="1" stop-color="#229ED9"/>
</linearGradient>
<clipPath id="clip0_4002_3003">
<rect width="32" height="32" fill="white"/>
</clipPath>
</defs>
</svg>
