<svg width="176" height="28" viewBox="0 0 176 28" fill="none" xmlns="http://www.w3.org/2000/svg">
<g clip-path="url(#clip0_2608_3495)">
<path d="M54.2233 8.21875C56.0624 8.21875 57.5903 8.6651 58.8069 9.55781C60.0235 10.4505 60.8441 11.6611 61.2685 13.1895H58.7007C58.3472 12.3239 57.7813 11.6408 57.0032 11.1404C56.2392 10.6264 55.2985 10.3694 54.1808 10.3694C53.2895 10.3694 52.4903 10.579 51.783 10.9983C51.0898 11.4176 50.538 12.0195 50.1278 12.804C49.7316 13.575 49.5337 14.4812 49.5337 15.5227C49.5337 16.5507 49.7316 17.4569 50.1278 18.2415C50.538 19.0124 51.0898 19.6076 51.783 20.0269C52.4903 20.4462 53.2895 20.6558 54.1808 20.6558C55.2985 20.6558 56.2392 20.4056 57.0032 19.9051C57.7813 19.3911 58.3472 18.7081 58.7007 17.856H61.2685C60.8441 19.3844 60.0235 20.5949 58.8069 21.4876C57.5903 22.3668 56.0624 22.8064 54.2233 22.8064C52.8086 22.8064 51.5567 22.5021 50.4673 21.8934C49.3779 21.2713 48.5364 20.4124 47.9421 19.3167C47.3479 18.2076 47.0508 16.943 47.0508 15.5227C47.0508 14.1025 47.3479 12.8446 47.9421 11.749C48.5364 10.6399 49.3779 9.77424 50.4673 9.15204C51.5567 8.52985 52.8086 8.21875 54.2233 8.21875Z" fill="white"/>
<path d="M65.4641 13.697C65.8601 12.9666 66.4261 12.3918 67.1616 11.9725C67.8973 11.5396 68.7461 11.3232 69.7082 11.3232V13.8391H68.9867C67.9257 13.8391 67.0697 14.0893 66.4189 14.5897C65.7824 15.0767 65.4641 15.8882 65.4641 17.0244V22.685H63.0449V11.5058H65.4641V13.697Z" fill="white"/>
<path d="M73.6322 11.5059L77.1336 19.7228L80.3804 11.5059H83.0754L76.0089 28.0007H73.314L75.8391 22.4213L70.916 11.5059H73.6322Z" fill="white"/>
<path d="M90.7349 11.3633C91.7536 11.3633 92.6589 11.5932 93.4511 12.0531C94.2575 12.513 94.8872 13.1757 95.3397 14.0414C95.7924 14.9071 96.0189 15.9215 96.0189 17.0847C96.0189 18.2616 95.7924 19.2827 95.3397 20.1484C94.8872 21.014 94.2575 21.6769 93.4511 22.1366C92.6589 22.5965 91.7536 22.8264 90.7349 22.8264C89.6739 22.8264 88.7686 22.5762 88.0188 22.0759C87.2691 21.5754 86.7456 20.9126 86.4485 20.0875V28.0001H84.0293V11.5053H86.4485V14.1023C86.7456 13.2772 87.2691 12.6144 88.0188 12.114C88.7686 11.6135 89.6739 11.3633 90.7349 11.3633ZM89.9922 13.3922C89.3132 13.3922 88.7049 13.5477 88.1673 13.8588C87.6297 14.1564 87.2054 14.5892 86.894 15.1573C86.5829 15.7119 86.4273 16.3543 86.4273 17.0847C86.4273 17.8286 86.5829 18.4779 86.894 19.0324C87.2054 19.587 87.6297 20.0198 88.1673 20.3309C88.7049 20.6284 89.3132 20.7774 89.9922 20.7774C91.0674 20.7774 91.9304 20.4527 92.5812 19.8035C93.2318 19.1406 93.5573 18.2344 93.5573 17.0847C93.5573 15.9486 93.2318 15.0491 92.5812 14.3863C91.9304 13.7235 91.0674 13.3922 89.9922 13.3922Z" fill="white"/>
<path d="M103.59 20.6765V22.6851H102.105C100.86 22.6851 99.9118 22.4011 99.2612 21.8329C98.6245 21.2513 98.3062 20.2909 98.3062 18.9518V13.4739H96.6299V11.5059H98.3062V8.14551H100.747V11.5059H103.569V13.4739H100.747V18.9924C100.747 19.6282 100.867 20.0678 101.107 20.3112C101.362 20.5547 101.8 20.6765 102.423 20.6765H103.59Z" fill="white"/>
<path d="M110.568 11.3633C111.699 11.3633 112.718 11.5932 113.623 12.0531C114.529 12.513 115.236 13.1757 115.745 14.0414C116.255 14.9071 116.509 15.9215 116.509 17.0847C116.509 18.2616 116.255 19.2827 115.745 20.1484C115.236 21.014 114.529 21.6769 113.623 22.1366C112.718 22.5965 111.699 22.8264 110.568 22.8264C109.436 22.8264 108.417 22.5965 107.512 22.1366C106.621 21.6769 105.913 21.014 105.39 20.1484C104.881 19.2692 104.626 18.2479 104.626 17.0847C104.626 15.9215 104.881 14.9071 105.39 14.0414C105.913 13.1757 106.621 12.513 107.512 12.0531C108.417 11.5932 109.436 11.3633 110.568 11.3633ZM110.568 13.3719C109.945 13.3719 109.372 13.5071 108.849 13.7777C108.325 14.0482 107.901 14.4675 107.575 15.0356C107.264 15.5901 107.109 16.2732 107.109 17.0847C107.109 17.9098 107.264 18.5997 107.575 19.1542C107.901 19.7088 108.325 20.1213 108.849 20.3918C109.372 20.6624 109.945 20.7977 110.568 20.7977C111.19 20.7977 111.763 20.6624 112.286 20.3918C112.81 20.1213 113.227 19.7088 113.538 19.1542C113.864 18.5997 114.026 17.9098 114.026 17.0847C114.026 16.2732 113.864 15.5901 113.538 15.0356C113.227 14.4675 112.81 14.0482 112.286 13.7777C111.763 13.5071 111.19 13.3719 110.568 13.3719Z" fill="white"/>
<path d="M124.882 8.21875C126.721 8.21875 128.249 8.6651 129.466 9.55781C130.683 10.4505 131.503 11.6611 131.927 13.1895H129.36C129.006 12.3239 128.44 11.6408 127.662 11.1404C126.898 10.6264 125.958 10.3694 124.84 10.3694C123.949 10.3694 123.149 10.579 122.442 10.9983C121.749 11.4176 121.197 12.0195 120.787 12.804C120.391 13.575 120.193 14.4812 120.193 15.5227C120.193 16.5507 120.391 17.4569 120.787 18.2415C121.197 19.0124 121.749 19.6076 122.442 20.0269C123.149 20.4462 123.949 20.6558 124.84 20.6558C125.958 20.6558 126.898 20.4056 127.662 19.9051C128.44 19.3911 129.006 18.7081 129.36 17.856H131.927C131.503 19.3844 130.683 20.5949 129.466 21.4876C128.249 22.3668 126.721 22.8064 124.882 22.8064C123.468 22.8064 122.216 22.5021 121.126 21.8934C120.037 21.2713 119.195 20.4124 118.601 19.3167C118.007 18.2076 117.71 16.943 117.71 15.5227C117.71 14.1025 118.007 12.8446 118.601 11.749C119.195 10.6399 120.037 9.77424 121.126 9.15204C122.216 8.52985 123.468 8.21875 124.882 8.21875Z" fill="white"/>
<path d="M136.124 8.25195V22.6849H133.705V8.25195H136.124Z" fill="white"/>
<path d="M143.762 11.3633C144.894 11.3633 145.912 11.5932 146.818 12.0531C147.723 12.513 148.431 13.1757 148.94 14.0414C149.449 14.9071 149.704 15.9215 149.704 17.0847C149.704 18.2616 149.449 19.2827 148.94 20.1484C148.431 21.014 147.723 21.6769 146.818 22.1366C145.912 22.5965 144.894 22.8264 143.762 22.8264C142.63 22.8264 141.612 22.5965 140.706 22.1366C139.815 21.6769 139.108 21.014 138.584 20.1484C138.075 19.2692 137.82 18.2479 137.82 17.0847C137.82 15.9215 138.075 14.9071 138.584 14.0414C139.108 13.1757 139.815 12.513 140.706 12.0531C141.612 11.5932 142.63 11.3633 143.762 11.3633ZM143.762 13.3719C143.14 13.3719 142.567 13.5071 142.043 13.7777C141.52 14.0482 141.095 14.4675 140.77 15.0356C140.459 15.5901 140.303 16.2732 140.303 17.0847C140.303 17.9098 140.459 18.5997 140.77 19.1542C141.095 19.7088 141.52 20.1213 142.043 20.3918C142.567 20.6624 143.14 20.7977 143.762 20.7977C144.385 20.7977 144.958 20.6624 145.481 20.3918C146.004 20.1213 146.422 19.7088 146.733 19.1542C147.058 18.5997 147.221 17.9098 147.221 17.0847C147.221 16.2732 147.058 15.5901 146.733 15.0356C146.422 14.4675 146.004 14.0482 145.481 13.7777C144.958 13.5071 144.385 13.3719 143.762 13.3719Z" fill="white"/>
<path d="M162.173 11.5059V22.6851H159.733V20.2503C159.436 21.0754 158.919 21.7178 158.184 22.1777C157.448 22.6242 156.592 22.8473 155.616 22.8473C154.258 22.8473 153.169 22.428 152.348 21.5894C151.527 20.7508 151.117 19.5538 151.117 17.9982V11.5059H153.536V17.7548C153.536 18.7693 153.805 19.5538 154.343 20.1084C154.88 20.6493 155.616 20.9198 156.55 20.9198C157.512 20.9198 158.283 20.6223 158.863 20.0272C159.443 19.432 159.733 18.5664 159.733 17.4302V11.5059H162.173Z" fill="white"/>
<path d="M169.124 11.3637C170.185 11.3637 171.09 11.6139 171.84 12.1144C172.59 12.6148 173.113 13.2776 173.41 14.1027V8.25195H175.85V22.6849H173.41V20.0879C173.113 20.913 172.59 21.5758 171.84 22.0763C171.09 22.5766 170.185 22.8268 169.124 22.8268C168.105 22.8268 167.192 22.5969 166.386 22.137C165.594 21.6773 164.972 21.0144 164.519 20.1488C164.066 19.2831 163.84 18.262 163.84 17.0851C163.84 15.9219 164.066 14.9075 164.519 14.0418C164.972 13.1761 165.594 12.5134 166.386 12.0535C167.192 11.5936 168.105 11.3637 169.124 11.3637ZM169.866 13.3926C168.791 13.3926 167.928 13.7239 167.277 14.3867C166.641 15.036 166.323 15.9354 166.323 17.0851C166.323 18.2348 166.641 19.141 167.277 19.8039C167.928 20.4531 168.791 20.7778 169.866 20.7778C170.545 20.7778 171.154 20.6288 171.691 20.3313C172.229 20.0202 172.653 19.5874 172.965 19.0328C173.276 18.4783 173.431 17.829 173.431 17.0851C173.431 16.3547 173.276 15.7123 172.965 15.1577C172.653 14.5896 172.229 14.1568 171.691 13.8592C171.154 13.5481 170.545 13.3926 169.866 13.3926Z" fill="white"/>
<path d="M25.5287 10.8606C25.5287 14.6648 22.3215 17.7488 18.3651 17.7488C15.7831 17.7488 13.5202 16.4353 12.2595 14.4654C11.927 15.8784 10.6512 16.9534 9.09244 17.0634C11.1332 19.8789 14.5254 21.7211 18.3651 21.7211C24.603 21.7211 29.6599 16.8587 29.6599 10.8606C29.6599 4.86245 24.603 0 18.3651 0C12.1335 0 7.08055 4.85259 7.07031 10.8424C7.58744 10.5583 8.18784 10.3957 8.82824 10.3957C9.74939 10.3957 10.5878 10.7321 11.2147 11.2825C11.2059 11.143 11.2015 11.0023 11.2015 10.8606C11.2015 7.05632 14.4087 3.97236 18.3651 3.97236C22.3215 3.97236 25.5287 7.05632 25.5287 10.8606Z" fill="url(#paint0_linear_2608_3495)"/>
<path d="M25.5287 10.8606C25.5287 14.6648 22.3215 17.7488 18.3651 17.7488C15.7831 17.7488 13.5202 16.4353 12.2595 14.4654C11.927 15.8784 10.6512 16.9534 9.09244 17.0634C11.1332 19.8789 14.5254 21.7211 18.3651 21.7211C24.603 21.7211 29.6599 16.8587 29.6599 10.8606C29.6599 4.86245 24.603 0 18.3651 0C12.1335 0 7.08055 4.85259 7.07031 10.8424C7.58744 10.5583 8.18784 10.3957 8.82824 10.3957C9.74939 10.3957 10.5878 10.7321 11.2147 11.2825C11.2059 11.143 11.2015 11.0023 11.2015 10.8606C11.2015 7.05632 14.4087 3.97236 18.3651 3.97236C22.3215 3.97236 25.5287 7.05632 25.5287 10.8606Z" fill="white"/>
<path fill-rule="evenodd" clip-rule="evenodd" d="M32.6483 22.1448C36.7301 22.1222 40.0319 18.9333 40.0319 15.0031C40.0319 11.0588 36.7065 7.86133 32.6045 7.86133C29.2193 7.86133 26.0123 10.6082 25.1772 12.9747C24.3422 15.3412 22.6465 16.6541 20.8263 17.3274C20.8296 17.337 20.8331 17.3466 20.8366 17.3563C18.9869 17.9096 17.9199 17.8651 16.043 17.3273H8.82812V22.1448H32.5732C32.5837 22.1449 32.5942 22.1449 32.6045 22.1449C32.6148 22.1449 32.625 22.1449 32.6353 22.1448H32.6483ZM35.9885 15.0034C35.9885 16.8005 34.4733 18.2573 32.6045 18.2573C30.7355 18.2573 29.2204 16.8005 29.2204 15.0034C29.2204 13.2063 30.7355 11.7495 32.6045 11.7495C34.4733 11.7495 35.9885 13.2063 35.9885 15.0034Z" fill="white"/>
<path d="M8.85972 5.37402C7.13718 5.37402 5.45331 5.86577 4.02108 6.78711C2.58884 7.70844 1.47254 9.01796 0.813352 10.5501C0.154164 12.0822 -0.0183092 13.7681 0.317742 15.3946C0.653794 17.0211 1.48328 18.5151 2.7013 19.6878C3.91931 20.8603 5.47118 21.659 7.16061 21.9824C8.85006 22.306 10.6012 22.1399 12.1926 21.5054C13.7841 20.8706 15.1443 19.7959 16.1013 18.4171C17.0583 17.0383 17.569 15.4172 17.569 13.7588C17.569 12.6577 17.3438 11.5674 16.9061 10.5501C16.4684 9.53279 15.8269 8.60846 15.0181 7.82987C14.2094 7.05126 13.2493 6.43365 12.1926 6.01227C11.136 5.5909 10.0035 5.37402 8.85972 5.37402ZM8.85972 17.0051C8.19281 17.0051 7.54089 16.8147 6.98638 16.458C6.43186 16.1013 5.99968 15.5943 5.74446 15.0011C5.48924 14.4079 5.42248 13.7552 5.55257 13.1255C5.68268 12.4958 6.00383 11.9173 6.4754 11.4633C6.94697 11.0093 7.5478 10.7001 8.2019 10.5749C8.85598 10.4496 9.53396 10.5139 10.1501 10.7596C10.7662 11.0053 11.2929 11.4214 11.6634 11.9552C12.0339 12.4891 12.2317 13.1167 12.2317 13.7588C12.2322 14.1854 12.1454 14.608 11.9762 15.0023C11.807 15.3967 11.5587 15.755 11.2455 16.0569C10.9324 16.3588 10.5605 16.5983 10.1511 16.7617C9.7417 16.9251 9.30289 17.0092 8.85972 17.0092V17.0051Z" fill="white"/>
<path d="M32.4394 3.54411C33.4297 3.54411 34.2324 2.77128 34.2324 1.81795C34.2324 0.864623 33.4297 0.0917969 32.4394 0.0917969C31.4492 0.0917969 30.6465 0.864623 30.6465 1.81795C30.6465 2.77128 31.4492 3.54411 32.4394 3.54411Z" fill="white"/>
</g>
<defs>
<linearGradient id="paint0_linear_2608_3495" x1="14.7173" y1="-3.08492" x2="28.1682" y2="11.4299" gradientUnits="userSpaceOnUse">
<stop stop-color="#3C3C3C"/>
<stop offset="1" stop-color="#3C3C3C"/>
</linearGradient>
<clipPath id="clip0_2608_3495">
<rect width="175.875" height="28" fill="white" transform="translate(0.0625)"/>
</clipPath>
</defs>
</svg>
