<svg width="91" height="24" viewBox="0 0 91 24" fill="none" xmlns="http://www.w3.org/2000/svg">
<path d="M29.3499 4.7998C29.1636 4.7998 29.0054 4.93506 28.9762 5.11923L26.8197 18.7956C26.8118 18.8456 26.8149 18.8966 26.8287 18.9453C26.8425 18.9939 26.8666 19.039 26.8995 19.0774C26.9324 19.1159 26.9731 19.1467 27.0191 19.1679C27.065 19.1891 27.115 19.2 27.1655 19.2H29.7231C29.9091 19.2 30.0676 19.0645 30.0968 18.8806L30.7302 14.8644C30.7591 14.6805 30.9176 14.545 31.1039 14.545H33.4292C36.146 14.545 38.4523 12.5627 38.8735 9.87662C39.2983 7.16781 37.1821 4.80569 34.1827 4.7998H29.3499ZM31.8361 7.8529H33.6965C35.2281 7.8529 35.7269 8.75664 35.5692 9.75607C35.4115 10.7576 34.6368 11.4954 33.1552 11.4954H31.2616L31.8361 7.8529ZM44.0752 8.78256C43.4294 8.78497 42.6863 8.91728 41.852 9.26477C39.9384 10.0624 39.0195 11.7108 38.6292 12.9126C38.6292 12.9126 37.3871 16.5791 40.1934 18.5935C40.1934 18.5935 42.7961 20.5328 45.726 18.474L45.6755 18.7956C45.6677 18.8455 45.6707 18.8965 45.6845 18.9451C45.6982 18.9938 45.7223 19.0388 45.7551 19.0772C45.7879 19.1157 45.8287 19.1465 45.8745 19.1677C45.9204 19.1889 45.9703 19.1999 46.0208 19.2H48.4487C48.635 19.2 48.7933 19.0645 48.8224 18.8806L50.2992 9.51496C50.3071 9.46501 50.3041 9.41394 50.2904 9.36525C50.2767 9.31657 50.2526 9.27143 50.2198 9.23295C50.187 9.19447 50.1462 9.16355 50.1003 9.14233C50.0544 9.1211 50.0045 9.11008 49.9539 9.11001H47.526C47.3397 9.11001 47.1812 9.24553 47.1523 9.42943L47.0729 9.93355C47.0729 9.93355 46.0128 8.77535 44.0752 8.78256ZM44.1545 11.7408C44.4333 11.7408 44.6884 11.7793 44.9172 11.8528C45.9647 12.189 46.5586 13.1954 46.3868 14.2863C46.1748 15.6294 45.0733 16.6184 43.6606 16.6184C43.3821 16.6184 43.1271 16.5802 42.898 16.5067C41.8507 16.1704 41.253 15.1641 41.4249 14.0732C41.6369 12.73 42.7419 11.7408 44.1545 11.7408Z" fill="#003087"/>
<path d="M64.3128 4.7998C64.1265 4.7998 63.9683 4.93506 63.9391 5.11923L61.7825 18.7956C61.7747 18.8456 61.7778 18.8966 61.7916 18.9453C61.8054 18.9939 61.8295 19.039 61.8624 19.0774C61.8952 19.1159 61.9361 19.1467 61.982 19.1679C62.0279 19.1891 62.0779 19.2 62.1284 19.2H64.686C64.872 19.2 65.0305 19.0645 65.0596 18.8806L65.6931 14.8644C65.722 14.6805 65.8805 14.545 66.0668 14.545H68.3921C71.1089 14.545 73.4149 12.5627 73.8359 9.87662C74.2609 7.16781 72.1449 4.80569 69.1456 4.7998H64.3128ZM66.799 7.8529H68.6594C70.191 7.8529 70.6898 8.75664 70.5321 9.75607C70.3744 10.7576 69.6 11.4954 68.1181 11.4954H66.2245L66.799 7.8529ZM79.0378 8.78256C78.392 8.78497 77.6489 8.91728 76.8147 9.26477C74.9011 10.0624 73.9821 11.7108 73.5918 12.9126C73.5918 12.9126 72.3502 16.5791 75.1566 18.5935C75.1566 18.5935 77.7588 20.5328 80.6889 18.474L80.6384 18.7956C80.6305 18.8456 80.6336 18.8966 80.6474 18.9453C80.6612 18.9939 80.6853 19.039 80.7182 19.0774C80.7511 19.1159 80.7919 19.1467 80.8378 19.1679C80.8837 19.1891 80.9337 19.2 80.9843 19.2H83.4119C83.5982 19.2 83.7564 19.0645 83.7856 18.8806L85.2629 9.51496C85.2708 9.46497 85.2678 9.41384 85.2541 9.36512C85.2404 9.3164 85.2162 9.27124 85.1833 9.23275C85.1505 9.19426 85.1096 9.16335 85.0637 9.14216C85.0177 9.12097 84.9677 9.11 84.917 9.11001H82.4892C82.3029 9.11001 82.1443 9.24553 82.1155 9.42943L82.0361 9.93355C82.0361 9.93355 80.9754 8.77535 79.0378 8.78256ZM79.1172 11.7408C79.396 11.7408 79.651 11.7793 79.8798 11.8528C80.9273 12.189 81.5213 13.1954 81.3494 14.2863C81.1374 15.6294 80.0359 16.6184 78.6232 16.6184C78.3447 16.6184 78.0897 16.5802 77.8606 16.5067C76.8133 16.1704 76.2157 15.1641 76.3875 14.0732C76.5995 12.73 77.7045 11.7408 79.1172 11.7408Z" fill="#0070E0"/>
<path d="M51.4513 9.10964C51.2588 9.10964 51.122 9.29755 51.1808 9.48065L53.8425 17.7405L51.4358 21.6329C51.319 21.8219 51.4548 22.0659 51.6769 22.0659H54.5215C54.6028 22.0658 54.6828 22.0448 54.7536 22.0048C54.8245 21.9648 54.8838 21.9072 54.9259 21.8376L62.3598 9.53999C62.4739 9.35101 62.3376 9.10938 62.1168 9.10938H59.2725C59.1903 9.10945 59.1096 9.1309 59.0383 9.17163C58.9669 9.21236 58.9074 9.27096 58.8656 9.34166L55.9395 14.2819L54.4541 9.37828C54.4057 9.2187 54.2584 9.10938 54.0919 9.10938L51.4513 9.10964Z" fill="#003087"/>
<path d="M88.0214 4.7998C87.8354 4.7998 87.6769 4.93533 87.6477 5.11923L85.4906 18.7951C85.4827 18.8451 85.4857 18.8962 85.4995 18.9449C85.5132 18.9936 85.5374 19.0388 85.5702 19.0773C85.6031 19.1158 85.6439 19.1467 85.6899 19.1679C85.7359 19.1891 85.7859 19.2 85.8365 19.2H88.394C88.5801 19.2 88.7386 19.0645 88.7677 18.8806L90.9243 5.20423C90.9321 5.15432 90.9291 5.1033 90.9153 5.05468C90.9016 5.00606 90.8775 4.961 90.8447 4.92258C90.8118 4.88416 90.7711 4.85329 90.7252 4.8321C90.6794 4.8109 90.6295 4.79989 90.579 4.7998H88.0214Z" fill="#0070E0"/>
<path d="M8.02839 4.7998C7.86364 4.79994 7.70435 4.85882 7.57912 4.96588C7.45389 5.07293 7.37093 5.22113 7.34517 5.38385L6.20996 12.5838C6.26289 12.2476 6.55263 11.9998 6.89317 11.9998H10.2197C13.5676 11.9998 16.4085 9.55746 16.9276 6.24776C16.9662 6.00067 16.9881 5.75125 16.9931 5.5012C16.1423 5.05508 15.1428 4.7998 14.0477 4.7998H8.02839Z" fill="#001C64"/>
<path d="M16.9936 5.50098C16.9886 5.75102 16.9667 6.00045 16.9281 6.24754C16.409 9.55724 13.5679 11.9996 10.2202 11.9996H6.89367C6.55339 11.9996 6.26338 12.2471 6.21046 12.5836L5.16665 19.1998L4.51284 23.3504C4.50008 23.4306 4.50486 23.5126 4.52687 23.5908C4.54888 23.6689 4.58759 23.7414 4.64032 23.8031C4.69305 23.8649 4.75855 23.9145 4.83229 23.9484C4.90604 23.9824 4.98629 24 5.06749 24H8.67816C8.84291 23.9998 9.00221 23.9409 9.12744 23.8339C9.25266 23.7268 9.33561 23.5786 9.36137 23.4159L10.3124 17.3838C10.3382 17.221 10.4212 17.0727 10.5466 16.9656C10.6719 16.8586 10.8313 16.7997 10.9962 16.7997H13.122C16.4699 16.7997 19.3108 14.3574 19.8299 11.0477C20.1985 8.69868 19.0154 6.56109 16.9936 5.50098Z" fill="#0070E0"/>
<path d="M3.92688 0C3.58661 0 3.2966 0.247519 3.24368 0.583514L0.410294 18.5503C0.356567 18.8914 0.620131 19.1998 0.965481 19.1998H5.16716L6.21043 12.5836L7.34564 5.38367C7.3714 5.22095 7.45436 5.07275 7.57959 4.9657C7.70482 4.85865 7.86411 4.79976 8.02886 4.79963H14.0482C15.1436 4.79963 16.1427 5.05516 16.9936 5.50102C17.0518 2.48775 14.5654 0 11.1469 0H3.92688Z" fill="#003087"/>
</svg>
