<svg width="76" height="22" viewBox="0 0 76 22" fill="none" xmlns="http://www.w3.org/2000/svg">
<path fill-rule="evenodd" clip-rule="evenodd" d="M26.3998 0.160696C26.2296 0.604142 27.0446 2.29606 27.7634 2.99172C28.729 3.92634 29.9749 3.98025 30.6064 3.11479C30.9195 2.68582 30.9561 1.89128 30.6829 1.45645C30.3512 0.928714 29.9857 0.74345 28.9475 0.577185C28.4304 0.494329 27.7134 0.327622 27.3544 0.206652C26.5668 -0.0585982 26.4854 -0.0625737 26.3998 0.160696ZM9.89693 1.44574C9.78193 1.4886 9.66184 1.63774 9.63013 1.77716C9.59831 1.91647 9.55766 4.34217 9.53987 7.16756C9.51192 11.6078 9.48265 12.3781 9.3239 12.8464C9.03722 13.6923 8.48661 14.4118 7.86021 14.7592C7.35777 15.0379 7.20311 15.0665 6.20132 15.0665C4.98234 15.0665 4.48841 14.8946 3.92908 14.2757C3.05787 13.3116 2.88531 12.5575 2.91735 9.85453C2.93867 8.05269 2.91646 7.70988 2.76876 7.56218C2.63553 7.42895 2.35359 7.38851 1.5574 7.38851C0.644438 7.38851 0.505904 7.41425 0.405261 7.60217C0.338976 7.72601 0.290919 8.6255 0.290919 9.74196C0.290919 13.1133 0.742098 14.667 2.12182 16.0468C2.71374 16.6387 3.3144 16.9536 4.37197 17.2267C5.58499 17.5398 7.48814 17.4912 8.5213 17.1207C10.4536 16.4277 11.6692 14.7833 11.9995 12.4151C12.1681 11.2065 12.1454 1.69884 11.9736 1.55644C11.8091 1.42011 10.1957 1.33416 9.89693 1.44574ZM0.398522 1.59201C0.301304 1.70911 0.257224 2.20105 0.255125 3.19135C0.251258 5.03009 0.277882 5.06854 1.5574 5.06854C2.8747 5.06854 2.87901 5.06324 2.92387 3.35982C2.97413 1.4496 2.95546 1.42287 1.57232 1.42287C0.779218 1.42287 0.506235 1.4622 0.398522 1.59201ZM34.5097 2.38952C34.3879 2.52574 34.3157 2.92566 34.2658 3.74284C34.1591 5.48978 34.2031 5.39996 33.4558 5.39996C32.4811 5.39996 32.3286 5.55717 32.3286 6.56238C32.3286 7.52749 32.4102 7.60946 33.3709 7.60946H33.9858L33.9866 10.4542C33.9879 14.688 34.1568 15.6552 35.0565 16.5787C35.6936 17.2326 36.4028 17.4882 37.5762 17.487C38.7515 17.4858 39.9091 17.1967 40.0098 16.8793C40.0927 16.6182 39.8559 15.4055 39.6733 15.1558C39.5527 14.9908 39.4919 14.9838 39.2273 15.1043C39.059 15.1811 38.6185 15.2695 38.2486 15.3006C37.7074 15.3462 37.5105 15.3157 37.2391 15.1441C36.6912 14.7974 36.6371 14.41 36.6371 10.828V7.60946L37.9905 7.60593C39.739 7.6014 39.7857 7.57102 39.7857 6.43578C39.7857 5.31335 39.7485 5.28949 37.997 5.28949H36.6371V3.9164C36.6371 2.22149 36.6201 2.19619 35.4864 2.19619C34.8607 2.19619 34.6445 2.23895 34.5097 2.38952ZM19.9749 5.18675C19.3446 5.31081 18.394 5.75238 17.7294 6.22985C17.4344 6.44185 17.1683 6.61519 17.1381 6.61519C17.1078 6.61519 17.0831 6.45224 17.0831 6.25316C17.0831 6.05398 17.0057 5.78055 16.9111 5.64555C16.7602 5.43001 16.6408 5.39996 15.9339 5.39996C15.2942 5.39996 15.0912 5.4415 14.946 5.60202C14.7809 5.78442 14.7631 6.34762 14.7631 11.3957V16.9873L15.0087 17.1592C15.3809 17.42 16.9093 17.3624 17.3282 17.0719C17.3416 17.0626 17.379 15.1928 17.4111 12.9168L17.4698 8.77851L18.0221 8.34975C18.9553 7.62537 19.6553 7.35062 20.3965 7.4179C21.194 7.49015 21.5038 7.69176 21.8368 8.35494C22.0998 8.87871 22.1004 8.88953 22.1051 12.8676C22.1088 16.0799 22.1392 16.8909 22.2613 17.038C22.3822 17.1838 22.6184 17.2208 23.4268 17.2208C24.0681 17.2208 24.4894 17.1721 24.5733 17.0882C24.7493 16.9122 24.7601 9.15876 24.5857 8.21487C24.3608 6.99898 23.6473 5.9361 22.7412 5.46758C22.3843 5.28297 21.2771 5.06324 20.7913 5.08069C20.605 5.08732 20.2376 5.13505 19.9749 5.18675ZM46.3814 5.22464C45.7222 5.44007 45.1678 5.70963 44.6308 6.07618L44.173 6.38861L44.1016 6.00835C43.9897 5.41156 43.7937 5.28949 42.9475 5.28949C41.647 5.28949 41.7742 4.38481 41.7742 13.6303C41.7742 22.9407 41.6197 21.9712 43.1039 21.9712C44.4265 21.9712 44.3704 22.1001 44.3704 19.0625C44.3704 17.685 44.394 16.5579 44.423 16.5579C44.4519 16.5579 44.6383 16.6581 44.8373 16.7808C45.8327 17.3939 47.432 17.6013 48.5759 17.2657C51.0328 16.5449 52.5455 14.1861 52.5455 11.0761C52.5455 8.32655 51.6132 6.41103 49.8361 5.509C49.1826 5.17736 49.0066 5.13902 47.985 5.10599C47.2241 5.08146 46.7013 5.12013 46.3814 5.22464ZM58.239 5.1915C57.8765 5.24431 57.3296 5.36881 57.0237 5.46813C56.4486 5.65494 55.0257 6.32817 54.7826 6.52847C54.5541 6.71683 54.6252 7.16215 54.984 7.78931C55.3945 8.50663 55.6128 8.54331 56.4977 8.04385C56.828 7.85748 57.4782 7.60681 57.9428 7.48694C59.3866 7.11409 60.3086 7.40276 60.8072 8.38367C60.9465 8.65765 61.0454 9.02763 61.0281 9.20969C60.9971 9.53703 60.9895 9.54056 60.0026 9.68087C57.0058 10.107 55.1166 11.0087 54.3716 12.3685C54.0717 12.9155 54.0435 13.0587 54.0458 14.017C54.0478 14.8811 54.0913 15.1489 54.2918 15.5329C54.6922 16.2995 55.2066 16.7959 55.9702 17.1521C56.6045 17.4479 56.8044 17.4868 57.6826 17.4848C58.7749 17.4825 59.5617 17.2444 60.6979 16.5724C61.0196 16.3822 61.3054 16.2265 61.3331 16.2265C61.3609 16.2265 61.3835 16.3397 61.3835 16.4781C61.3835 16.6165 61.461 16.8402 61.5555 16.9752C61.7083 17.1934 61.8239 17.2208 62.5914 17.2208C63.1728 17.2208 63.4951 17.173 63.5767 17.0748C63.6593 16.9752 63.7008 15.6324 63.7076 12.8492C63.7166 9.09877 63.7001 8.71399 63.5023 8.08296C62.761 5.71692 61.0572 4.78097 58.239 5.1915ZM27.9712 5.53507C27.821 5.74929 27.7992 6.48129 27.7992 11.2798C27.7992 17.7522 27.6828 17.2208 29.1002 17.2208C29.6991 17.2208 30.0338 17.1686 30.205 17.0488L30.4506 16.8769V11.266C30.4506 4.68707 30.5872 5.28949 29.0948 5.28949C28.2366 5.28949 28.1263 5.31357 27.9712 5.53507ZM64.9911 5.49155C64.8905 5.60269 64.8082 5.7673 64.8082 5.85733C64.8082 5.94737 65.1862 6.93778 65.6481 8.0581C66.11 9.17854 66.6549 10.5032 66.859 11.0021C67.2501 11.958 68.0383 13.8434 68.281 14.4037C69.1921 16.5071 69.2723 16.7815 69.1316 17.3141C68.7024 18.939 67.6227 19.894 66.419 19.7135C65.6889 19.6041 65.5275 19.739 65.3057 20.6442C65.1546 21.2607 65.143 21.4555 65.2498 21.5842C65.5706 21.9708 67.0947 22.0964 68.0278 21.8131C69.2986 21.4274 70.3742 20.3589 71.0692 18.7919C71.3163 18.2346 73.7806 11.4657 74.6576 8.93516C74.8367 8.41869 75.0297 7.8967 75.0867 7.77517C75.2443 7.439 75.7436 5.91467 75.7445 5.76685C75.7449 5.69527 75.6671 5.55861 75.5717 5.46305C75.3525 5.24398 73.781 5.21691 73.5126 5.42758C73.4158 5.50359 73.2351 5.86396 73.1111 6.22853C72.4491 8.17432 70.8032 13.3546 70.6215 14.0636C70.6072 14.1197 70.3913 13.5978 70.1419 12.9036C69.0149 9.7688 67.4219 5.6587 67.2656 5.48282C67.0093 5.19426 65.254 5.201 64.9911 5.49155ZM48.4766 7.62614C49.4644 8.17134 49.9647 9.54454 49.8592 11.4208C49.7637 13.1216 49.3018 14.1047 48.2516 14.8428C47.8217 15.1448 47.6948 15.1768 46.9294 15.1752C46.0494 15.1733 45.6595 15.0466 44.7847 14.4779L44.3704 14.2086V11.4155V8.62252L44.9317 8.21056C45.2404 7.98386 45.7749 7.6795 46.1193 7.53401C46.9009 7.20391 47.7735 7.23805 48.4766 7.62614ZM61.1626 12.7409V14.0058L60.4418 14.5202C60.0453 14.803 59.4906 15.1039 59.209 15.1886C57.6687 15.6521 56.4368 15.0187 56.5581 13.8252C56.6171 13.244 56.8484 12.8818 57.3887 12.5242C58.0879 12.0615 59.9013 11.5192 60.8588 11.4865L61.1626 11.4761V12.7409Z" fill="white"/>
<path fill-rule="evenodd" clip-rule="evenodd" d="M26.3997 0.160696C26.2296 0.604142 27.0446 2.29606 27.7633 2.99172C28.729 3.92634 29.9748 3.98025 30.6064 3.11479C30.9195 2.68582 30.9561 1.89128 30.6829 1.45645C30.3512 0.928714 29.9856 0.74345 28.9475 0.577185C28.4304 0.494329 27.7134 0.327622 27.3544 0.206652C26.5668 -0.0585982 26.4854 -0.0625737 26.3997 0.160696Z" fill="#3F9A39"/>
</svg>
