<svg width="104" height="32" viewBox="0 0 104 32" fill="none" xmlns="http://www.w3.org/2000/svg">
<g clip-path="url(#clip0_2311_3344)">
<path d="M11.7558 0.67327C14.9687 -0.267364 18.4694 -0.110592 21.6172 1.03292C24.5237 2.10266 27.1144 4.0116 28.9622 6.48307C31.0887 9.28653 32.2215 12.8185 32.1565 16.3228C32.1565 16.664 32.1751 17.0145 32.0915 17.3557C31.8687 20.1038 30.8844 22.7689 29.3151 25.0375C26.7337 28.7816 22.4715 31.3545 17.9215 31.8341C17.4851 31.8433 17.058 32.0001 16.6215 31.9447C16.1572 31.8894 15.693 31.9816 15.2287 31.9447C14.6251 31.8894 14.0215 31.7234 13.418 31.7419C13.418 31.7326 13.418 31.705 13.418 31.6865C15.2565 31.7234 17.1137 31.539 18.8687 30.9488C20.568 30.3955 22.1465 29.4733 23.4651 28.2744C24.9787 26.8727 26.1394 25.1021 26.7987 23.1563C27.0215 22.5292 27.1794 21.8836 27.3187 21.2381C27.5508 19.7349 27.6715 18.2041 27.4301 16.7009C27.1608 14.8842 26.3994 13.1505 25.2851 11.6842C23.8644 9.80295 21.7008 8.40122 19.3144 8.15223C18.5344 8.15223 17.7451 8.07846 16.993 8.28134C15.1915 8.66866 13.5665 9.70151 12.313 11.0202C11.6351 11.6473 11.1522 12.4404 10.5022 13.0859C9.48082 14.128 8.16225 14.958 6.68582 15.1701C6.03582 15.1793 5.34868 15.2623 4.72654 15.0318C3.54725 14.6998 2.53511 13.8053 2.05225 12.6802C1.64368 11.7488 1.53225 10.6883 1.77368 9.70151C2.11725 7.8848 3.25939 6.34474 4.50368 5.02601C6.47225 2.96952 8.99796 1.43869 11.7558 0.67327Z" fill="#FF9E00"/>
<path d="M41.3682 2.72993C42.7239 2.7207 44.0796 2.72993 45.4353 2.7207C46.4753 2.72993 47.571 3.02503 48.3139 3.79044C49.0382 4.50053 49.2796 5.57949 49.1496 6.56624C49.0474 7.50687 48.481 8.38295 47.6453 8.84405C46.6146 9.45269 45.3889 9.39736 44.2282 9.39736C44.0146 9.39736 43.8382 9.57258 43.8382 9.78468C43.8382 10.3011 43.8382 10.8268 43.8382 11.3432C43.8382 11.5553 43.671 11.7305 43.4574 11.7305C42.891 11.7305 42.3246 11.7305 41.7582 11.7305C41.5446 11.7305 41.3775 11.5553 41.3775 11.3432C41.3775 8.45673 41.3774 5.58872 41.3682 2.72993ZM43.8382 5.14606C43.8382 5.75471 43.8382 6.36335 43.8382 6.98122C43.8382 7.19333 44.0146 7.35932 44.2282 7.35932C44.5996 7.35932 44.9803 7.36854 45.3517 7.3501C45.7696 7.33165 46.2246 7.19333 46.4753 6.82445C46.9024 6.18814 46.7167 5.13684 45.9367 4.86018C45.3889 4.68497 44.8039 4.7403 44.2282 4.74952C44.0053 4.75874 43.8382 4.93396 43.8382 5.14606Z" fill="white"/>
<path d="M55.584 11.712C55.5933 8.84396 55.5747 5.97595 55.5933 3.10794C55.5933 2.89583 55.7697 2.72062 55.9833 2.72984C57.2368 2.73906 58.4904 2.72984 59.7347 2.72984C60.7654 2.75751 61.8518 3.06183 62.5668 3.83647C63.3004 4.60189 63.5047 5.73618 63.3283 6.75059C63.1983 7.5529 62.7154 8.26298 62.0468 8.70563C61.8704 8.82552 61.8147 9.06529 61.9354 9.2405C62.3533 9.86759 62.7618 10.4947 63.1797 11.1218C63.3468 11.38 63.1611 11.7212 62.8547 11.712C62.279 11.712 61.7126 11.712 61.1368 11.712C61.0068 11.712 60.8861 11.6474 60.8118 11.546C60.3568 10.8728 59.9204 10.1904 59.4747 9.50794C59.4004 9.39728 59.2797 9.33272 59.1497 9.33272C58.9176 9.33272 58.6854 9.33272 58.444 9.33272C58.2304 9.33272 58.054 9.50794 58.054 9.72004C58.054 10.2549 58.054 10.7898 58.054 11.3247C58.054 11.5368 57.8868 11.712 57.6733 11.712C56.9676 11.712 56.2711 11.712 55.584 11.712ZM58.0447 5.14598C58.0447 5.75462 58.0447 6.36327 58.0447 6.97192C58.0447 7.18402 58.2118 7.35001 58.4254 7.35924C59.029 7.36846 59.6418 7.43301 60.2176 7.21168C61.174 6.81514 61.1183 5.20131 60.134 4.86932C59.5861 4.69411 59.0011 4.75866 58.4347 4.76788C58.2118 4.75866 58.0447 4.93387 58.0447 5.14598Z" fill="white"/>
<path d="M70.2649 2.72078C70.8313 2.71156 71.3977 2.71156 71.9641 2.72078C72.1777 2.72078 72.3449 2.896 72.3449 3.1081C72.3356 5.84701 72.3449 8.58591 72.3449 11.3248C72.3449 11.5369 72.1684 11.7121 71.9641 11.7121C71.3977 11.7121 70.8313 11.7121 70.2741 11.7121C70.0606 11.7121 69.8841 11.5369 69.8841 11.3248C69.8841 8.58591 69.8934 5.84701 69.8841 3.1081C69.8749 2.896 70.0513 2.72078 70.2649 2.72078Z" fill="white"/>
<path d="M79.2627 11.3249C79.272 8.58602 79.2534 5.8379 79.272 3.09899C79.272 2.88689 79.4484 2.71167 79.6713 2.7209C80.1356 2.73012 80.6091 2.7209 81.0734 2.7209C81.2127 2.7209 81.3427 2.79467 81.4077 2.91456C82.262 4.38084 83.1163 5.8379 83.9706 7.29496C83.9706 7.29496 83.9706 7.29496 83.9706 7.30418C84.1191 7.56239 84.4998 7.56239 84.6484 7.30418C85.4748 5.84712 86.3198 4.39006 87.137 2.92378C87.202 2.80389 87.332 2.73012 87.462 2.7209C87.9356 2.71167 88.4184 2.7209 88.892 2.7209C89.1056 2.7209 89.282 2.89611 89.282 3.10822C89.2727 4.31628 89.3191 5.52435 89.3098 6.73242C89.3098 8.26326 89.3006 9.79409 89.3098 11.3249C89.3098 11.537 89.1427 11.7122 88.9291 11.7122C88.4277 11.7215 87.9263 11.7122 87.4341 11.7122C87.2206 11.7122 87.0534 11.5463 87.0441 11.3434C87.0163 10.3751 87.0256 9.40677 87.0348 8.43847C87.0348 8.04193 86.5056 7.9036 86.3106 8.24481C85.8463 9.04712 85.4006 9.84943 84.9363 10.6425C84.8713 10.7624 84.7413 10.8362 84.602 10.8362C84.3791 10.8362 84.1563 10.8362 83.9334 10.8362C83.7941 10.8362 83.6734 10.7624 83.5991 10.6425C83.1441 9.87709 82.7077 9.11167 82.2527 8.34626C82.0484 8.01427 81.5284 8.1526 81.5284 8.53992C81.5284 9.46211 81.5284 10.3935 81.5284 11.3157C81.5284 11.5278 81.352 11.703 81.1384 11.703C80.637 11.703 80.1356 11.703 79.6341 11.703C79.4298 11.7122 79.2627 11.537 79.2627 11.3249Z" fill="white"/>
<path d="M96.5437 2.72968C98.5494 2.72046 100.546 2.72968 102.552 2.72968C102.765 2.72968 102.942 2.9049 102.942 3.117V4.3343C102.942 4.5464 102.765 4.72162 102.552 4.72162C101.363 4.72162 100.174 4.71239 98.9858 4.72162C98.7722 4.72162 98.6051 4.89683 98.6051 5.10894C98.6051 5.3487 98.6051 5.5977 98.6051 5.83747C98.6051 6.04957 98.7815 6.21556 98.9951 6.21556C100.017 6.20634 101.029 6.21556 102.05 6.21556C102.264 6.21556 102.44 6.39078 102.44 6.60288C102.44 6.98098 102.44 7.35908 102.44 7.7464C102.44 7.9585 102.273 8.13372 102.059 8.13372C101.038 8.13372 100.017 8.13372 99.0044 8.13372C98.7908 8.13372 98.6144 8.30894 98.6144 8.52104V9.36945C98.6144 9.58156 98.7908 9.75677 99.0044 9.75677C100.249 9.75677 101.484 9.766 102.728 9.75677C102.942 9.75677 103.118 9.92277 103.118 10.1349C103.118 10.5406 103.118 10.9464 103.118 11.3522C103.118 11.5643 102.942 11.7395 102.728 11.7395C100.676 11.7395 98.6144 11.7395 96.5622 11.7395C96.3487 11.7395 96.1722 11.5643 96.1722 11.3522C96.1722 8.61326 96.1815 5.87435 96.1722 3.13545C96.1537 2.89568 96.3301 2.72968 96.5437 2.72968Z" fill="white"/>
<path d="M55.5469 18.2598C56.1969 18.269 56.8376 18.2598 57.4876 18.269C58.1562 19.4402 58.8433 20.6114 59.5212 21.7825C59.614 21.7641 59.6419 21.6534 59.6883 21.5889C60.3197 20.4822 60.9697 19.3848 61.5919 18.2782C62.1954 18.2598 62.7897 18.2782 63.3933 18.269C62.3997 20.0304 61.3504 21.7549 60.3754 23.5255C60.3569 24.4661 60.3662 25.4067 60.3754 26.3474C59.7719 26.3566 59.159 26.3474 58.5554 26.3566C58.5554 25.4436 58.5554 24.5307 58.5554 23.6177C58.5647 23.4148 58.4162 23.258 58.3233 23.092C57.3947 21.4598 56.4569 19.8644 55.5469 18.2598Z" fill="white"/>
<path d="M63.979 18.2504C64.4712 18.2597 64.9633 18.2597 65.4554 18.2504C66.4304 19.9104 67.3962 21.5795 68.3526 23.2487C69.3183 21.5888 70.2562 19.9196 71.2126 18.2504C71.7047 18.2504 72.2062 18.2597 72.6983 18.2412C72.7354 20.021 72.6797 21.8101 72.7262 23.5899C72.7262 24.5029 72.7262 25.4159 72.7262 26.3288C72.1597 26.3288 71.584 26.3288 71.0176 26.3288C71.0083 24.7427 71.0362 23.1473 70.999 21.5611C70.2376 22.8614 69.4947 24.1617 68.7612 25.4712C68.4826 25.4804 68.1947 25.4804 67.9162 25.4804C67.164 24.2078 66.4304 22.9167 65.6597 21.6441C65.6597 23.2026 65.6597 24.7703 65.6597 26.3288C65.0933 26.3288 64.5362 26.3288 63.9697 26.3288C63.979 23.6452 63.9604 20.9432 63.979 18.2504Z" fill="white"/>
<path d="M74.5645 18.259C76.5237 18.2498 78.4923 18.259 80.4516 18.259C80.4423 18.7662 80.4609 19.2734 80.4423 19.7714C79.0866 19.7529 77.7216 19.7714 76.3659 19.7622C76.3566 20.3339 76.3752 20.9149 76.3566 21.4866C77.5545 21.5051 78.7616 21.5051 79.9595 21.4866C79.9966 21.9754 79.9595 22.4642 79.978 22.9622C78.7709 22.9806 77.573 22.9622 76.3659 22.9714C76.3659 23.58 76.3752 24.1979 76.3566 24.8065C77.768 24.825 79.1795 24.8065 80.6002 24.8158C80.6002 25.323 80.6002 25.8209 80.6002 26.3281C78.5945 26.3281 76.5795 26.3281 74.5737 26.3281C74.5645 23.6446 74.5737 20.9518 74.5645 18.259Z" fill="white"/>
<path d="M82.0024 18.25C82.4946 18.2592 82.9867 18.2592 83.4789 18.25C84.7789 19.8638 86.0324 21.5053 87.3324 23.1192C87.3417 21.4961 87.3324 19.8823 87.3324 18.2592C87.9267 18.2592 88.5303 18.2592 89.1246 18.2592C89.1339 20.952 89.1246 23.6448 89.1339 26.3284C88.6232 26.3376 88.1217 26.3376 87.611 26.3284C86.3389 24.7238 85.0853 23.0915 83.7853 21.5146C83.7853 23.1192 83.7853 24.733 83.7853 26.3376C83.191 26.3376 82.5874 26.3376 81.9932 26.3376C82.0024 23.6448 81.9839 20.9428 82.0024 18.25Z" fill="white"/>
<path d="M90.127 18.2591C92.3927 18.2591 94.6584 18.2499 96.9241 18.2684V18.2776C96.8777 18.7848 96.9148 19.292 96.9055 19.79C96.0791 19.79 95.2527 19.79 94.4262 19.79C94.4262 21.9756 94.4262 24.1519 94.4262 26.3375C93.8227 26.3375 93.2191 26.3375 92.6155 26.3375C92.6155 24.1612 92.6155 21.9756 92.6155 19.79C91.7891 19.79 90.9627 19.79 90.1362 19.79C90.127 19.2828 90.127 18.7663 90.127 18.2591Z" fill="white"/>
<path d="M40.9497 18.2598C42.1197 18.2598 43.2897 18.2598 44.4504 18.2598C45.3511 18.2782 46.3169 18.5364 46.9483 19.2188C47.4869 19.7537 47.7097 20.5376 47.6819 21.2845C47.6819 22.0776 47.3476 22.8799 46.7254 23.3871C46.094 23.9036 45.2583 24.1065 44.4504 24.1249C43.884 24.1249 43.3269 24.1249 42.7604 24.1249C42.7511 24.8626 42.7511 25.6004 42.7604 26.3382C42.1569 26.3474 41.5533 26.3382 40.9404 26.3382C40.9497 23.6454 40.9497 20.9526 40.9497 18.2598ZM42.7604 19.7906C42.7604 20.722 42.7604 21.6534 42.7604 22.5848C43.2711 22.5756 43.7726 22.5941 44.2833 22.5756C44.7104 22.5572 45.1747 22.465 45.4904 22.1514C45.899 21.7272 45.9361 21.0448 45.704 20.5191C45.509 20.1041 45.0633 19.8736 44.6269 19.8183C44.014 19.7629 43.3919 19.7998 42.7604 19.7906Z" fill="white"/>
<path d="M47.5986 26.3378C48.7408 23.645 49.9108 20.9614 51.0529 18.2686C51.6565 18.2594 52.2601 18.2594 52.8636 18.2686C54.0058 20.9614 55.1758 23.645 56.3272 26.3378C55.6865 26.3378 55.0458 26.347 54.4051 26.3286C54.1915 25.7568 53.9501 25.1851 53.7272 24.6133C52.5293 24.6133 51.3408 24.6133 50.1522 24.6133C49.9201 25.1851 49.6972 25.7568 49.4651 26.3286C48.8429 26.3378 48.2208 26.3378 47.5986 26.3378ZM50.7279 23.1839C51.5358 23.1839 52.3436 23.1839 53.1608 23.1839C52.7615 22.1695 52.3529 21.1551 51.9444 20.1315C51.5358 21.1551 51.1365 22.1695 50.7279 23.1839Z" fill="white"/>
<path d="M16.5098 12.8278C17.5869 12.1915 18.8962 11.7396 20.1591 12.0347C21.2919 12.2745 22.2391 13.0584 22.8427 14.0174C23.7434 15.4376 24.0684 17.1529 23.9941 18.8128C23.8548 21.7269 22.4527 24.5396 20.2612 26.4854C18.3669 28.1546 15.8505 28.9477 13.3619 29.1598C12.4334 29.169 11.4955 29.2244 10.5762 29.0676C7.96694 28.754 5.41337 27.6474 3.5748 25.7569C2.1448 24.2169 1.26265 22.2526 0.668367 20.2514C0.222652 18.6745 0.0462237 17.0238 0.0647952 15.3823C0.157652 14.7552 0.129795 14.1281 0.269081 13.5102C0.296938 13.3535 0.389795 13.1782 0.296938 13.0307C0.334081 12.9754 0.380509 12.9293 0.417652 12.8739C0.417652 12.8094 0.417652 12.6895 0.426938 12.6249C0.436224 12.7725 0.445509 12.92 0.417652 13.0768C0.315509 13.7592 0.436224 14.4509 0.575509 15.1148C0.844795 16.2768 1.58765 17.3281 2.5998 17.9736C3.50051 18.5638 4.59622 18.7852 5.66408 18.7575C7.07551 18.8128 8.49622 18.5085 9.78694 17.9275C11.0498 17.3558 12.1734 16.5258 13.2041 15.6128C14.2719 14.6537 15.2469 13.5563 16.5098 12.8278Z" fill="#1F19FF"/>
<path d="M100.527 26.365C99.9979 26.365 99.5429 26.3096 99.1714 26.199C98.7907 26.0883 98.4843 25.9315 98.2429 25.7286C98.0014 25.5258 97.8157 25.2768 97.695 24.9817C97.5743 24.6866 97.5093 24.3638 97.5 24.0041H99.1343C99.1529 24.3085 99.255 24.5482 99.4593 24.7235C99.6636 24.8987 100.016 24.9817 100.527 24.9817C101.038 24.9817 101.4 24.8987 101.604 24.7419C101.809 24.5851 101.92 24.373 101.92 24.1148C101.92 23.9673 101.892 23.8289 101.836 23.7183C101.781 23.5984 101.688 23.4969 101.558 23.4047C101.419 23.3125 101.242 23.2295 101.01 23.1465C100.787 23.0635 100.499 22.9805 100.146 22.8975C99.7193 22.7961 99.3571 22.667 99.0507 22.5286C98.7443 22.3903 98.4936 22.2243 98.2893 22.0399C98.085 21.8554 97.9364 21.6341 97.8343 21.3851C97.7321 21.1361 97.6857 20.841 97.6857 20.4998C97.6857 20.1678 97.7414 19.8727 97.8529 19.5961C97.9643 19.3286 98.1407 19.0981 98.3729 18.8952C98.605 18.7016 98.9021 18.5448 99.255 18.4433C99.6079 18.3327 100.026 18.2773 100.509 18.2773C101.474 18.2773 102.189 18.4894 102.644 18.9044C103.099 19.3286 103.341 19.8912 103.35 20.6013H101.734C101.716 20.3062 101.623 20.0756 101.437 19.9096C101.251 19.7436 100.945 19.6606 100.518 19.6606C100.091 19.6606 99.775 19.7436 99.5893 19.9004C99.4036 20.0572 99.3107 20.2601 99.3107 20.4998C99.3107 20.6382 99.3386 20.7673 99.3943 20.8687C99.45 20.9701 99.5429 21.0716 99.6729 21.1454C99.8029 21.2284 99.97 21.3021 100.184 21.3759C100.397 21.4497 100.657 21.5235 100.973 21.5972C101.428 21.7079 101.809 21.837 102.134 21.9845C102.459 22.1321 102.719 22.2981 102.923 22.4918C103.127 22.6854 103.285 22.916 103.378 23.1742C103.48 23.4324 103.526 23.7459 103.526 24.0964C103.526 24.4376 103.471 24.7419 103.35 25.0093C103.229 25.286 103.053 25.5165 102.802 25.7194C102.561 25.9223 102.245 26.0699 101.864 26.1805C101.493 26.3188 101.047 26.365 100.527 26.365Z" fill="white"/>
</g>
<defs>
<clipPath id="clip0_2311_3344">
<rect width="104" height="32" fill="white"/>
</clipPath>
</defs>
</svg>
