<svg width="123" height="32" viewBox="0 0 123 32" fill="none" xmlns="http://www.w3.org/2000/svg">
<g clip-path="url(#clip0_2311_2869)">
<path fill-rule="evenodd" clip-rule="evenodd" d="M15.4232 8V8.00699C15.4163 8.00699 13.2359 8 12.6544 10.1031C12.1214 12.0314 10.6193 17.3555 10.5778 17.5022H10.1624C10.1624 17.5022 8.62571 12.0594 8.08579 10.0961C7.50433 7.99301 5.31694 8 5.31694 8H0.333008V24H5.31694V14.4978H5.5246H5.73227L8.63956 24H12.1006L15.0079 14.5048H15.4232V24H20.4072V8H15.4232Z" fill="#4DB45E"/>
<path fill-rule="evenodd" clip-rule="evenodd" d="M33.6281 8C33.6281 8 32.1676 8.13275 31.4823 9.67686L27.952 17.5022H27.5367V8H22.5527V24H27.2598C27.2598 24 28.7896 23.8603 29.4749 22.3231L32.9359 14.4978H33.3513V24H38.3352V8H33.6281Z" fill="#4DB45E"/>
<path fill-rule="evenodd" clip-rule="evenodd" d="M40.5508 15.2666V24.0002H45.5347V18.8998H50.934C53.2875 18.8998 55.2811 17.3836 56.0217 15.2666H40.5508Z" fill="#4DB45E"/>
<path fill-rule="evenodd" clip-rule="evenodd" d="M50.9339 8H39.8516C40.4053 11.0463 42.6689 13.4917 45.5969 14.2882C46.2615 14.4699 46.9606 14.5677 47.6805 14.5677H56.2224C56.2985 14.2044 56.3331 13.8341 56.3331 13.4498C56.3331 10.4384 53.9173 8 50.9339 8Z" fill="url(#paint0_linear_2311_2869)"/>
</g>
<g clip-path="url(#clip1_2311_2869)">
<path d="M122.507 12.6734V20.4969H119.76V15.0089H117.116V20.4969H114.37V12.6729H122.507V12.6734Z" fill="white"/>
<path fill-rule="evenodd" clip-rule="evenodd" d="M108.731 20.7764C111.189 20.7764 113.015 19.2431 113.015 16.9185C113.015 14.6687 111.668 13.2079 109.417 13.2079C108.378 13.2079 107.521 13.5799 106.875 14.2217C107.029 12.8951 108.132 11.9265 109.346 11.9265C109.627 11.9265 111.736 11.922 111.736 11.922L112.929 9.59961C112.929 9.59961 110.281 9.66094 109.049 9.66094C106.236 9.71081 104.336 12.3121 104.336 15.4716C104.336 19.1524 106.189 20.7764 108.731 20.7764ZM108.746 15.2649C109.659 15.2649 110.291 15.8751 110.291 16.9183C110.291 17.8572 109.729 18.6308 108.746 18.6329C107.805 18.6329 107.173 17.9161 107.173 16.9343C107.173 15.8908 107.805 15.2649 108.746 15.2649Z" fill="white"/>
<path d="M102.1 17.8775C102.1 17.8775 101.452 18.2578 100.483 18.3298C99.3696 18.3634 98.3774 17.6479 98.3774 16.3767C98.3774 15.1367 99.2529 14.426 100.455 14.426C101.192 14.426 102.167 14.9458 102.167 14.9458C102.167 14.9458 102.881 13.6138 103.251 12.9476C102.574 12.4258 101.672 12.1396 100.624 12.1396C97.9774 12.1396 95.9277 13.8948 95.9277 16.361C95.9277 18.8586 97.8542 20.573 100.624 20.5212C101.398 20.4919 102.466 20.2154 103.117 19.79L102.1 17.8775Z" fill="white"/>
<path d="M68.333 6.96484L72.1424 13.8915V18.1166L68.3375 25.0296L68.333 6.96484Z" fill="#5B57A2"/>
<path d="M82.959 11.3712L86.5285 9.14561L93.8337 9.13867L82.959 15.9157V11.3712Z" fill="#D90751"/>
<path d="M82.9387 6.92453L82.9589 16.0952L79.1406 13.7085V0L82.9387 6.92453Z" fill="#FAB718"/>
<path d="M93.8336 9.13893L86.5281 9.14587L82.9387 6.92453L79.1406 0L93.8336 9.13893Z" fill="#ED6F26"/>
<path d="M82.9589 25.069V20.6197L79.1406 18.2783L79.1427 32.0005L82.9589 25.069Z" fill="#63B22F"/>
<path d="M86.52 22.8627L72.1421 13.8915L68.333 6.96484L93.8186 22.8536L86.52 22.8627Z" fill="#1487C9"/>
<path d="M79.1426 32.0004L82.9582 25.0689L86.5188 22.8636L93.8175 22.8545L79.1426 32.0004Z" fill="#017F36"/>
<path d="M68.3369 25.0305L79.1718 18.2785L75.5291 16.0049L72.1418 18.1174L68.3369 25.0305Z" fill="#984995"/>
</g>
<defs>
<linearGradient id="paint0_linear_2311_2869" x1="39.8529" y1="11.2838" x2="56.3331" y2="11.2838" gradientUnits="userSpaceOnUse">
<stop offset="0.3" stop-color="#00B4E6"/>
<stop offset="1" stop-color="#088CCB"/>
</linearGradient>
<clipPath id="clip0_2311_2869">
<rect width="56" height="16" fill="white" transform="translate(0.333008 8)"/>
</clipPath>
<clipPath id="clip1_2311_2869">
<rect width="54" height="32" fill="white" transform="translate(68.333)"/>
</clipPath>
</defs>
</svg>
