<svg width="75" height="30" viewBox="0 0 75 30" fill="none" xmlns="http://www.w3.org/2000/svg">
<g clip-path="url(#clip0_2608_3536)">
<path d="M59.1647 29.8763C67.3325 29.8763 73.9534 23.2554 73.9534 15.0876C73.9534 6.91974 67.3325 0.298828 59.1647 0.298828C50.9969 0.298828 44.376 6.91974 44.376 15.0876C44.376 23.2554 50.9969 29.8763 59.1647 29.8763Z" fill="#009393"/>
<path fill-rule="evenodd" clip-rule="evenodd" d="M66.3563 8.32715V11.0235H60.9571V12.8929C64.7491 13.0927 67.5942 13.9132 67.6153 14.8966L67.6151 16.9469C67.594 17.9304 64.7491 18.7508 60.9571 18.9507V23.5385H57.372V18.9507C53.5799 18.7508 50.7349 17.9304 50.7139 16.9469L50.7139 14.8966C50.735 13.9132 53.5799 13.0927 57.372 12.8929V11.0235H51.9728V8.32715H66.3563ZM59.1646 17.5421C63.2113 17.5421 66.5937 16.8483 67.4215 15.9218C66.7195 15.1361 64.1805 14.5177 60.9571 14.3479V16.3052C60.3794 16.3357 59.7796 16.3517 59.1646 16.3517C58.5494 16.3517 57.9497 16.3357 57.372 16.3052V14.3479C54.1486 14.5177 51.6096 15.1361 50.9076 15.9218C51.7353 16.8483 55.1178 17.5421 59.1646 17.5421Z" fill="white"/>
</g>
<g clip-path="url(#clip1_2608_3536)">
<path d="M37.333 30C45.6173 30 52.333 23.2843 52.333 15C52.333 6.71573 45.6173 0 37.333 0C29.0487 0 22.333 6.71573 22.333 15C22.333 23.2843 29.0487 30 37.333 30Z" fill="#627EEA"/>
<path d="M37.7998 3.75V12.0656L44.8282 15.2062L37.7998 3.75Z" fill="white" fill-opacity="0.602"/>
<path d="M37.7999 3.75L30.7705 15.2062L37.7999 12.0656V3.75Z" fill="white"/>
<path d="M37.7998 20.5946V26.245L44.8329 16.5146L37.7998 20.5946Z" fill="white" fill-opacity="0.602"/>
<path d="M37.7999 26.245V20.5937L30.7705 16.5146L37.7999 26.245Z" fill="white"/>
<path d="M37.7998 19.2871L44.8282 15.2061L37.7998 12.0674V19.2871Z" fill="white" fill-opacity="0.2"/>
<path d="M30.7705 15.2061L37.7999 19.2871V12.0674L30.7705 15.2061Z" fill="white" fill-opacity="0.602"/>
</g>
<g clip-path="url(#clip2_2608_3536)">
<path d="M29.8842 18.6287C27.8806 26.6654 19.7407 31.5564 11.7031 29.5523C3.6688 27.5487 -1.22218 19.4083 0.782286 11.3723C2.78499 3.33471 10.9249 -1.55663 18.96 0.446948C26.9971 2.45053 31.8878 10.5918 29.884 18.6289L29.8841 18.6287H29.8842Z" fill="#F7931A"/>
<path d="M21.9484 12.8626C22.247 10.8662 20.7271 9.79302 18.6487 9.07713L19.3229 6.37284L17.6768 5.96264L17.0204 8.59574C16.5876 8.4878 16.1432 8.3861 15.7015 8.28527L16.3626 5.6348L14.7174 5.22461L14.0428 7.92802C13.6847 7.84649 13.333 7.7659 12.9917 7.68099L12.9936 7.67248L10.7235 7.10559L10.2856 8.86382C10.2856 8.86382 11.5069 9.14378 11.4812 9.16102C12.1478 9.32739 12.2683 9.76868 12.2483 10.1184L11.4803 13.1993C11.5262 13.2109 11.5857 13.2278 11.6514 13.2542C11.5965 13.2406 11.5381 13.2257 11.4774 13.2112L10.4009 17.527C10.3194 17.7295 10.1127 18.0334 9.64659 17.918C9.66309 17.9419 8.45011 17.6194 8.45011 17.6194L7.63281 19.5038L9.77506 20.0378C10.1736 20.1378 10.5641 20.2423 10.9487 20.3406L10.2675 23.076L11.9118 23.4862L12.5864 20.7799C13.0356 20.9018 13.4715 21.0143 13.8983 21.1203L13.226 23.8139L14.8722 24.224L15.5534 21.4939C18.3605 22.0251 20.4712 21.8109 21.3596 19.2719C22.0755 17.2277 21.324 16.0486 19.8472 15.2797C20.9228 15.0316 21.733 14.3242 21.949 12.8628L21.9485 12.8624L21.9484 12.8626ZM18.1873 18.1367C17.6785 20.1809 14.2367 19.0758 13.1208 18.7987L14.0248 15.1749C15.1406 15.4535 18.719 16.0048 18.1873 18.1367H18.1873ZM18.6964 12.8329C18.2323 14.6924 15.3676 13.7477 14.4384 13.516L15.2579 10.2295C16.1872 10.4611 19.1798 10.8934 18.6965 12.8329H18.6964Z" fill="white"/>
</g>
<defs>
<clipPath id="clip0_2608_3536">
<rect width="30" height="30" fill="white" transform="translate(44.333)"/>
</clipPath>
<clipPath id="clip1_2608_3536">
<rect width="30" height="30" fill="white" transform="translate(22.333)"/>
</clipPath>
<clipPath id="clip2_2608_3536">
<rect width="30" height="30.0034" fill="white" transform="translate(0.333008 -0.00195312)"/>
</clipPath>
</defs>
</svg>
