<svg width="20" height="20" viewBox="0 0 20 20" fill="none" xmlns="http://www.w3.org/2000/svg">
<path d="M9.96554 2.50018C10.9604 2.50344 11.9447 2.70398 12.8616 3.09018C13.7784 3.47638 14.6096 4.04058 15.3069 4.75013H12.9655C12.7666 4.75013 12.5758 4.82914 12.4352 4.96979C12.2945 5.11044 12.2155 5.3012 12.2155 5.50011C12.2155 5.69902 12.2945 5.88978 12.4352 6.03043C12.5758 6.17108 12.7666 6.2501 12.9655 6.2501H16.0727C16.442 6.2499 16.7961 6.1031 17.0572 5.84196C17.3184 5.58082 17.4652 5.22669 17.4654 4.85738V1.75019C17.4654 1.55128 17.3864 1.36052 17.2457 1.21987C17.1051 1.07922 16.9143 1.00021 16.7154 1.00021C16.5165 1.00021 16.3257 1.07922 16.1851 1.21987C16.0444 1.36052 15.9654 1.55128 15.9654 1.75019V3.30866C14.7258 2.19227 13.1999 1.443 11.5586 1.14477C9.91725 0.846526 8.2253 1.01109 6.6722 1.62003C5.1191 2.22897 3.76618 3.25824 2.76495 4.59257C1.76372 5.92691 1.15371 7.51363 1.00323 9.17503C0.993541 9.27948 1.00571 9.38479 1.03897 9.48427C1.07223 9.58374 1.12585 9.6752 1.19641 9.75281C1.26696 9.83042 1.35291 9.89249 1.44878 9.93505C1.54464 9.97761 1.64832 9.99974 1.75321 10C1.93665 10.0024 2.11436 9.93615 2.25155 9.81436C2.38874 9.69256 2.47553 9.52395 2.49495 9.34153C2.6619 7.47463 3.52091 5.73763 4.90321 4.47176C6.28551 3.20589 8.09119 2.50265 9.96554 2.50018Z" fill="#CCCCCC"/>
<path d="M18.179 10.0001C17.9955 9.99772 17.8178 10.0639 17.6807 10.1857C17.5435 10.3075 17.4567 10.4761 17.4373 10.6585C17.3133 12.0859 16.7825 13.4478 15.9078 14.5826C15.0331 15.7174 13.8512 16.5775 12.5025 17.0608C11.1537 17.5442 9.69456 17.6305 8.2982 17.3095C6.90185 16.9885 5.62687 16.2737 4.62452 15.2499H6.96597C7.16488 15.2499 7.35564 15.1709 7.49629 15.0303C7.63694 14.8896 7.71595 14.6989 7.71595 14.5C7.71595 14.3011 7.63694 14.1103 7.49629 13.9696C7.35564 13.829 7.16488 13.75 6.96597 13.75H3.85879C3.67586 13.7499 3.49471 13.7858 3.3257 13.8558C3.15668 13.9258 3.00311 14.0283 2.87376 14.1577C2.74442 14.287 2.64183 14.4406 2.57188 14.6096C2.50192 14.7786 2.46597 14.9598 2.46606 15.1427V18.2499C2.46606 18.4488 2.54508 18.6396 2.68573 18.7802C2.82638 18.9209 3.01714 18.9999 3.21605 18.9999C3.41496 18.9999 3.60572 18.9209 3.74637 18.7802C3.88702 18.6396 3.96603 18.4488 3.96603 18.2499V16.6914C5.20563 17.8078 6.73153 18.5571 8.37287 18.8553C10.0142 19.1536 11.7062 18.989 13.2592 18.38C14.8123 17.7711 16.1653 16.7418 17.1665 15.4075C18.1677 14.0732 18.7777 12.4865 18.9282 10.825C18.9379 10.7206 18.9257 10.6153 18.8925 10.5158C18.8592 10.4163 18.8056 10.3249 18.735 10.2473C18.6645 10.1697 18.5785 10.1076 18.4827 10.065C18.3868 10.0225 18.2839 10.0003 18.179 10.0001Z" fill="#CCCCCC"/>
</svg>
