<svg width="48" height="48" viewBox="0 0 48 48" fill="none" xmlns="http://www.w3.org/2000/svg">
<path d="M48 20.7083V28.4795H45.2251V23.0282H42.5532V28.4795H39.7782V20.7078H48V20.7083Z" fill="white"/>
<path fill-rule="evenodd" clip-rule="evenodd" d="M34.0792 28.7599C36.5633 28.7599 38.408 27.2368 38.408 24.9278C38.408 22.6929 37.047 21.2419 34.7724 21.2419C33.7227 21.2419 32.8565 21.6114 32.2041 22.249C32.3598 20.9312 33.4742 19.9691 34.7012 19.9691C34.9843 19.9691 37.1161 19.9646 37.1161 19.9646L38.3216 17.6577C38.3216 17.6577 35.6452 17.7186 34.4011 17.7186C31.5583 17.7682 29.6382 20.3521 29.6382 23.4905C29.6382 27.1467 31.5109 28.7599 34.0792 28.7599ZM34.0943 23.2852C35.0166 23.2852 35.6561 23.8913 35.6561 24.9275C35.6561 25.8602 35.0879 26.6286 34.0943 26.6307C33.1439 26.6307 32.5045 25.9187 32.5045 24.9434C32.5045 23.9069 33.1439 23.2852 34.0943 23.2852Z" fill="white"/>
<path d="M27.3795 25.8765C27.3795 25.8765 26.7241 26.2543 25.7454 26.3258C24.6202 26.3592 23.6176 25.6485 23.6176 24.3858C23.6176 23.154 24.5023 22.4481 25.717 22.4481C26.4619 22.4481 27.4473 22.9644 27.4473 22.9644C27.4473 22.9644 28.1683 21.6413 28.5418 20.9796C27.8578 20.4612 26.9469 20.177 25.8874 20.177C23.2134 20.177 21.1422 21.9205 21.1422 24.3701C21.1422 26.8511 23.0889 28.554 25.8874 28.5026C26.6696 28.4735 27.7487 28.1988 28.4064 27.7763L27.3795 25.8765Z" fill="white"/>
<g clip-path="url(#clip0_2498_3054)">
<path d="M0 17.2458L2.92737 22.4625V25.6445L0.00342454 30.8509L0 17.2458Z" fill="#5B57A2"/>
<path d="M11.2399 20.5642L13.983 18.888L19.5968 18.8828L11.2399 23.9868V20.5642Z" fill="#D90751"/>
<path d="M11.2244 17.215L11.2399 24.1217L8.30573 22.3242V12L11.2244 17.215Z" fill="#FAB718"/>
<path d="M19.5968 18.8828L13.9828 18.888L11.2244 17.215L8.30573 12L19.5968 18.8828Z" fill="#ED6F26"/>
<path d="M11.2399 30.8798V27.5289L8.30573 25.7656L8.30734 36.1001L11.2399 30.8798Z" fill="#63B22F"/>
<path d="M13.9761 29.2189L2.92717 22.4625L0 17.2458L19.5849 29.2121L13.9761 29.2189Z" fill="#1487C9"/>
<path d="M8.3075 36.0999L11.2397 30.8796L13.9759 29.2187L19.5847 29.2119L8.3075 36.0999Z" fill="#017F36"/>
<path d="M0.00335693 30.8509L8.32961 25.7658L5.53036 24.0535L2.92731 25.6445L0.00335693 30.8509Z" fill="#984995"/>
</g>
<defs>
<clipPath id="clip0_2498_3054">
<rect width="19.54" height="24.1" fill="white" transform="translate(0 12)"/>
</clipPath>
</defs>
</svg>
