<svg width="20" height="20" viewBox="0 0 20 20" fill="none" xmlns="http://www.w3.org/2000/svg">
<path d="M18.4306 16.8885L15.0433 13.4997C17.5779 10.1126 16.8868 5.31205 13.4997 2.77745C10.1126 0.24286 5.31205 0.933961 2.77745 4.32106C0.24286 7.70816 0.933961 12.5087 4.32106 15.0433C7.04186 17.0793 10.7788 17.0793 13.4997 15.0433L16.8885 18.4321C17.3143 18.8579 18.0048 18.8579 18.4306 18.4321C18.8565 18.0062 18.8565 17.3158 18.4306 16.8899L18.4306 16.8885ZM8.9386 14.3892C5.92831 14.3892 3.48801 11.9489 3.48801 8.9386C3.48801 5.92831 5.92831 3.48801 8.9386 3.48801C11.9489 3.48801 14.3892 5.92831 14.3892 8.9386C14.386 11.9475 11.9476 14.386 8.9386 14.3892Z" fill="#CCCCCC"/>
</svg>
