<svg width="20" height="20" viewBox="0 0 20 20" fill="none" xmlns="http://www.w3.org/2000/svg">
<path d="M16.6105 7.81677L4.64178 2.18612C3.96571 1.85741 3.16895 1.97076 2.60955 2.47348C2.04882 2.97821 1.85413 3.7623 2.11282 4.47038C2.12416 4.49905 5.05383 10.0017 5.05383 10.0017C5.05383 10.0017 2.17816 15.503 2.16816 15.531C1.91013 16.2397 2.10682 17.0225 2.66755 17.5266C3.01493 17.8379 3.45365 17.9986 3.89503 17.9986C4.16773 17.9986 4.44109 17.9373 4.69579 17.8126L16.6118 12.1866C17.4686 11.7846 18.0007 10.9471 18 10.001C18 9.05425 17.4659 8.21682 16.6105 7.81677ZM3.35297 3.97632C3.27162 3.69963 3.44498 3.51627 3.50165 3.46427C3.56099 3.41159 3.77768 3.24824 4.06038 3.38692C4.06372 3.38826 16.0444 9.02424 16.0444 9.02424C16.2038 9.09892 16.3365 9.20426 16.4385 9.33228H6.20863L3.35297 3.97632ZM16.0438 10.9798L4.11706 16.6111C3.83369 16.7505 3.61766 16.5878 3.55832 16.5338C3.50098 16.4831 3.32763 16.2984 3.40964 16.0211L6.2113 10.6658H16.4425C16.3405 10.7958 16.2051 10.9038 16.0438 10.9798Z" fill="white"/>
</svg>
