<svg width="20" height="20" viewBox="0 0 20 20" fill="none" xmlns="http://www.w3.org/2000/svg">
<path d="M11.3739 3.66655C11.3739 2.74673 10.6283 2.00106 9.70845 2.00106C8.78863 2.00106 8.04297 2.74673 8.04297 3.66655C8.04297 4.58637 8.78863 5.33203 9.70845 5.33203C10.6283 5.33203 11.3739 4.58637 11.3739 3.66655Z" fill="#CCCCCC"/>
<path d="M11.331 10.0064C11.331 9.08657 10.5853 8.34091 9.66548 8.34091C8.74566 8.34091 8 9.08657 8 10.0064C8 10.9262 8.74566 11.6719 9.66548 11.6719C10.5853 11.6719 11.331 10.9262 11.331 10.0064Z" fill="#CCCCCC"/>
<path d="M11.331 16.3345C11.331 15.4147 10.5853 14.669 9.66548 14.669C8.74566 14.669 8 15.4147 8 16.3345C8 17.2543 8.74566 18 9.66548 18C10.5853 18 11.331 17.2543 11.331 16.3345Z" fill="#CCCCCC"/>
</svg>
