<svg width="20" height="20" viewBox="0 0 20 20" fill="none" xmlns="http://www.w3.org/2000/svg">
<g clip-path="url(#clip0_2800_4130)">
<path d="M17.5002 10C17.5 9.54022 17.4581 9.0814 17.3752 8.62917L19.911 7.16667L17.411 2.83333L14.8744 4.29917C14.174 3.69994 13.3691 3.23495 12.5002 2.9275V0H7.50019V2.9275C6.63124 3.23495 5.8264 3.69994 5.12602 4.29917L2.58936 2.83333L0.0893555 7.16667L2.62519 8.62917C2.45861 9.53546 2.45861 10.4645 2.62519 11.3708L0.0893555 12.8333L2.58936 17.1667L5.12602 15.7017C5.82647 16.3006 6.6313 16.7653 7.50019 17.0725V20H12.5002V17.0725C13.3691 16.7651 14.174 16.3001 14.8744 15.7008L17.411 17.1667L19.911 12.8333L17.3752 11.3708C17.4581 10.9186 17.5 10.4598 17.5002 10ZM12.5002 10C12.5002 10.4945 12.3536 10.9778 12.0789 11.3889C11.8042 11.8 11.4137 12.1205 10.9569 12.3097C10.5001 12.4989 9.99742 12.5484 9.51246 12.452C9.02751 12.3555 8.58205 12.1174 8.23242 11.7678C7.88279 11.4181 7.64469 10.9727 7.54823 10.4877C7.45176 10.0028 7.50127 9.50011 7.69049 9.04329C7.87971 8.58648 8.20014 8.19603 8.61126 7.92133C9.02239 7.64662 9.50574 7.5 10.0002 7.5C10.6632 7.5 11.2991 7.76339 11.768 8.23223C12.2368 8.70107 12.5002 9.33696 12.5002 10Z" fill="white" fill-opacity="0.4"/>
</g>
<defs>
<clipPath id="clip0_2800_4130">
<rect width="20" height="20" fill="white"/>
</clipPath>
</defs>
</svg>
