<svg width="72" height="72" viewBox="0 0 72 72" fill="none" xmlns="http://www.w3.org/2000/svg">
<path d="M63.8806 8.74008C55.0217 12.4092 17.036 28.1434 6.54051 32.4317C-0.498208 35.1785 3.62235 37.7539 3.62235 37.7539C3.62235 37.7539 9.63075 39.8138 14.7816 41.359C19.9318 42.9041 22.6786 41.1876 22.6786 41.1876L46.885 24.8782C55.4688 19.0411 53.4089 23.8478 51.3483 25.9085C46.885 30.3725 39.5028 37.4105 33.3223 43.0762C30.5755 45.4795 31.9486 47.5394 33.151 48.5698C37.6143 52.3469 49.8039 60.0725 50.49 60.5873C54.1167 63.1548 61.2504 66.8506 62.3355 59.0422L66.6274 32.089C68.0012 22.9903 69.3742 14.5778 69.5456 12.1745C70.0611 6.33672 63.8806 8.74008 63.8806 8.74008Z" fill="white"/>
</svg>
