<svg width="48" height="48" viewBox="0 0 48 48" fill="none" xmlns="http://www.w3.org/2000/svg">
<path d="M31.3218 17.562C31.1699 17.4834 31.0221 17.3973 30.8788 17.304C30.4625 17.0287 30.0807 16.7044 29.7418 16.338C28.8928 15.367 28.5758 14.382 28.4598 13.693H28.4638C28.3668 13.12 28.4068 12.75 28.4138 12.75H24.5488V27.693C24.5488 27.893 24.5488 28.092 24.5408 28.288C24.5408 28.312 24.5378 28.334 24.5368 28.361C24.5368 28.371 24.5368 28.383 24.5338 28.394V28.403C24.4932 28.939 24.3215 29.4569 24.0338 29.9109C23.7461 30.365 23.3512 30.7414 22.8838 31.007C22.3962 31.2844 21.8448 31.4298 21.2838 31.429C19.4838 31.429 18.0238 29.961 18.0238 28.148C18.0238 26.334 19.4838 24.866 21.2838 24.866C21.6248 24.866 21.9638 24.92 22.2878 25.026L22.2928 21.09C21.3088 20.963 20.3092 21.0415 19.357 21.3203C18.4049 21.5991 17.5209 22.0723 16.7608 22.71C16.0947 23.2885 15.5346 23.9789 15.1058 24.75C14.9428 25.031 14.3268 26.162 14.2528 27.996C14.2058 29.036 14.5188 30.116 14.6678 30.561V30.571C14.7608 30.833 15.1248 31.729 15.7168 32.484C16.1942 33.09 16.7583 33.6224 17.3908 34.064V34.054L17.3998 34.064C19.2698 35.334 21.3448 35.251 21.3448 35.251C21.7038 35.236 22.9068 35.251 24.2728 34.604C25.7878 33.886 26.6498 32.817 26.6498 32.817C27.2009 32.1781 27.6392 31.45 27.9458 30.664C28.2958 29.744 28.4118 28.642 28.4118 28.202V20.273C28.4588 20.301 29.0838 20.714 29.0838 20.714C29.0838 20.714 29.9838 21.291 31.3868 21.666C32.3928 21.933 33.7498 21.99 33.7498 21.99V18.153C33.2748 18.205 32.3098 18.055 31.3208 17.563" fill="#FE2C55"/>
</svg>
