<svg width="48" height="48" viewBox="0 0 48 48" fill="none" xmlns="http://www.w3.org/2000/svg">
<g clip-path="url(#clip0_2743_10066)">
<path fill-rule="evenodd" clip-rule="evenodd" d="M32.8546 20.5429C33.0318 20.5429 33.15 20.602 33.15 20.7792L32.9137 24.7974L34.8046 20.602C34.8637 20.4838 34.9818 20.4247 35.1 20.4247H38.5864C38.7046 20.4247 38.8228 20.5429 38.8228 20.661C38.8228 20.7201 38.8228 20.7201 38.8228 20.7792L34.2728 30.8247C34.2137 30.9429 34.0955 31.002 33.9773 31.002H29.1318C28.9546 31.002 28.8364 30.8838 28.8364 30.7065L29.4864 20.8383C29.4864 20.661 29.6046 20.5429 29.7818 20.5429H32.8546ZM16.25 20.5429L15.9546 21.7838C16.4187 21.3197 16.9591 20.7201 17.55 20.5429H20.6818C20.8408 20.5429 20.994 20.661 20.8 20.8383C19.8546 21.4883 19.0864 22.0201 18.6137 22.552C18.2591 22.9065 17.8455 23.4974 17.4318 24.3838L17.0773 25.3292L16.7818 26.3929L15.8364 30.7656C15.8364 30.8838 15.6591 31.002 15.5409 31.002H11.9955C11.8182 31.002 11.7 30.8838 11.7 30.7065V30.6474L13.7682 20.7792C13.7682 20.661 13.9455 20.5429 14.0637 20.5429H16.25ZM23.5182 20.4838C26.4137 20.4838 28.7182 22.7883 28.7182 25.6838C28.7182 28.5792 26.4137 30.8838 23.5182 30.8838C20.6228 30.8838 18.3182 28.5792 18.3182 25.6838C18.3182 22.7883 20.6228 20.4838 23.5182 20.4838ZM42.7228 20.4838C45.6182 20.4838 47.9228 22.7883 47.9228 25.6838C47.9228 28.5792 45.6182 30.8838 42.7228 30.8838C39.8273 30.8838 37.5228 28.5792 37.5228 25.6838C37.5228 22.7883 39.8273 20.4838 42.7228 20.4838ZM23.5182 24.0292C22.5728 24.0292 21.8637 24.7974 21.8637 25.6838C21.8637 26.5702 22.6318 27.3383 23.5182 27.3383C24.4046 27.3383 25.1728 26.5702 25.1728 25.6838C25.1728 24.7974 24.4637 24.0292 23.5182 24.0292ZM8.98184 18.002C9.15912 18.002 9.2773 18.1201 9.2773 18.2974V18.3565L8.86366 20.2474C8.86366 20.3065 8.92275 20.4247 8.98184 20.4247C8.98184 20.4247 8.98184 20.4247 9.04093 20.4247H12.8228C13 20.4247 13.1727 20.5429 13.1182 20.7792L12.2318 24.502C12.1728 24.6792 12.0546 24.7383 11.8773 24.7383L9.80912 24.6202C9.15911 24.6202 8.45002 24.7974 7.91821 25.3883C7.20911 26.0974 7.15002 27.1611 7.44548 27.9292C7.74093 28.6974 8.56821 29.1111 9.39548 28.9338C10.0455 28.8156 10.4 28.1656 10.3409 27.6338C10.2818 27.0429 10.0455 26.8656 9.69093 26.8656C9.33639 26.8656 9.21821 27.0429 9.21821 27.2202C9.21821 27.3974 9.2773 27.5156 9.39548 27.6338C9.57275 27.8111 9.21821 28.3429 8.74548 28.0474C8.45002 27.8702 8.27275 27.5156 8.33184 26.9838C8.39093 26.3338 8.92275 25.7429 9.86821 25.7429C10.8137 25.7429 11.5228 26.3338 11.7 27.2202C11.9955 28.3429 11.4046 29.702 10.0455 30.4111C8.39093 31.2974 5.61366 31.2383 4.07727 29.5838C3.19091 28.6383 2.89545 27.3974 2.95455 26.2747C2.95455 25.9202 3.01364 25.5065 3.13182 25.152C3.13182 25.0338 3.07273 24.9156 2.95455 24.8565H2.89545H0.295455C0.118182 24.8565 0 24.6792 0 24.502V24.4429L0.827273 20.8383C0.886364 20.602 1.06364 20.4838 1.3 20.4838H3.84091C3.95909 20.4247 4.07727 20.3656 4.13636 20.1883L4.55 18.3565C4.60909 18.1201 4.84548 18.002 5.02275 18.002H8.98184ZM42.7228 24.0292C43.6682 24.0292 44.3773 24.7974 44.3773 25.6838C44.3773 26.5702 43.6091 27.3383 42.7228 27.3383C41.8364 27.3383 41.0682 26.5702 41.0682 25.6838C41.0682 24.7974 41.8364 24.0292 42.7228 24.0292Z" fill="#19D66B"/>
</g>
<defs>
<clipPath id="clip0_2743_10066">
<rect width="47.9227" height="13" fill="white" transform="translate(0 18)"/>
</clipPath>
</defs>
</svg>
