<svg width="20" height="20" viewBox="0 0 20 20" fill="none" xmlns="http://www.w3.org/2000/svg">
<g clip-path="url(#clip0_2337_5493)">
<path d="M9.17218 2.14863L9.16635 15.0136C9.16635 15.2346 9.25414 15.4466 9.41042 15.6029C9.5667 15.7592 9.77867 15.847 9.99968 15.847C10.2207 15.847 10.4327 15.7592 10.5889 15.6029C10.7452 15.4466 10.833 15.2346 10.833 15.0136L10.8388 2.1628L13.2655 4.5903C13.4218 4.74653 13.6337 4.83429 13.8547 4.83429C14.0756 4.83429 14.2876 4.74653 14.4438 4.5903C14.6001 4.43403 14.6878 4.2221 14.6878 4.00113C14.6878 3.78016 14.6001 3.56824 14.4438 3.41197L11.768 0.7328C11.5358 0.500483 11.2602 0.316191 10.9568 0.190454C10.6533 0.0647175 10.3281 0 9.99968 0C9.67124 0 9.34602 0.0647175 9.0426 0.190454C8.73918 0.316191 8.46351 0.500483 8.23135 0.7328L5.55551 3.40947C5.39929 3.56574 5.31152 3.77766 5.31152 3.99863C5.31152 4.2196 5.39929 4.43153 5.55551 4.5878C5.71178 4.74403 5.92371 4.83179 6.14468 4.83179C6.36565 4.83179 6.57757 4.74403 6.73385 4.5878L9.17218 2.14863Z" fill="#CCCCCC"/>
<path d="M18.3333 14.1663V17.4997C18.3333 17.7207 18.2455 17.9327 18.0893 18.0889C17.933 18.2452 17.721 18.333 17.5 18.333H2.5C2.27899 18.333 2.06702 18.2452 1.91074 18.0889C1.75446 17.9327 1.66667 17.7207 1.66667 17.4997V14.1663C1.66667 13.9453 1.57887 13.7334 1.42259 13.5771C1.26631 13.4208 1.05435 13.333 0.833333 13.333C0.61232 13.333 0.400358 13.4208 0.244078 13.5771C0.0877974 13.7334 0 13.9453 0 14.1663L0 17.4997C0 18.1627 0.263392 18.7986 0.732233 19.2674C1.20107 19.7363 1.83696 19.9997 2.5 19.9997H17.5C18.163 19.9997 18.7989 19.7363 19.2678 19.2674C19.7366 18.7986 20 18.1627 20 17.4997V14.1663C20 13.9453 19.9122 13.7334 19.7559 13.5771C19.5996 13.4208 19.3877 13.333 19.1667 13.333C18.9457 13.333 18.7337 13.4208 18.5774 13.5771C18.4211 13.7334 18.3333 13.9453 18.3333 14.1663Z" fill="#CCCCCC"/>
</g>
<defs>
<clipPath id="clip0_2337_5493">
<rect width="20" height="20" fill="white"/>
</clipPath>
</defs>
</svg>
