<svg width="838" height="289" viewBox="0 0 838 289" fill="none" xmlns="http://www.w3.org/2000/svg">
  <g filter="url(#filter0_di_306_675)">
    <path d="M92.9852 208.931H94.3984L118.68 34.7871H152.596L112.641 253.975H74.6136L34.7871 34.7871H68.8323L92.9852 208.931ZM269.25 253.975H235.847L229.808 214.706H189.211L183.43 253.975H149.899L190.753 34.7871H228.267L269.25 253.975ZM369.201 178.902H369.972C369.629 174.368 369.158 169.32 368.559 163.759C368.045 158.112 367.574 151.354 367.146 143.483C366.717 135.612 366.503 126.03 366.503 114.737V34.7871H396.052V253.975H369.458L316.142 113.71H315.114C315.543 118.843 316.014 124.447 316.527 130.521C317.041 136.596 317.512 144.253 317.941 153.492C318.369 162.732 318.583 174.752 318.583 189.553V253.975H289.291V34.7871H315.628L369.201 178.902ZM465.684 253.975H432.41V34.7871H465.684V253.975ZM535.316 227.796H580.667V253.975H502.042V34.7871H535.316V227.796ZM630.386 227.796H675.737V253.975H597.112V34.7871H630.386V227.796ZM803.182 253.975H769.779L763.741 214.706H723.143L717.362 253.975H683.831L724.685 34.7871H762.199L803.182 253.975ZM193.065 189.682H225.954L210.281 79.9593H208.867L193.065 189.682ZM726.997 189.682H759.886L744.213 79.9593H742.799L726.997 189.682Z" fill="url(#paint0_linear_306_675)"/>
  </g>
  <g filter="url(#filter1_n_306_675)">
    <path d="M326.187 105.613C328.201 105.613 329.208 106.417 329.209 108.027C329.209 109.033 328.403 109.939 326.792 110.744C326.188 110.945 325.381 111.448 324.374 112.253C323.568 112.857 321.957 114.466 319.54 117.082C317.324 119.697 315.31 122.715 313.497 126.136C311.684 129.556 310.073 134.385 308.663 140.623C307.253 146.659 306.548 153.4 306.548 160.845C306.548 183.983 304.332 201.387 299.9 213.057C296.274 222.916 290.534 231.267 282.678 238.108C274.823 244.748 267.471 249.276 260.622 251.69C253.975 254.105 247.932 255.311 242.493 255.311C227.788 255.311 220.437 249.577 220.437 238.108C220.437 226.438 226.882 215.875 239.774 206.418C245.817 201.992 252.363 199.074 259.413 197.665C260.42 197.665 260.923 198.068 260.923 198.872C260.923 199.275 260.722 199.677 260.32 200.079C255.284 203.902 250.449 209.838 245.817 217.886C241.385 225.934 239.169 232.977 239.169 239.013C239.169 245.049 241.687 248.068 246.723 248.068C250.751 248.068 254.679 246.458 258.507 243.239C262.535 239.819 265.556 236.398 267.571 232.977L270.593 228.148C274.622 221.71 277.944 211.448 280.563 197.363C283.383 183.279 285.196 170.804 286.002 159.939L286.908 143.641C286.908 142.031 286.606 141.227 286.002 141.227L284.794 141.831L254.881 176.84C254.866 176.857 254.851 176.873 254.836 176.89L253.464 169.549L253.672 169.296C276.635 143.541 289.729 127.946 292.952 122.514C295.973 117.886 300.404 113.862 306.245 110.442C311.885 107.223 318.533 105.613 326.187 105.613ZM408.805 105.613C410.819 105.613 411.827 106.417 411.828 108.027C411.828 109.033 411.021 109.939 409.41 110.744C408.806 110.945 408 111.448 406.993 112.253C406.188 112.856 404.576 114.466 402.159 117.082C399.943 119.697 397.928 122.715 396.115 126.136C394.302 129.556 392.691 134.385 391.281 140.623C389.871 146.659 389.167 153.4 389.167 160.845C389.167 183.983 386.951 201.387 382.519 213.057C378.893 222.916 373.152 231.267 365.296 238.108C357.44 244.748 350.088 249.276 343.24 251.69C336.593 254.105 330.549 255.311 325.111 255.311C310.406 255.311 303.055 249.577 303.054 238.108C303.054 226.438 309.5 215.875 322.392 206.418C328.435 201.992 334.981 199.074 342.031 197.665C343.038 197.665 343.542 198.068 343.542 198.872C343.542 199.275 343.34 199.677 342.937 200.079C337.902 203.902 333.067 209.838 328.434 217.886C324.003 225.934 321.787 232.977 321.787 239.013C321.787 245.049 324.306 248.068 329.342 248.068C333.37 248.068 337.298 246.458 341.124 243.239C345.153 239.819 348.175 236.398 350.19 232.977L353.211 228.148C357.239 221.71 360.563 211.448 363.182 197.363C366.002 183.279 367.814 170.804 368.62 159.939L369.527 143.641C369.527 142.031 369.224 141.227 368.62 141.227L367.411 141.831L337.5 176.84C335.284 179.456 333.772 180.763 332.966 180.763C331.96 180.763 331.456 180.06 331.456 178.651C331.456 176.036 332.161 174.023 333.571 172.614L336.29 169.296C359.253 143.541 372.347 127.946 375.569 122.514C378.591 117.886 383.023 113.862 388.864 110.442C394.504 107.223 401.151 105.613 408.805 105.613ZM496.258 114.969C498.509 114.969 500.436 115.226 502.042 115.738V142.794C497.914 149.577 491.656 156.802 483.266 164.467C466.749 179.557 448.217 191.025 427.671 198.872C426.865 199.074 426.161 199.778 425.556 200.985C422.535 209.235 421.023 216.579 421.023 223.017C421.023 230.261 423.743 233.883 429.181 233.883C430.219 233.883 431.294 233.788 432.41 233.6V245.524C422.777 251.243 414.651 254.104 408.031 254.104C398.765 254.104 394.133 247.665 394.133 234.788C394.133 213.46 401.988 191.126 417.7 167.785C433.613 144.446 451.943 128.651 472.69 120.402C481.352 116.78 489.208 114.969 496.258 114.969ZM698.701 115.271C703.773 115.271 707.205 116.489 709.002 118.922L704.82 141.358C701.565 146.667 696.908 152.258 690.846 158.128C689.637 159.335 687.019 161.449 682.99 164.467C678.962 167.485 676.141 168.993 674.53 168.994C673.523 168.994 673.019 168.49 673.019 167.485L673.925 164.768C681.982 150.482 686.011 139.617 686.011 132.173C686.011 128.149 684.702 126.136 682.083 126.136C675.839 126.136 667.882 132.273 658.214 144.547C648.746 156.619 640.487 170.502 633.437 186.196C626.387 201.689 622.863 213.963 622.863 223.017C622.863 230.261 625.481 233.883 630.718 233.883C639.783 233.883 651.164 227.344 664.861 214.265C673.431 206.351 684.983 194.286 699.523 178.075C701.503 174.667 703.655 171.237 705.979 167.785C719.208 148.382 734.107 134.194 750.677 125.22L752.217 135.992C746.829 141.779 740.48 150.264 733.172 161.448C723.906 175.733 719.274 184.888 719.274 188.912C719.274 189.717 719.474 190.12 719.877 190.12C721.086 190.12 723.704 189.114 727.733 187.102C731.963 185.09 737.905 180.361 745.56 172.916C749.269 169.401 752.686 165.482 755.812 161.159L757.897 175.764C744.997 185.413 731.016 193.118 715.95 198.872C715.144 199.074 714.439 199.778 713.835 200.985C710.813 209.235 709.303 216.579 709.303 223.017C709.303 230.261 712.022 233.883 717.461 233.883C726.122 233.883 737.503 227.344 751.603 214.265C762.279 204.406 777.587 188.108 797.529 165.372C798.133 164.768 798.637 164.467 799.04 164.467C799.442 164.467 799.644 164.869 799.644 165.674C799.644 169.496 798.134 173.219 795.112 176.84C780.206 193.339 767.012 207.122 755.531 218.188C747.07 226.639 736.999 234.788 725.316 242.635C713.633 250.281 703.965 254.104 696.31 254.104C687.044 254.104 682.411 247.665 682.411 234.788C682.411 222.245 685.128 209.355 690.562 196.117C682.724 204.392 675.467 211.751 668.788 218.188C659.724 226.84 649.451 234.989 637.969 242.635C626.689 250.08 617.121 253.802 609.266 253.802C600 253.802 595.367 246.659 595.367 232.373C595.367 220.809 598.504 208.301 604.773 194.847C596.475 203.642 588.818 211.423 581.799 218.188C578.098 221.663 574.596 224.866 571.293 227.795H535.316V227.745C536.91 224.365 538.405 221.279 539.801 218.49C541.211 215.673 542.62 213.058 544.03 210.643C545.44 208.229 546.146 206.92 546.146 206.719C549.167 201.287 553.699 193.741 559.742 184.083C565.785 174.224 570.619 166.176 574.245 159.939C577.87 153.501 579.683 149.577 579.684 148.169C579.684 147.163 579.18 146.66 578.173 146.66L573.943 148.169C564.678 154.809 553.598 165.17 540.707 179.254C527.815 193.138 517.24 205.412 508.982 216.076L496.593 231.77C493.974 235.593 491.659 238.712 489.644 241.126C487.63 243.541 484.709 245.855 480.882 248.068C477.256 250.482 473.529 251.69 469.702 251.69C467.512 251.69 466.173 251.204 465.684 250.232V248.016C466.277 245.78 468.12 241.572 471.213 235.392C475.04 227.545 478.867 220.099 482.695 213.057L488.435 202.796L497.273 187.3C486.222 199.251 476.216 209.548 467.252 218.188C466.736 218.704 466.213 219.219 465.684 219.733V212.049C476.212 202.04 490.735 186.482 509.251 165.372C509.604 165.019 509.923 164.77 510.208 164.624L518.046 150.885C521.067 145.854 523.485 142.031 525.298 139.416C527.312 136.599 530.031 133.178 533.456 129.154C536.88 124.929 540.506 121.81 544.333 119.798C548.361 117.786 552.591 116.578 557.023 116.176C558.634 116.176 559.44 116.88 559.44 118.289C559.44 119.496 559.138 120.502 558.533 121.307C553.9 128.55 546.749 140.522 537.081 157.223C527.613 173.923 521.571 184.788 518.953 189.818C518.348 191.026 518.046 191.931 518.046 192.534C518.046 192.937 518.247 193.138 518.65 193.138C519.053 193.138 520.061 192.534 521.672 191.327C525.499 186.901 530.434 181.367 536.477 174.727C542.721 168.088 553.196 158.128 567.9 144.849C579.177 134.51 588.915 126.776 597.112 121.644V160.065C595.358 163.101 593.478 166.279 591.468 169.596C576.159 194.747 568.504 209.638 568.504 214.265C568.504 215.875 569.21 216.679 570.62 216.679C571.627 216.679 572.735 216.378 573.943 215.774C575.353 214.969 576.864 213.963 578.475 212.756C580.087 211.348 581.396 210.14 582.403 209.134C583.611 208.128 585.123 206.82 586.936 205.21C588.748 203.4 589.855 202.293 590.258 201.89C597.342 194.814 606.332 185.127 617.23 172.831C626.855 158.333 638.4 145.685 651.869 134.889C668.386 121.81 683.997 115.271 698.701 115.271ZM251.765 18.3893C270.297 18.3893 285.202 18.8923 296.482 19.8983C299.504 19.8983 301.014 21.2067 301.014 23.8224C301.014 24.4261 300.713 25.5331 300.108 27.1423C293.461 43.8424 286.713 56.9204 279.864 66.377C278.857 67.383 277.749 67.886 276.54 67.886C274.728 67.8858 273.821 66.5784 273.821 63.9631C274.829 60.1402 275.332 56.0147 275.332 51.5881C275.332 35.0896 267.074 26.8405 250.557 26.8403H249.347C239.075 26.8404 231.723 29.6575 227.291 35.2913C217.018 47.9674 203.32 69.7982 186.199 100.784C184.184 104.204 181.667 108.531 178.645 113.762H215.109L216.375 122.628C204.528 123.155 191.447 123.42 177.135 123.42H173.509C145.107 174.929 128.187 209.838 122.749 228.148C121.943 230.563 121.539 232.776 121.539 234.788C121.539 240.824 126.877 243.842 137.553 243.842C141.984 243.842 146.82 243.038 152.057 241.428C152.121 241.406 152.185 241.381 152.25 241.358L150.343 251.589C145.247 251.655 140.078 251.69 134.834 251.69C113.886 251.69 96.9655 250.985 84.074 249.577C81.6569 249.376 80.448 247.967 80.448 245.351C80.4481 243.742 80.8507 242.132 81.6563 240.522C93.1379 214.767 114.792 175.633 146.618 123.118L136.535 122.893L138.145 114.064H152.358L188.919 55.5121C191.94 50.0796 193.451 45.1497 193.451 40.7232C193.451 37.7052 192.745 35.0895 191.335 32.8763C190.127 30.6632 188.818 29.1542 187.408 28.3493L185.293 27.1423C183.48 26.1364 182.574 25.0294 182.574 23.8224C182.574 23.0176 182.875 22.3129 183.48 21.7093C184.285 21.1057 185.092 20.7036 185.897 20.5024L187.106 20.2003C207.853 18.9931 229.406 18.3893 251.765 18.3893ZM231.219 173.823C232.83 173.823 233.636 174.627 233.636 176.236C233.636 176.639 233.434 177.444 233.031 178.651C223.363 203.4 211.076 225.533 196.17 245.05C194.961 247.867 191.94 249.677 187.106 250.482C186.048 250.534 184.987 250.583 183.922 250.631L188.527 219.351C191.194 216.974 193.945 214.375 196.774 211.548C206.242 202.092 215.91 190.623 225.78 177.143C226.989 174.929 228.802 173.823 231.219 173.823ZM477.525 127.042C476.316 127.042 474.906 127.444 473.295 128.249C471.885 128.852 470.777 129.557 469.971 130.362L468.461 131.569C462.216 137.001 454.361 146.961 444.894 161.448C435.628 175.733 430.995 184.888 430.994 188.912C430.994 189.717 431.196 190.12 431.599 190.12C432.808 190.12 435.426 189.114 439.455 187.102C443.685 185.09 449.627 180.361 457.281 172.916C465.137 165.472 471.684 156.216 476.921 145.15C479.338 140.12 480.546 135.693 480.546 131.871C480.546 128.651 479.539 127.042 477.525 127.042ZM784.537 114.969C792.392 114.969 796.32 118.088 796.321 124.325C796.321 132.544 792.22 141.61 784.026 151.526L777.301 115.56C779.8 115.166 782.212 114.969 784.537 114.969Z" fill="#E12F27"/>
  </g>
  <defs>
    <filter id="filter0_di_306_675" x="-3.43323e-05" y="-3.8147e-06" width="837.969" height="288.762" filterUnits="userSpaceOnUse" color-interpolation-filters="sRGB">
    <feFlood flood-opacity="0" result="BackgroundImageFix"/>
    <feColorMatrix in="SourceAlpha" type="matrix" values="0 0 0 0 0 0 0 0 0 0 0 0 0 0 0 0 0 0 127 0" result="hardAlpha"/>
    <feOffset/>
    <feGaussianBlur stdDeviation="17.3936"/>
    <feComposite in2="hardAlpha" operator="out"/>
    <feColorMatrix type="matrix" values="0 0 0 0 1 0 0 0 0 0.811765 0 0 0 0 0.407843 0 0 0 0.61 0"/>
    <feBlend mode="normal" in2="BackgroundImageFix" result="effect1_dropShadow_306_675"/>
    <feBlend mode="normal" in="SourceGraphic" in2="effect1_dropShadow_306_675" result="shape"/>
    <feColorMatrix in="SourceAlpha" type="matrix" values="0 0 0 0 0 0 0 0 0 0 0 0 0 0 0 0 0 0 127 0" result="hardAlpha"/>
    <feOffset/>
    <feGaussianBlur stdDeviation="2.4848"/>
    <feComposite in2="hardAlpha" operator="arithmetic" k2="-1" k3="1"/>
    <feColorMatrix type="matrix" values="0 0 0 0 1 0 0 0 0 0.81189 0 0 0 0 0.406731 0 0 0 0.72 0"/>
    <feBlend mode="normal" in2="shape" result="effect2_innerShadow_306_675"/>
    </filter>
    <filter id="filter1_n_306_675" x="80.448" y="18.3893" width="719.196" height="236.922" filterUnits="userSpaceOnUse" color-interpolation-filters="sRGB">
    <feFlood flood-opacity="0" result="BackgroundImageFix"/>
    <feBlend mode="normal" in="SourceGraphic" in2="BackgroundImageFix" result="shape"/>
    <feTurbulence type="fractalNoise" baseFrequency="0.66666668653488159 0.66666668653488159" stitchTiles="stitch" numOctaves="3" result="noise" seed="6592" />
    <feColorMatrix in="noise" type="luminanceToAlpha" result="alphaNoise" />
    <feComponentTransfer in="alphaNoise" result="coloredNoise1">
    <feFuncA type="discrete" tableValues="1 1 1 1 1 1 1 1 1 1 1 1 1 1 1 1 1 1 1 1 1 1 1 1 1 1 1 1 1 1 1 1 1 1 1 1 1 1 1 1 1 1 1 1 1 1 1 1 1 1 1 0 0 0 0 0 0 0 0 0 0 0 0 0 0 0 0 0 0 0 0 0 0 0 0 0 0 0 0 0 0 0 0 0 0 0 0 0 0 0 0 0 0 0 0 0 0 0 0 0 "/>
    </feComponentTransfer>
    <feComposite operator="in" in2="shape" in="coloredNoise1" result="noise1Clipped" />
    <feFlood flood-color="rgba(0, 0, 0, 0.08)" result="color1Flood" />
    <feComposite operator="in" in2="noise1Clipped" in="color1Flood" result="color1" />
    <feMerge result="effect1_noise_306_675">
    <feMergeNode in="shape" />
    <feMergeNode in="color1" />
    </feMerge>
    </filter>
    <linearGradient id="paint0_linear_306_675" x1="418.984" y1="34.7871" x2="418.984" y2="253.975" gradientUnits="userSpaceOnUse">
    <stop offset="0.544234" stop-color="#FDFDED"/>
    <stop offset="1" stop-color="#FDFDED"/>
    </linearGradient>
  </defs>
</svg>
