<svg width="48" height="48" viewBox="0 0 48 48" fill="none" xmlns="http://www.w3.org/2000/svg">
<path d="M23.781 16.9954L20.7765 31.0459H17.1405L20.1495 16.9954H23.781ZM39.0765 26.0674L40.989 20.7904L42.0915 26.0674H39.0765ZM43.131 31.0459H46.494L43.56 16.9954H40.4565C40.452 16.9954 40.446 16.9954 40.4415 16.9954C39.753 16.9954 39.162 17.4169 38.913 18.0154L38.9085 18.0259L33.456 31.0459H37.272L38.031 28.9459H42.6945L43.131 31.0459ZM33.6435 26.4589C33.6585 22.7494 28.515 22.5454 28.551 20.8879C28.563 20.3839 29.0415 19.8469 30.0915 19.7104C30.2865 19.6909 30.5115 19.6789 30.7395 19.6789C31.806 19.6789 32.817 19.9219 33.717 20.3569L33.6765 20.3389L34.314 17.3584C33.3045 16.9669 32.136 16.7389 30.915 16.7344H30.9135C27.3195 16.7344 24.792 18.6469 24.7695 21.3814C24.747 23.4034 26.574 24.5299 27.9525 25.2049C29.37 25.8934 29.8455 26.3359 29.838 26.9494C29.829 27.8944 28.71 28.3084 27.663 28.3249C27.615 28.3264 27.5565 28.3264 27.4995 28.3264C26.193 28.3264 24.963 27.9979 23.889 27.4174L23.9295 27.4369L23.271 30.5149C24.45 30.9874 25.8165 31.2604 27.2475 31.2604C27.27 31.2604 27.2925 31.2604 27.315 31.2604H27.312C31.131 31.2604 33.6285 29.3749 33.642 26.4544L33.6435 26.4589ZM18.5865 16.9954L12.6975 31.0459H8.85448L5.95648 19.8304C5.90098 19.2844 5.56648 18.8284 5.10148 18.6004L5.09248 18.5959C4.06048 18.0889 2.86048 17.6764 1.60498 17.4169L1.50598 17.4004L1.59298 16.9939H7.77898C8.62198 16.9939 9.32248 17.6104 9.45298 18.4159L9.45448 18.4249L10.986 26.5564L14.769 16.9924L18.5865 16.9954Z" fill="#265598"/>
</svg>
