<svg width="38" height="38" viewBox="0 0 38 38" fill="none" xmlns="http://www.w3.org/2000/svg">
<path d="M22.167 34.624L10.6035 26.917H6.33301C4.58672 26.9168 3.16699 25.4963 3.16699 23.75V14.25C3.16703 12.5037 4.58674 11.0832 6.33301 11.083H10.6035L22.167 3.37598V34.624ZM25.333 4.75C30.9174 7.19942 34.832 12.5226 34.832 19C34.832 25.4774 30.9174 30.8006 25.333 33.25V30.083C29.1124 27.8885 31.665 23.6756 31.665 19C31.665 14.3244 29.1124 10.1115 25.333 7.91699V4.75ZM25.333 11.083C27.2726 12.8247 28.5 16.1959 28.5 19C28.5 21.8041 27.2726 25.1753 25.333 26.917V11.083Z" fill="#FDFDED"/>
</svg>
