<svg width="38" height="38" viewBox="0 0 38 38" fill="none" xmlns="http://www.w3.org/2000/svg">
<path d="M33.0559 5L5.05591 33" stroke="#FDFDED" stroke-width="2" stroke-linecap="round"/>
<path opacity="0.5" d="M22.167 34.624L13.4697 28.8271L22.167 20.1309V34.624ZM32.0752 10.2217C33.8128 12.6962 34.832 15.6975 34.832 19C34.832 25.4774 30.9174 30.8006 25.333 33.25V30.083C29.1124 27.8885 31.665 23.6756 31.665 19C31.665 16.6244 31.0044 14.3692 29.8604 12.4365L32.0752 10.2217ZM22.167 11.6465L6.89648 26.917H6.33301C4.58672 26.9168 3.16699 25.4963 3.16699 23.75V14.25C3.16703 12.5037 4.58674 11.0832 6.33301 11.083H10.6035L22.167 3.37598V11.6465ZM27.6455 14.6514C28.1929 16.0603 28.5 17.6005 28.5 19C28.5 21.8041 27.2726 25.1753 25.333 26.917V16.9648L27.6455 14.6514ZM25.333 4.75C26.181 5.12194 26.9898 5.56113 27.7529 6.05957L25.6836 8.12891C25.5679 8.05642 25.4511 7.98558 25.333 7.91699V4.75Z" fill="#FDFDED"/>
</svg>
