<svg width="32" height="32" viewBox="0 0 32 32" fill="none" xmlns="http://www.w3.org/2000/svg">
<g clip-path="url(#clip0_2211_184)">
<path d="M30.0482 11.2799L20.7162 1.94528C19.4562 0.68661 17.7829 -0.00805664 16.0015 -0.00805664C14.2202 -0.00805664 12.5455 0.68661 11.2869 1.94528L1.95486 11.2799C-0.643807 13.8786 -0.643807 18.1066 1.95486 20.7053L11.2869 30.0399C12.5455 31.2986 14.2202 31.9933 16.0015 31.9933C17.7829 31.9933 19.4562 31.2986 20.7162 30.0399L30.0482 20.7053C31.3069 19.4466 32.0002 17.7733 32.0002 15.9933C32.0002 14.2133 31.3069 12.5386 30.0482 11.2799ZM14.6669 9.33328C14.6669 8.59594 15.2642 7.99994 16.0002 7.99994C16.7362 7.99994 17.3335 8.59594 17.3335 9.33328V16.6666C17.3335 17.4039 16.7362 17.9999 16.0002 17.9999C15.2642 17.9999 14.6669 17.4039 14.6669 16.6666V9.33328ZM16.0002 23.9999C14.8962 23.9999 14.0002 23.1039 14.0002 21.9999C14.0002 20.8959 14.8962 19.9999 16.0002 19.9999C17.1042 19.9999 18.0002 20.8959 18.0002 21.9999C18.0002 23.1039 17.1042 23.9999 16.0002 23.9999Z" fill="white"/>
</g>
<defs>
<clipPath id="clip0_2211_184">
<rect width="32" height="32" fill="white"/>
</clipPath>
</defs>
</svg>
