<svg width="20" height="20" viewBox="0 0 20 20" fill="none" xmlns="http://www.w3.org/2000/svg">
<g clip-path="url(#clip0_2205_1650)">
<path d="M9.16667 3.28689V13.3727C7.2675 13.5536 5.51833 14.3536 4.17333 15.6702L3.59 16.2411L3.00667 15.6702C1.12417 13.8269 0 11.0852 0 8.33689C0 5.52855 1.1525 2.65605 3.0075 0.839388L3.59083 0.268555L4.17417 0.839388C5.60083 2.23605 7.34833 3.08689 9.1675 3.28772L9.16667 3.28689ZM16.9925 0.839388L16.4092 0.268555L15.8258 0.839388C14.3992 2.23605 12.6517 3.08689 10.8325 3.28772V13.3736C12.7317 13.5544 14.4808 14.3544 15.8258 15.6711L16.4092 16.2419L16.9925 15.6711C18.8758 13.8277 20 11.0861 20 8.33772C20 5.52855 18.8475 2.65605 16.9925 0.840221V0.839388ZM10.8333 3.28689V1.66689H9.16667V3.28689C9.44333 3.31772 9.72083 3.33355 10 3.33355C10.2792 3.33355 10.5567 3.31772 10.8333 3.28689ZM9.16667 13.3727V19.9994H10.8333V13.3727C10.5583 13.3469 10.28 13.3327 10 13.3327C9.72 13.3327 9.44167 13.3461 9.16667 13.3727Z" fill="white"/>
</g>
<defs>
<clipPath id="clip0_2205_1650">
<rect width="20" height="20" fill="white"/>
</clipPath>
</defs>
</svg>
