<svg width="20" height="20" viewBox="0 0 20 20" fill="none" xmlns="http://www.w3.org/2000/svg">
<g clip-path="url(#clip0_2205_1664)">
<path d="M3.33332 0H5.83332C7.67426 0 9.16664 1.49238 9.16664 3.33332V5.83332C9.16664 7.67426 7.67426 9.16664 5.83332 9.16664H3.33332C1.49238 9.16668 0 7.6743 0 5.83332V3.33332C0 1.49238 1.49238 0 3.33332 0Z" fill="white"/>
<path d="M14.1673 0H16.6673C18.5082 0 20.0006 1.49238 20.0006 3.33332V5.83332C20.0006 7.67426 18.5082 9.16664 16.6673 9.16664H14.1673C12.3264 9.16664 10.834 7.67426 10.834 5.83332V3.33332C10.8339 1.49238 12.3263 0 14.1673 0Z" fill="white"/>
<path d="M3.33332 10.8335H5.83332C7.67426 10.8335 9.16664 12.3259 9.16664 14.1668V16.6668C9.16664 18.5078 7.67426 20.0001 5.83332 20.0001H3.33332C1.49238 20.0002 0 18.5078 0 16.6669V14.1669C0 12.3259 1.49238 10.8335 3.33332 10.8335Z" fill="white"/>
<path d="M14.1673 10.8335H16.6673C18.5082 10.8335 20.0006 12.3259 20.0006 14.1668V16.6668C20.0006 18.5078 18.5082 20.0002 16.6673 20.0002H14.1673C12.3264 20.0002 10.834 18.5078 10.834 16.6669V14.1669C10.8339 12.3259 12.3263 10.8335 14.1673 10.8335Z" fill="white"/>
</g>
<defs>
<clipPath id="clip0_2205_1664">
<rect width="20" height="20" fill="white"/>
</clipPath>
</defs>
</svg>
