<svg width="20" height="20" viewBox="0 0 20 20" fill="none" xmlns="http://www.w3.org/2000/svg">
<g clip-path="url(#clip0_2205_1655)">
<path d="M9.99935 19.9999C5.40435 19.9999 1.66602 16.2616 1.66602 11.6666C1.66602 8.86826 2.92018 7.11742 4.80352 5.34992L6.84352 3.43409L6.18352 6.15326C5.95435 7.09992 5.89435 9.99159 7.11018 11.5374C7.61935 12.1849 8.29185 12.4999 9.16602 12.4999C10.0885 12.4999 10.821 11.7633 10.8327 10.8224C10.8443 9.89159 10.451 9.12076 10.0343 8.30576C9.60768 7.47076 9.16602 6.60826 9.16602 5.55992C9.16602 3.30076 10.3427 1.25326 10.3927 1.16742L11.0827 -0.0175781L11.8168 1.14159C12.5243 2.25742 13.4785 3.29742 14.4027 4.30326C16.3352 6.40659 18.3335 8.58326 18.3335 11.6674C18.3335 16.2624 14.5952 20.0008 10.0002 20.0008L9.99935 19.9999Z" fill="white"/>
</g>
<defs>
<clipPath id="clip0_2205_1655">
<rect width="20" height="20" fill="white"/>
</clipPath>
</defs>
</svg>
