<svg width="1704" height="488" viewBox="0 0 1704 488" fill="none" xmlns="http://www.w3.org/2000/svg">
<path d="M238.833 182.12V365.68C238.833 398.96 230.339 424.787 213.353 443.16C196.366 461.533 172.966 470.72 143.153 470.72H126.513C95.3127 470.72 71.3927 461.707 54.7527 443.68C38.1127 425.307 29.7927 399.307 29.7927 365.68V182.12C29.7927 109.32 61.8593 72.92 125.993 72.92H142.633C206.766 72.92 238.833 109.32 238.833 182.12ZM149.913 371.4V173.28C149.913 158.72 144.713 151.44 134.313 151.44C123.913 151.44 118.713 158.72 118.713 173.28V371.4C118.713 384.227 124.086 390.64 134.833 390.64C144.886 390.64 149.913 384.227 149.913 371.4ZM426.597 373.48V296H511.357V376.08C511.357 403.12 503.904 425.827 488.997 444.2C474.437 462.227 451.384 471.24 419.837 471.24H404.757C341.317 471.24 309.597 437.093 309.597 368.8V172.24C309.597 142.08 317.051 117.987 331.957 99.96C347.211 81.9333 371.304 72.92 404.237 72.92H419.837C480.851 72.92 511.357 103.08 511.357 163.4V226.84H426.597V167.04C426.597 154.213 421.917 147.8 412.557 147.8C407.357 147.8 403.717 149.187 401.637 151.96C399.557 154.733 398.517 159.76 398.517 167.04V373.48C398.517 387 403.371 393.76 413.077 393.76C422.091 393.76 426.597 387 426.597 373.48ZM525.95 78.12H686.63V158.2H610.71V224.24H671.55V306.4H610.71V383.36H689.75V465H525.95V78.12ZM828.013 315.76H786.933V465H701.653V78.12H825.413C850.72 78.12 869.093 84.5333 880.533 97.36C892.32 110.187 898.213 129.773 898.213 156.12V236.2C898.213 261.507 891.973 281.093 879.493 294.96C867.36 308.827 850.2 315.76 828.013 315.76ZM786.933 145.72V244.52H797.333C803.226 244.52 807.213 243.133 809.293 240.36C811.373 237.24 812.413 232.387 812.413 225.8V164.96C812.413 158.373 811.373 153.52 809.293 150.4C807.213 147.28 803.226 145.72 797.333 145.72H786.933ZM911.887 465V78.12H1041.89C1064.77 78.12 1081.75 83.84 1092.85 95.28C1104.29 106.72 1110.01 125.267 1110.01 150.92V193.56C1110.01 209.853 1106.02 223.027 1098.05 233.08C1090.42 243.133 1082.45 249.547 1074.13 252.32C1102.9 261.333 1117.29 283.347 1117.29 318.36V375.56C1117.29 435.187 1093.89 465 1047.09 465H911.887ZM1011.73 294.44H997.687V396.36H1013.29C1018.49 396.36 1022.13 394.973 1024.21 392.2C1026.63 389.08 1027.85 383.533 1027.85 375.56V314.2C1027.85 306.92 1026.63 301.893 1024.21 299.12C1022.13 296 1017.97 294.44 1011.73 294.44ZM1010.17 144.16H997.687V227.36H1009.65C1020.05 227.36 1025.25 220.947 1025.25 208.12V162.36C1025.25 156.12 1024.21 151.613 1022.13 148.84C1020.05 145.72 1016.06 144.16 1010.17 144.16ZM1130.25 78.12H1290.93V158.2H1215.01V224.24H1275.85V306.4H1215.01V383.36H1294.05V465H1130.25V78.12ZM1432.31 315.76H1391.23V465H1305.95V78.12H1429.71C1455.02 78.12 1473.39 84.5333 1484.83 97.36C1496.62 110.187 1502.51 129.773 1502.51 156.12V236.2C1502.51 261.507 1496.27 281.093 1483.79 294.96C1471.66 308.827 1454.5 315.76 1432.31 315.76ZM1391.23 145.72V244.52H1401.63C1407.52 244.52 1411.51 243.133 1413.59 240.36C1415.67 237.24 1416.71 232.387 1416.71 225.8V164.96C1416.71 158.373 1415.67 153.52 1413.59 150.4C1411.51 147.28 1407.52 145.72 1401.63 145.72H1391.23ZM1516.18 78.12H1676.86V158.2H1600.94V224.24H1661.78V306.4H1600.94V383.36H1679.98V465H1516.18V78.12Z" fill="white"/>
</svg>
