<svg width="48" height="48" viewBox="0 0 48 48" fill="none" xmlns="http://www.w3.org/2000/svg">
<g clip-path="url(#clip0_2743_10072)">
<rect width="11" height="10" transform="translate(19 19)" fill="white"/>
<mask id="mask0_2743_10072" style="mask-type:luminance" maskUnits="userSpaceOnUse" x="12" y="12" width="24" height="24">
<path d="M12 12H36V36H12V12Z" fill="white"/>
</mask>
<g mask="url(#mask0_2743_10072)">
<path d="M35.5006 18.5071C35.3647 18.0223 35.1 17.5834 34.7346 17.2371C34.3589 16.8801 33.8984 16.6247 33.3966 16.4951C31.5186 16.0001 23.9946 16.0001 23.9946 16.0001C20.8579 15.9644 17.722 16.1214 14.6046 16.4701C14.1028 16.6093 13.6432 16.8704 13.2666 17.2301C12.8966 17.5861 12.6286 18.0251 12.4886 18.5061C12.1523 20.3178 11.9889 22.1574 12.0006 24.0001C11.9886 25.8411 12.1516 27.6801 12.4886 29.4941C12.6256 29.9731 12.8926 30.4101 13.2636 30.7631C13.6346 31.1161 14.0966 31.3711 14.6046 31.5061C16.5076 32.0001 23.9946 32.0001 23.9946 32.0001C27.1353 32.0358 30.2752 31.8789 33.3966 31.5301C33.8984 31.4004 34.3589 31.1451 34.7346 30.7881C35.0999 30.4418 35.3643 30.0029 35.4996 29.5181C35.8447 27.707 36.0125 25.8667 36.0006 24.0231C36.0266 22.1717 35.859 20.3236 35.5006 18.5071ZM21.6026 27.4241V20.5771L27.8626 24.0011L21.6026 27.4241Z" fill="#FF0000"/>
</g>
</g>
<defs>
<clipPath id="clip0_2743_10072">
<rect width="24" height="24" fill="white" transform="translate(12 12)"/>
</clipPath>
</defs>
</svg>
